<svg version="1.1" xmlns="http://www.w3.org/2000/svg" xmlns:xlink="http://www.w3.org/1999/xlink" x="0px" y="0px"
	 viewBox="0 0 58 58" enable-background="new 0 0 58 58" xml:space="preserve">
<circle fill="#FFFFFF" cx="29" cy="29" r="29"/>
<g>
	<path fill="#3D4F2D" d="M27.7,29.2c0,0.2,0.1,0.4,0.1,0.6s0,0.4,0,0.7c0,1-0.2,1.9-0.7,2.8c-0.4,0.9-1.1,1.7-2.1,2.3v0
		c0.6-0.3,1.2-0.4,1.7-0.5c0.5-0.1,1-0.1,1.5-0.1c0.7,0,1.4,0.1,2,0.3c0.6,0.2,1.1,0.4,1.6,0.7s0.9,0.5,1.3,0.7s0.8,0.3,1.2,0.3
		c0.3,0,0.6-0.2,0.9-0.6s0.5-1,0.5-1.7h2.6c0,1-0.2,1.9-0.4,2.7s-0.5,1.6-0.9,2.2c-0.4,0.6-0.9,1.1-1.4,1.4c-0.6,0.3-1.2,0.5-2,0.5
		c-0.5,0-1.1-0.1-1.6-0.3c-0.5-0.2-1-0.4-1.5-0.6c-0.5-0.3-1-0.5-1.4-0.8s-1-0.6-1.4-0.8c-0.5-0.2-1-0.5-1.5-0.6
		c-0.5-0.2-1-0.3-1.6-0.3c-0.1,0.5-0.3,1-0.5,1.4c-0.2,0.4-0.5,0.8-0.8,1.1s-0.6,0.6-1,0.8c-0.3,0.2-0.7,0.3-1,0.3
		c-0.4,0-0.8-0.1-1.1-0.2c-0.3-0.1-0.5-0.3-0.7-0.5s-0.3-0.4-0.4-0.7s-0.1-0.5-0.1-0.8c0-0.4,0.1-0.8,0.3-1.1s0.4-0.7,0.7-1
		c0.3-0.3,0.7-0.6,1.1-0.9c0.4-0.3,0.9-0.5,1.4-0.7c0.1-0.2,0.2-0.4,0.3-0.6c0.1-0.2,0.2-0.5,0.2-0.8c0.1-0.3,0.1-0.5,0.2-0.8
		s0.1-0.5,0.1-0.7c0-0.7,0-1.3-0.1-1.9c-0.1-0.6-0.2-1.1-0.4-1.7l-3.1,0.1V26h2.2c-0.1-0.6-0.3-1.2-0.3-1.8
		c-0.1-0.6-0.1-1.4-0.1-2.2c0-1.5,0.2-2.9,0.7-4.1c0.5-1.2,1.1-2.2,1.9-3c0.8-0.8,1.7-1.4,2.7-1.9s2.1-0.6,3.2-0.6
		c1.2,0,2.3,0.2,3.1,0.5s1.6,0.7,2.1,1.2c0.5,0.5,0.9,1,1.2,1.6c0.2,0.6,0.4,1.1,0.4,1.6c0,0.4-0.1,0.8-0.2,1.2
		c-0.1,0.4-0.3,0.7-0.5,1c-0.2,0.3-0.5,0.5-0.8,0.6s-0.7,0.2-1.1,0.2c-0.5,0-0.9-0.1-1.2-0.3s-0.6-0.4-0.8-0.6
		c-0.2-0.2-0.4-0.5-0.5-0.8c-0.1-0.3-0.1-0.5-0.1-0.8c0-0.3,0-0.7,0.1-1.1s0.3-0.7,0.5-1c-0.1-0.2-0.3-0.3-0.6-0.4
		c-0.3-0.1-0.6-0.2-1.1-0.2c-0.7,0-1.3,0.2-1.8,0.5c-0.5,0.3-0.9,0.8-1.2,1.3c-0.3,0.5-0.5,1.1-0.6,1.7c-0.1,0.6-0.2,1.3-0.2,1.9
		c0,1.1,0.1,2,0.2,2.9s0.3,1.7,0.4,2.5h6.3v3.1L27.7,29.2z"/>
</g>
</svg>
