<?xml version="1.0" encoding="utf-8"?>
<!-- Generator: Adobe Illustrator 18.1.0, SVG Export Plug-In . SVG Version: 6.00 Build 0)  -->
<!DOCTYPE svg PUBLIC "-//W3C//DTD SVG 1.1//EN" "http://www.w3.org/Graphics/SVG/1.1/DTD/svg11.dtd">
<svg version="1.1" id="Layer_1" xmlns="http://www.w3.org/2000/svg" xmlns:xlink="http://www.w3.org/1999/xlink" x="0px" y="0px"
	 width="21.4px" height="20.9px" viewBox="0 0 21.4 20.9" enable-background="new 0 0 21.4 20.9" xml:space="preserve">
<path fill="#FFFFFF" d="M20.8,10.5v5c0,3-2.3,5.3-5.3,5.3H5.6c-3,0-5.3-2.4-5.3-5.3v-10c0-3,2.3-5.3,5.3-5.3h5.2v1.8H5.6
	C3.7,2.2,2.1,3.7,2.1,5.6v9.9c0,1.9,1.5,3.5,3.5,3.5h9.9c1.9,0,3.5-1.5,3.5-3.5v-5L20.8,10.5L20.8,10.5z"/>
<polygon fill="#FFFFFF" points="20.5,8.2 20.5,0.7 13.1,0.7 "/>
<rect x="7" y="7.1" transform="matrix(0.7071 -0.7071 0.7071 0.7071 -1.8354 11.7058)" fill="#FFFFFF" width="12.3" height="1.9"/>
</svg>
