<svg version="1.1" xmlns="http://www.w3.org/2000/svg" xmlns:xlink="http://www.w3.org/1999/xlink" x="0px" y="0px"
	 viewBox="0 0 314.5 84.4" enable-background="new 0 0 314.5 84.4" xml:space="preserve">
<g>
	<g>
		<g>
			<path fill="#FFFFFF" d="M69.7,51.9c0.1,0,0.4,0,0.6,0c0.9,0.1,1.8,0.1,2.6,0.3c0.2,0,0.4,0.1,0.6,0.1c0.7,0.2,1.4,0.5,2,0.9
				c1,0.8,1.8,1.8,2.7,2.6c0.6,0.5,1.1,0.9,1.7,1.4c0.4,0.3,0.9,0.6,1.3,1c0.1,0.1,0.3,0.2,0.4,0.4c-1.4,0.5-3.2,0.8-5,0.5
				c-0.3,0-0.5-0.1-0.8-0.2c-0.2-0.1-0.5-0.1-0.7-0.2c-0.1,0-0.2-0.1-0.3-0.2c-0.1-0.1-0.2-0.1-0.3-0.1c-0.1-0.1-0.2-0.1-0.3-0.2
				c-0.1-0.1-0.2-0.1-0.3-0.1c-0.2-0.1-0.4-0.3-0.6-0.4c-0.6-0.4-1.1-0.8-1.6-1.2c-0.2-0.1-0.3-0.3-0.5-0.4
				c-0.2-0.1-0.3-0.3-0.5-0.4c-0.3-0.2-0.6-0.4-0.9-0.5c-0.8-0.4-1.6-0.7-2.6-0.9c-0.2,0-0.4-0.1-0.5-0.2c0.1-0.4,0.2-0.7,0.4-1
				c0.1-0.1,0.1-0.2,0.2-0.3c0.1-0.1,0.2-0.1,0.3-0.2c0.3-0.2,0.8-0.3,1.3-0.3C69.1,51.9,69.4,52,69.7,51.9"/>
			<path fill="none" stroke="#FFFFFF" stroke-width="0.25" d="M69.7,51.9c0.1,0,0.4,0,0.6,0c0.9,0.1,1.8,0.1,2.6,0.3
				c0.2,0,0.4,0.1,0.6,0.1c0.7,0.2,1.4,0.5,2,0.9c1,0.8,1.8,1.8,2.7,2.6c0.6,0.5,1.1,0.9,1.7,1.4c0.4,0.3,0.9,0.6,1.3,1
				c0.1,0.1,0.3,0.2,0.4,0.4c-1.4,0.5-3.2,0.8-5,0.5c-0.3,0-0.5-0.1-0.8-0.2c-0.2-0.1-0.5-0.1-0.7-0.2c-0.1,0-0.2-0.1-0.3-0.2
				c-0.1-0.1-0.2-0.1-0.3-0.1c-0.1-0.1-0.2-0.1-0.3-0.2c-0.1-0.1-0.2-0.1-0.3-0.1c-0.2-0.1-0.4-0.3-0.6-0.4
				c-0.6-0.4-1.1-0.8-1.6-1.2c-0.2-0.1-0.3-0.3-0.5-0.4c-0.2-0.1-0.3-0.3-0.5-0.4c-0.3-0.2-0.6-0.4-0.9-0.5
				c-0.8-0.4-1.6-0.7-2.6-0.9c-0.2,0-0.4-0.1-0.5-0.2c0.1-0.4,0.2-0.7,0.4-1c0.1-0.1,0.1-0.2,0.2-0.3c0.1-0.1,0.2-0.1,0.3-0.2
				c0.3-0.2,0.8-0.3,1.3-0.3C69.1,51.9,69.4,52,69.7,51.9z"/>
			<path fill="#FFFFFF" d="M78.7,28.8c0,0,0.1,0,0.2,0c0,0.2-0.2,0.4-0.3,0.6c-0.4,0.6-0.7,1.1-1.2,1.6c-0.1,0.2-0.3,0.4-0.4,0.5
				c-0.1,0.2-0.3,0.3-0.5,0.5c-0.1,0.1-0.1,0.2-0.2,0.3c-0.1,0.1-0.2,0.1-0.2,0.2c-0.1,0.2-0.3,0.4-0.4,0.5
				c-0.2,0.3-0.6,0.5-0.9,0.8c-0.1,0.1-0.2,0.2-0.3,0.3c-0.1,0.1-0.2,0.1-0.3,0.2c-0.1,0.1-0.2,0.2-0.3,0.2
				c-0.3,0.1-0.6,0.2-0.9,0.4c-0.3,0.1-0.6,0.2-0.9,0.3c-0.3,0.1-0.7,0.2-1,0.2c-0.7,0.1-1.4,0.3-2.1,0.4c-0.7,0.1-1.3,0.3-1.9,0.6
				c-0.3,0.1-0.6,0.3-0.9,0.4c-0.2-0.3-0.4-0.7-0.6-1.1c-0.1-0.2-0.2-0.4-0.3-0.6c-0.1-0.2-0.3-0.4-0.3-0.5c0-0.1,0.1-0.3,0.2-0.4
				c0.3-0.4,0.6-0.7,0.8-1.1c0.4-0.3,0.7-0.7,1.1-1c0.4-0.3,0.8-0.5,1.3-0.8c1-0.5,2-0.8,3.2-1c0.5-0.1,0.9-0.1,1.5-0.1
				c0.7,0,1.5-0.2,2.3-0.4C76.6,29.5,77.7,29.2,78.7,28.8"/>
			<path fill="none" stroke="#FFFFFF" stroke-width="0.25" d="M78.7,28.8c0,0,0.1,0,0.2,0c0,0.2-0.2,0.4-0.3,0.6
				c-0.4,0.6-0.7,1.1-1.2,1.6c-0.1,0.2-0.3,0.4-0.4,0.5c-0.1,0.2-0.3,0.3-0.5,0.5c-0.1,0.1-0.1,0.2-0.2,0.3
				c-0.1,0.1-0.2,0.1-0.2,0.2c-0.1,0.2-0.3,0.4-0.4,0.5c-0.2,0.3-0.6,0.5-0.9,0.8c-0.1,0.1-0.2,0.2-0.3,0.3
				c-0.1,0.1-0.2,0.1-0.3,0.2c-0.1,0.1-0.2,0.2-0.3,0.2c-0.3,0.1-0.6,0.2-0.9,0.4c-0.3,0.1-0.6,0.2-0.9,0.3c-0.3,0.1-0.7,0.2-1,0.2
				c-0.7,0.1-1.4,0.3-2.1,0.4c-0.7,0.1-1.3,0.3-1.9,0.6c-0.3,0.1-0.6,0.3-0.9,0.4c-0.2-0.3-0.4-0.7-0.6-1.1
				c-0.1-0.2-0.2-0.4-0.3-0.6c-0.1-0.2-0.3-0.4-0.3-0.5c0-0.1,0.1-0.3,0.2-0.4c0.3-0.4,0.6-0.7,0.8-1.1c0.4-0.3,0.7-0.7,1.1-1
				c0.4-0.3,0.8-0.5,1.3-0.8c1-0.5,2-0.8,3.2-1c0.5-0.1,0.9-0.1,1.5-0.1c0.7,0,1.5-0.2,2.3-0.4C76.6,29.5,77.7,29.2,78.7,28.8z"/>
			<path fill="#FFFFFF" d="M72.5,46.9c1,0,2,0.2,3.1,0.3c1.1,0.2,2.1,0.1,3.3,0.1c0,0.1-0.1,0.2-0.2,0.2c-0.2,0.1-0.5,0.3-0.7,0.4
				c-0.6,0.4-1.3,0.7-2.1,0.9c-0.4,0.1-0.8,0.3-1.1,0.3c-0.1,0-0.2,0-0.3,0c-0.1,0-0.2,0.1-0.3,0.1c-0.1,0-0.3,0-0.4,0
				c-0.6,0.1-1.2,0.2-1.9,0.3c-0.3,0-0.6,0-0.8,0c-0.3,0-0.7,0-1-0.1c-0.1,0-0.2-0.1-0.3-0.1c-0.2,0-0.3,0-0.5,0
				c-0.4-0.1-0.9-0.1-1.3-0.2c0-0.5,0.1-1.1,0.2-1.6c0.2-0.2,0.5-0.2,0.8-0.3c0.4-0.1,0.8-0.2,1.3-0.3c0.3-0.1,0.7-0.1,1.1-0.1
				C71.7,47,72.1,46.9,72.5,46.9"/>
			<path fill="none" stroke="#FFFFFF" stroke-width="0.25" d="M72.5,46.9c1,0,2,0.2,3.1,0.3c1.1,0.2,2.1,0.1,3.3,0.1
				c0,0.1-0.1,0.2-0.2,0.2c-0.2,0.1-0.5,0.3-0.7,0.4c-0.6,0.4-1.3,0.7-2.1,0.9c-0.4,0.1-0.8,0.3-1.1,0.3c-0.1,0-0.2,0-0.3,0
				c-0.1,0-0.2,0.1-0.3,0.1c-0.1,0-0.3,0-0.4,0c-0.6,0.1-1.2,0.2-1.9,0.3c-0.3,0-0.6,0-0.8,0c-0.3,0-0.7,0-1-0.1
				c-0.1,0-0.2-0.1-0.3-0.1c-0.2,0-0.3,0-0.5,0c-0.4-0.1-0.9-0.1-1.3-0.2c0-0.5,0.1-1.1,0.2-1.6c0.2-0.2,0.5-0.2,0.8-0.3
				c0.4-0.1,0.8-0.2,1.3-0.3c0.3-0.1,0.7-0.1,1.1-0.1C71.7,47,72.1,46.9,72.5,46.9z"/>
			<path fill="#FFFFFF" d="M72.5,41.6c0.5,0,0.9,0,1.4,0c0.4,0,0.8,0.2,1.2,0.2c0.4,0.1,0.8,0.1,1.2,0.2c1.4,0.4,2.7,1.1,4.2,1.4
				c0.4,0.1,0.8,0.1,1.2,0.2c0.4,0,0.9,0,1.4,0c0,0.2-0.1,0.2-0.2,0.3c-0.1,0.1-0.2,0.2-0.3,0.3c-0.2,0.2-0.4,0.4-0.6,0.5
				c-0.6,0.5-1.4,0.9-2.3,1.2c-0.7,0.3-1.4,0.5-2.3,0.6c-0.6,0.1-1.3,0.1-2.1,0.1c-0.2,0-0.4,0-0.6,0c-0.3,0-0.5-0.1-0.8-0.2
				c-0.1,0-0.3,0-0.4-0.1c-0.7-0.2-1.4-0.4-2.1-0.6c-0.2-0.1-0.4-0.2-0.6-0.2c-0.2,0-0.4,0-0.6-0.1c-0.2,0-0.4,0-0.6,0
				c-0.5,0-0.9,0.2-1.3,0.2c-0.1-0.4,0-0.9-0.1-1.4c0-0.2,0-0.4-0.1-0.7c0-0.2-0.1-0.5,0-0.7c0.1-0.2,0.7-0.4,0.9-0.5
				c0.4-0.2,0.6-0.3,1-0.4C70.9,41.8,71.7,41.7,72.5,41.6"/>
			<path fill="none" stroke="#FFFFFF" stroke-width="0.25" d="M72.5,41.6c0.5,0,0.9,0,1.4,0c0.4,0,0.8,0.2,1.2,0.2
				c0.4,0.1,0.8,0.1,1.2,0.2c1.4,0.4,2.7,1.1,4.2,1.4c0.4,0.1,0.8,0.1,1.2,0.2c0.4,0,0.9,0,1.4,0c0,0.2-0.1,0.2-0.2,0.3
				c-0.1,0.1-0.2,0.2-0.3,0.3c-0.2,0.2-0.4,0.4-0.6,0.5c-0.6,0.5-1.4,0.9-2.3,1.2c-0.7,0.3-1.4,0.5-2.3,0.6
				c-0.6,0.1-1.3,0.1-2.1,0.1c-0.2,0-0.4,0-0.6,0c-0.3,0-0.5-0.1-0.8-0.2c-0.1,0-0.3,0-0.4-0.1c-0.7-0.2-1.4-0.4-2.1-0.6
				c-0.2-0.1-0.4-0.2-0.6-0.2c-0.2,0-0.4,0-0.6-0.1c-0.2,0-0.4,0-0.6,0c-0.5,0-0.9,0.2-1.3,0.2c-0.1-0.4,0-0.9-0.1-1.4
				c0-0.2,0-0.4-0.1-0.7c0-0.2-0.1-0.5,0-0.7c0.1-0.2,0.7-0.4,0.9-0.5c0.4-0.2,0.6-0.3,1-0.4C70.9,41.8,71.7,41.7,72.5,41.6z"/>
			<path fill="#FFFFFF" d="M71.5,17.8c0.2,0,0.1,0.3,0.1,0.4c-0.1,0.4-0.2,0.9-0.3,1.3c-0.1,0.4-0.2,0.8-0.3,1.2
				c-0.2,0.6-0.5,1.2-0.9,1.7c-0.3,0.4-0.6,0.7-1,1.1c-0.3,0.3-0.7,0.7-1.1,1c-0.4,0.3-0.8,0.6-1.3,0.8c-0.5,0.2-0.9,0.5-1.4,0.7
				c-0.2,0.1-0.5,0.2-0.7,0.3c-0.2,0.1-0.5,0.2-0.7,0.3c-0.2,0.1-0.5,0.3-0.7,0.4c-0.4,0.2-0.7,0.5-1,0.7c-0.1,0.1-0.3,0.2-0.3,0.3
				c-0.3,0.4-0.6,0.8-0.9,1.2c-0.2,0-0.3-0.2-0.4-0.3c-0.3-0.2-0.5-0.4-0.8-0.7c-0.1-0.1-0.4-0.2-0.4-0.3c0-0.1,0-0.4,0.1-0.6
				c0.2-1.4,0.8-2.4,1.4-3.4c0.2-0.3,0.4-0.5,0.6-0.8c0.2-0.2,0.5-0.5,0.7-0.7c0.5-0.4,1.1-0.8,1.7-1c1.8-0.7,3.6-1,5.1-1.9
				c0.6-0.4,1.1-0.7,1.7-1.1C70.9,18.2,71.2,18,71.5,17.8L71.5,17.8z"/>
			<path fill="none" stroke="#FFFFFF" stroke-width="0.25" d="M71.5,17.8c0.2,0,0.1,0.3,0.1,0.4c-0.1,0.4-0.2,0.9-0.3,1.3
				c-0.1,0.4-0.2,0.8-0.3,1.2c-0.2,0.6-0.5,1.2-0.9,1.7c-0.3,0.4-0.6,0.7-1,1.1c-0.3,0.3-0.7,0.7-1.1,1c-0.4,0.3-0.8,0.6-1.3,0.8
				c-0.5,0.2-0.9,0.5-1.4,0.7c-0.2,0.1-0.5,0.2-0.7,0.3c-0.2,0.1-0.5,0.2-0.7,0.3c-0.2,0.1-0.5,0.3-0.7,0.4c-0.4,0.2-0.7,0.5-1,0.7
				c-0.1,0.1-0.3,0.2-0.3,0.3c-0.3,0.4-0.6,0.8-0.9,1.2c-0.2,0-0.3-0.2-0.4-0.3c-0.3-0.2-0.5-0.4-0.8-0.7c-0.1-0.1-0.4-0.2-0.4-0.3
				c0-0.1,0-0.4,0.1-0.6c0.2-1.4,0.8-2.4,1.4-3.4c0.2-0.3,0.4-0.5,0.6-0.8c0.2-0.2,0.5-0.5,0.7-0.7c0.5-0.4,1.1-0.8,1.7-1
				c1.8-0.7,3.6-1,5.1-1.9c0.6-0.4,1.1-0.7,1.7-1.1C70.9,18.2,71.2,18,71.5,17.8L71.5,17.8z"/>
			<path fill="#FFFFFF" d="M71.3,21.8c0,0.7-0.1,1.3-0.3,2c0,0.2-0.1,0.4-0.1,0.6c-0.1,0.5-0.4,0.9-0.6,1.3
				c-0.1,0.2-0.2,0.5-0.3,0.7c-0.1,0.2-0.2,0.4-0.3,0.6c-0.4,0.8-1.1,1.5-1.7,2.1c-0.4,0.4-0.8,0.8-1.3,1.1
				c-0.9,0.8-2.1,1.4-3.3,1.9c-0.5-0.5-0.9-1.1-1.4-1.7c0.5-1,1.2-1.8,2-2.4c0.8-0.7,1.8-1.1,2.7-1.7c1.8-1.2,3-2.9,4.4-4.5
				C71.3,21.8,71.3,21.8,71.3,21.8C71.3,21.8,71.3,21.8,71.3,21.8"/>
			<path fill="none" stroke="#FFFFFF" stroke-width="0.25" d="M71.3,21.8c0,0.7-0.1,1.3-0.3,2c0,0.2-0.1,0.4-0.1,0.6
				c-0.1,0.5-0.4,0.9-0.6,1.3c-0.1,0.2-0.2,0.5-0.3,0.7c-0.1,0.2-0.2,0.4-0.3,0.6c-0.4,0.8-1.1,1.5-1.7,2.1
				c-0.4,0.4-0.8,0.8-1.3,1.1c-0.9,0.8-2.1,1.4-3.3,1.9c-0.5-0.5-0.9-1.1-1.4-1.7c0.5-1,1.2-1.8,2-2.4c0.8-0.7,1.8-1.1,2.7-1.7
				c1.8-1.2,3-2.9,4.4-4.5C71.3,21.8,71.3,21.8,71.3,21.8C71.3,21.8,71.3,21.8,71.3,21.8z"/>
			<path fill="#FFFFFF" d="M67.4,40.3c-0.2-0.4-0.2-0.9-0.3-1.4c0-0.2-0.1-0.3-0.1-0.4c0-0.3,0.8-0.6,1-0.8c0.2-0.1,0.4-0.2,0.6-0.3
				c0.2-0.1,0.4-0.2,0.6-0.3c0.5-0.2,1-0.2,1.5-0.3c0.5-0.1,1-0.2,1.4-0.3c0.9-0.3,1.7-0.7,2.3-1.2c0.2-0.1,0.3-0.2,0.5-0.4
				c0.3-0.2,0.7-0.5,1-0.8c0.2-0.1,0.4-0.3,0.6-0.4h0c-0.2,0.8-0.6,1.5-1,2.1c-0.2,0.3-0.4,0.6-0.7,0.9c-0.2,0.3-0.5,0.6-0.8,0.8
				c-0.1,0.1-0.2,0.1-0.2,0.2c-0.2,0.2-0.4,0.4-0.6,0.6c-0.3,0.2-0.6,0.4-0.9,0.6c-0.3,0.2-0.6,0.4-1,0.6c-0.2,0.1-0.4,0.1-0.6,0.2
				c-0.2,0.1-0.4,0.2-0.6,0.2c-0.2,0-0.4,0.1-0.6,0.1c-0.2,0-0.4,0.1-0.6,0.1c-0.3,0-0.6,0-0.9,0C67.8,40.2,67.6,40.3,67.4,40.3"/>
			<path fill="none" stroke="#FFFFFF" stroke-width="0.25" d="M67.4,40.3c-0.2-0.4-0.2-0.9-0.3-1.4c0-0.2-0.1-0.3-0.1-0.4
				c0-0.3,0.8-0.6,1-0.8c0.2-0.1,0.4-0.2,0.6-0.3c0.2-0.1,0.4-0.2,0.6-0.3c0.5-0.2,1-0.2,1.5-0.3c0.5-0.1,1-0.2,1.4-0.3
				c0.9-0.3,1.7-0.7,2.3-1.2c0.2-0.1,0.3-0.2,0.5-0.4c0.3-0.2,0.7-0.5,1-0.8c0.2-0.1,0.4-0.3,0.6-0.4h0c-0.2,0.8-0.6,1.5-1,2.1
				c-0.2,0.3-0.4,0.6-0.7,0.9c-0.2,0.3-0.5,0.6-0.8,0.8c-0.1,0.1-0.2,0.1-0.2,0.2c-0.2,0.2-0.4,0.4-0.6,0.6
				c-0.3,0.2-0.6,0.4-0.9,0.6c-0.3,0.2-0.6,0.4-1,0.6c-0.2,0.1-0.4,0.1-0.6,0.2c-0.2,0.1-0.4,0.2-0.6,0.2c-0.2,0-0.4,0.1-0.6,0.1
				c-0.2,0-0.4,0.1-0.6,0.1c-0.3,0-0.6,0-0.9,0C67.8,40.2,67.6,40.3,67.4,40.3z"/>
			<path fill="#FFFFFF" d="M65.9,55.6c0.4,0,0.8,0,1.1,0c0,0,0,0,0,0c0.2,0,0.5,0,0.7,0.1c0.2,0,0.4,0.1,0.6,0.2
				c0.2,0.1,0.5,0.1,0.7,0.2c0.4,0.1,0.8,0.3,1.2,0.5c0.7,0.3,1.4,0.8,2,1.2c0.2,0.1,0.3,0.2,0.5,0.4c0.2,0.1,0.3,0.2,0.5,0.3
				c0.3,0.2,0.6,0.5,0.9,0.7c0.5,0.3,1,0.6,1.6,0.9c0.2,0.1,0.4,0.1,0.5,0.3c-0.2,0.1-0.3,0.1-0.5,0.1c-0.4,0.1-0.9,0.1-1.5,0.2
				c-0.8,0.1-1.9-0.1-2.6-0.2c-0.4-0.1-0.7-0.1-1.1-0.3c-0.7-0.3-1.3-0.5-1.9-0.8c-0.2-0.1-0.3-0.2-0.4-0.2
				c-0.1-0.1-0.3-0.2-0.4-0.3c-0.1-0.1-0.3-0.2-0.4-0.3c-0.5-0.4-1-0.8-1.6-1.2c-0.1-0.1-0.3-0.1-0.4-0.3
				C65.4,56.5,65.6,56,65.9,55.6"/>
			<path fill="none" stroke="#FFFFFF" stroke-width="0.25" d="M65.9,55.6c0.4,0,0.8,0,1.1,0c0,0,0,0,0,0c0.2,0,0.5,0,0.7,0.1
				c0.2,0,0.4,0.1,0.6,0.2c0.2,0.1,0.5,0.1,0.7,0.2c0.4,0.1,0.8,0.3,1.2,0.5c0.7,0.3,1.4,0.8,2,1.2c0.2,0.1,0.3,0.2,0.5,0.4
				c0.2,0.1,0.3,0.2,0.5,0.3c0.3,0.2,0.6,0.5,0.9,0.7c0.5,0.3,1,0.6,1.6,0.9c0.2,0.1,0.4,0.1,0.5,0.3c-0.2,0.1-0.3,0.1-0.5,0.1
				c-0.4,0.1-0.9,0.1-1.5,0.2c-0.8,0.1-1.9-0.1-2.6-0.2c-0.4-0.1-0.7-0.1-1.1-0.3c-0.7-0.3-1.3-0.5-1.9-0.8
				c-0.2-0.1-0.3-0.2-0.4-0.2c-0.1-0.1-0.3-0.2-0.4-0.3c-0.1-0.1-0.3-0.2-0.4-0.3c-0.5-0.4-1-0.8-1.6-1.2c-0.1-0.1-0.3-0.1-0.4-0.3
				C65.4,56.5,65.6,56,65.9,55.6z"/>
			<path fill="#FFFFFF" d="M63.6,59.7c0.2,0,0.4,0,0.6,0c0.8,0.2,1.6,0.4,2.3,0.7c0.7,0.3,1.4,0.6,1.9,1.1c1.1,0.9,2,2,2.7,3.3
				c0.1,0.2,0.2,0.3,0.3,0.5c0.4,0.8,0.8,1.7,1.1,2.6c0.1,0.4,0.3,0.7,0.4,1.1c0.3,0.7,0.7,1.3,1.1,1.9c0.2,0.3,0.4,0.6,0.6,0.9
				c0.2,0.2,0.3,0.4,0.5,0.6c0,0.1,0.2,0.1,0.1,0.2c-0.4,0-0.7-0.1-1.1-0.2c-0.2,0-0.3-0.1-0.5-0.2c-0.5-0.2-1-0.3-1.4-0.6
				c-0.2-0.1-0.4-0.2-0.7-0.3c-0.1,0-0.1-0.1-0.2-0.1c-0.1,0-0.2,0-0.3-0.1c-0.1,0-0.1-0.1-0.2-0.1c-0.7-0.4-1.3-0.9-1.9-1.4
				c-0.2-0.2-0.5-0.4-0.7-0.6c-0.2-0.2-0.5-0.5-0.7-0.8c-0.2-0.3-0.4-0.6-0.5-0.9c-0.2-0.3-0.3-0.6-0.5-1c-0.2-0.6-0.5-1.2-0.8-1.7
				c-0.1-0.2-0.3-0.4-0.5-0.6c-0.1-0.1-0.1-0.2-0.2-0.3c-0.2-0.2-0.3-0.3-0.5-0.5c-0.5-0.6-1.2-1.2-1.9-1.7
				c-0.2-0.1-0.6-0.3-0.6-0.5c0-0.1,0.2-0.3,0.3-0.4c0.2-0.2,0.4-0.4,0.6-0.7C63.3,59.8,63.3,59.7,63.6,59.7"/>
			<path fill="none" stroke="#FFFFFF" stroke-width="0.25" d="M63.6,59.7c0.2,0,0.4,0,0.6,0c0.8,0.2,1.6,0.4,2.3,0.7
				c0.7,0.3,1.4,0.6,1.9,1.1c1.1,0.9,2,2,2.7,3.3c0.1,0.2,0.2,0.3,0.3,0.5c0.4,0.8,0.8,1.7,1.1,2.6c0.1,0.4,0.3,0.7,0.4,1.1
				c0.3,0.7,0.7,1.3,1.1,1.9c0.2,0.3,0.4,0.6,0.6,0.9c0.2,0.2,0.3,0.4,0.5,0.6c0,0.1,0.2,0.1,0.1,0.2c-0.4,0-0.7-0.1-1.1-0.2
				c-0.2,0-0.3-0.1-0.5-0.2c-0.5-0.2-1-0.3-1.4-0.6c-0.2-0.1-0.4-0.2-0.7-0.3c-0.1,0-0.1-0.1-0.2-0.1c-0.1,0-0.2,0-0.3-0.1
				c-0.1,0-0.1-0.1-0.2-0.1c-0.7-0.4-1.3-0.9-1.9-1.4c-0.2-0.2-0.5-0.4-0.7-0.6c-0.2-0.2-0.5-0.5-0.7-0.8c-0.2-0.3-0.4-0.6-0.5-0.9
				c-0.2-0.3-0.3-0.6-0.5-1c-0.2-0.6-0.5-1.2-0.8-1.7c-0.1-0.2-0.3-0.4-0.5-0.6c-0.1-0.1-0.1-0.2-0.2-0.3c-0.2-0.2-0.3-0.3-0.5-0.5
				c-0.5-0.6-1.2-1.2-1.9-1.7c-0.2-0.1-0.6-0.3-0.6-0.5c0-0.1,0.2-0.3,0.3-0.4c0.2-0.2,0.4-0.4,0.6-0.7
				C63.3,59.8,63.3,59.7,63.6,59.7z"/>
			<path fill="#FFFFFF" d="M60.5,62.7c0.1-0.1,0.5,0.2,0.7,0.2c1,0.4,2,0.8,2.8,1.4c0.3,0.2,0.6,0.5,0.9,0.8c0.3,0.3,0.5,0.6,0.7,1
				c0.6,0.9,1.1,2,1.7,2.9c0.1,0.1,0.1,0.2,0.2,0.3c0.1,0.1,0.2,0.2,0.3,0.3c0.1,0.1,0.2,0.2,0.2,0.3c0.3,0.3,0.6,0.6,0.8,1.1
				c-0.4-0.1-0.9-0.2-1.2-0.4c-0.4-0.2-0.7-0.4-1.1-0.5C66.2,70,66,70,65.9,69.9c-0.3-0.2-0.7-0.4-1.1-0.6c-0.3-0.2-0.6-0.3-0.8-0.5
				c-0.4-0.3-0.8-0.6-1.1-1c-0.1-0.1-0.1-0.1-0.2-0.2c-0.1-0.1-0.2-0.2-0.3-0.3c-0.4-0.4-0.7-0.9-1.1-1.5c-0.4-0.5-0.8-1.2-1.3-1.7
				c-0.1-0.1-0.5-0.4-0.5-0.5c0-0.1,0.1-0.2,0.2-0.3C59.9,63.2,60.3,62.9,60.5,62.7"/>
			<path fill="none" stroke="#FFFFFF" stroke-width="0.25" d="M60.5,62.7c0.1-0.1,0.5,0.2,0.7,0.2c1,0.4,2,0.8,2.8,1.4
				c0.3,0.2,0.6,0.5,0.9,0.8c0.3,0.3,0.5,0.6,0.7,1c0.6,0.9,1.1,2,1.7,2.9c0.1,0.1,0.1,0.2,0.2,0.3c0.1,0.1,0.2,0.2,0.3,0.3
				c0.1,0.1,0.2,0.2,0.2,0.3c0.3,0.3,0.6,0.6,0.8,1.1c-0.4-0.1-0.9-0.2-1.2-0.4c-0.4-0.2-0.7-0.4-1.1-0.5C66.2,70,66,70,65.9,69.9
				c-0.3-0.2-0.7-0.4-1.1-0.6c-0.3-0.2-0.6-0.3-0.8-0.5c-0.4-0.3-0.8-0.6-1.1-1c-0.1-0.1-0.1-0.1-0.2-0.2c-0.1-0.1-0.2-0.2-0.3-0.3
				c-0.4-0.4-0.7-0.9-1.1-1.5c-0.4-0.5-0.8-1.2-1.3-1.7c-0.1-0.1-0.5-0.4-0.5-0.5c0-0.1,0.1-0.2,0.2-0.3
				C59.9,63.2,60.3,62.9,60.5,62.7z"/>
			<path fill="#FFFFFF" d="M56.7,26.2c-0.2,0-0.5-0.3-0.7-0.4c-0.3-0.2-0.6-0.2-0.9-0.5c0-0.8,0.1-1.6,0.3-2.2
				c0.1-0.2,0.2-0.3,0.3-0.5c0.1-0.2,0.2-0.3,0.2-0.5c0.1-0.2,0.3-0.3,0.4-0.5c0.3-0.3,0.5-0.6,0.8-0.9c0.3-0.4,0.6-0.9,0.8-1.4
				c0.1-0.3,0.2-0.7,0.3-1.1c0.1-0.3,0.2-0.7,0.3-1.1c0.1-0.4,0.2-0.8,0.4-1.1h0c0.1,0.3,0.2,0.7,0.3,1.1c0.1,0.4,0.2,0.8,0.2,1.2
				c0,0.8,0,1.6-0.2,2.4c-0.1,0.8-0.3,1.5-0.5,2.1c-0.3,0.6-0.5,1.2-0.9,1.7c-0.3,0.4-0.5,0.7-0.8,1.1C56.9,26,56.8,26.2,56.7,26.2"
				/>
			<path fill="none" stroke="#FFFFFF" stroke-width="0.25" d="M56.7,26.2c-0.2,0-0.5-0.3-0.7-0.4c-0.3-0.2-0.6-0.2-0.9-0.5
				c0-0.8,0.1-1.6,0.3-2.2c0.1-0.2,0.2-0.3,0.3-0.5c0.1-0.2,0.2-0.3,0.2-0.5c0.1-0.2,0.3-0.3,0.4-0.5c0.3-0.3,0.5-0.6,0.8-0.9
				c0.3-0.4,0.6-0.9,0.8-1.4c0.1-0.3,0.2-0.7,0.3-1.1c0.1-0.3,0.2-0.7,0.3-1.1c0.1-0.4,0.2-0.8,0.4-1.1h0c0.1,0.3,0.2,0.7,0.3,1.1
				c0.1,0.4,0.2,0.8,0.2,1.2c0,0.8,0,1.6-0.2,2.4c-0.1,0.8-0.3,1.5-0.5,2.1c-0.3,0.6-0.5,1.2-0.9,1.7c-0.3,0.4-0.5,0.7-0.8,1.1
				C56.9,26,56.8,26.2,56.7,26.2z"/>
			<path fill="#FFFFFF" d="M54.2,46.1c0.2,0,0.3,0.3,0.5,0.3c0.4,0,0.6,0.2,0.9,0.1c0.1,0.1,0.1,0.3,0,0.4c-0.1,0-0.2,0.1-0.2,0.1
				c-0.2,0.1-0.3,0.2-0.7,0.1c-0.1,0-0.1-0.1-0.2-0.1c-0.2,0-0.5-0.1-0.6-0.3c0-0.2-0.1-0.3-0.1-0.5C54,46.3,54.1,46.1,54.2,46.1"/>
			<path fill="none" stroke="#FFFFFF" stroke-width="0.25" d="M54.2,46.1c0.2,0,0.3,0.3,0.5,0.3c0.4,0,0.6,0.2,0.9,0.1
				c0.1,0.1,0.1,0.3,0,0.4c-0.1,0-0.2,0.1-0.2,0.1c-0.2,0.1-0.3,0.2-0.7,0.1c-0.1,0-0.1-0.1-0.2-0.1c-0.2,0-0.5-0.1-0.6-0.3
				c0-0.2-0.1-0.3-0.1-0.5C54,46.3,54.1,46.1,54.2,46.1z"/>
			<path fill="#FFFFFF" d="M52.9,24.4c-0.1,0-0.2,0-0.3,0c-0.3-0.1-0.7-0.2-1-0.3c-0.5-0.2-0.9-0.2-1.3-0.4c-0.1-0.8,0-1.6,0.1-2.4
				c0-0.5,0.2-0.9,0.3-1.4c0.1-0.3,0.2-0.5,0.3-0.7c0.2-0.4,0.4-0.7,0.6-1c0.2-0.3,0.4-0.7,0.6-1c0.4-0.5,0.7-0.9,1.1-1.3
				c0.1-0.1,0.3-0.2,0.4-0.4c0.6-0.5,1.1-1.1,1.6-1.6c0.8-0.8,1.4-1.8,1.9-2.9c0.1-0.2,0.1-0.4,0.2-0.6c0.1-0.2,0.2-0.4,0.3-0.5
				c0,0,0,0,0.1,0c0,0,0,0,0,0c0.2,0.6,0.3,1.3,0.4,2c0,0.2,0.1,0.4,0.1,0.6c0,0.3,0,0.7,0,1.1c0,0.8-0.1,1.4-0.2,2.1
				c-0.1,1.2-0.7,2-1.2,2.8c-0.2,0.3-0.3,0.6-0.5,0.9c0,0-0.1,0.1-0.1,0.1c-0.1,0.1-0.1,0.2-0.2,0.3c-0.1,0.1-0.2,0.2-0.3,0.4
				c-0.2,0.2-0.4,0.5-0.6,0.8c-0.1,0.1-0.2,0.3-0.3,0.4c-0.1,0.1-0.2,0.2-0.3,0.4c-0.2,0.2-0.3,0.4-0.5,0.6c0,0.1-0.1,0.1-0.1,0.2
				c-0.2,0.3-0.4,0.5-0.6,0.8c-0.1,0.2-0.1,0.3-0.2,0.6C53.1,24.1,53,24.4,52.9,24.4"/>
			<path fill="#FFFFFF" d="M52.8,42.1c-0.1,0.1-0.2,0.2-0.3,0.2c-0.1,0-0.1-0.1-0.2-0.3c-0.1-0.2-0.4-0.4-0.2-0.7
				c0.3-0.1,0.7-0.1,0.9-0.3c0-0.1,0-0.2,0.1-0.3c0.1-0.2,0.1-0.3,0.2-0.5c0.3-0.1,0.5-0.2,0.7-0.3c0.1,0,0.2,0.1,0.3,0.1
				c0.1,0,0.3-0.1,0.5,0c-0.1,0.2-0.4,0.3-0.6,0.5c0.1,0.2,0.2,0.6,0.4,0.6c0.2,0,0.2-0.2,0.5-0.2c0,0.1-0.1,0.4-0.2,0.5
				c-0.1,0.1-0.2,0.1-0.3,0.2c-0.1,0.1-0.2,0.2-0.3,0.2c-0.1,0-0.1,0-0.2,0c-0.2,0-0.4,0-0.5,0c-0.1,0-0.1,0-0.2,0
				C53.1,41.9,52.9,42,52.8,42.1"/>
			<path fill="none" stroke="#FFFFFF" stroke-width="0.25" d="M52.8,42.1c-0.1,0.1-0.2,0.2-0.3,0.2c-0.1,0-0.1-0.1-0.2-0.3
				c-0.1-0.2-0.4-0.4-0.2-0.7c0.3-0.1,0.7-0.1,0.9-0.3c0-0.1,0-0.2,0.1-0.3c0.1-0.2,0.1-0.3,0.2-0.5c0.3-0.1,0.5-0.2,0.7-0.3
				c0.1,0,0.2,0.1,0.3,0.1c0.1,0,0.3-0.1,0.5,0c-0.1,0.2-0.4,0.3-0.6,0.5c0.1,0.2,0.2,0.6,0.4,0.6c0.2,0,0.2-0.2,0.5-0.2
				c0,0.1-0.1,0.4-0.2,0.5c-0.1,0.1-0.2,0.1-0.3,0.2c-0.1,0.1-0.2,0.2-0.3,0.2c-0.1,0-0.1,0-0.2,0c-0.2,0-0.4,0-0.5,0
				c-0.1,0-0.1,0-0.2,0C53.1,41.9,52.9,42,52.8,42.1z"/>
			<path fill="#62BB46" d="M52.2,40.5c0.3-0.2,0.3,0.3,0.1,0.4C52.2,40.9,52.2,40.6,52.2,40.5"/>
			<path fill="none" stroke="#FFFFFF" stroke-width="0.25" d="M52.2,40.5c0.3-0.2,0.3,0.3,0.1,0.4C52.2,40.9,52.2,40.6,52.2,40.5z"
				/>
			<path fill="#6AB023" d="M48.8,38.9c0.1,0,0.2,0.1,0.3,0.2c0.2,0.1,0.5,0.1,0.5,0.4c0,0.2-0.2,0.3-0.3,0.4c-0.1,0-0.1,0-0.2,0.1
				c-0.2,0.2-0.1,0.4-0.3,0.5c-0.3,0-1.2,0-1.2-0.5c0-0.2,0.1-0.2,0.3-0.3c0.2-0.2,0.1-0.4,0.2-0.6c0,0,0.1,0,0.3-0.1
				C48.6,38.9,48.6,38.8,48.8,38.9"/>
			<path fill="none" stroke="#FFFFFF" stroke-width="0.25" d="M48.8,38.9c0.1,0,0.2,0.1,0.3,0.2c0.2,0.1,0.5,0.1,0.5,0.4
				c0,0.2-0.2,0.3-0.3,0.4c-0.1,0-0.1,0-0.2,0.1c-0.2,0.2-0.1,0.4-0.3,0.5c-0.3,0-1.2,0-1.2-0.5c0-0.2,0.1-0.2,0.3-0.3
				c0.2-0.2,0.1-0.4,0.2-0.6c0,0,0.1,0,0.3-0.1C48.6,38.9,48.6,38.8,48.8,38.9z"/>
			<path fill="#6AB023" d="M48.2,40.7c0.2-0.1,0.5,0,0.7-0.1c0.1,0,0.1-0.2,0.2-0.2c0.1-0.1,0.2-0.1,0.2-0.1
				c0.1-0.1,0.1-0.3,0.2-0.3h0.3c0.1-0.1,0-0.4,0.1-0.4c0-0.1-0.1-0.2-0.1-0.3c0.1-0.2,0.4-0.5,0.7-0.3c0,0.1,0,0.2,0,0.2
				c0.1,0,0.2,0,0.3,0c0.2,0,0.4,0.1,0.5,0.1c0.1,0.2,0.2,0.5,0,0.6C51.3,40,51,40,50.8,40.1c-0.2,0.1-0.1,0.5-0.2,0.7
				c0.1,0.2,0.1,0.5-0.1,0.6c-0.1,0-0.3,0-0.5,0c-0.1,0-0.2,0-0.3,0c-0.1,0-0.3-0.1-0.4-0.1c-0.2,0-0.4,0-0.5,0
				c-0.1,0-0.2-0.1-0.3-0.1c-0.2-0.1-0.3-0.1-0.4-0.3C48.1,40.9,48.2,40.7,48.2,40.7"/>
			<path fill="none" stroke="#FFFFFF" stroke-width="0.25" d="M48.2,40.7c0.2-0.1,0.5,0,0.7-0.1c0.1,0,0.1-0.2,0.2-0.2
				c0.1-0.1,0.2-0.1,0.2-0.1c0.1-0.1,0.1-0.3,0.2-0.3h0.3c0.1-0.1,0-0.4,0.1-0.4c0-0.1-0.1-0.2-0.1-0.3c0.1-0.2,0.4-0.5,0.7-0.3
				c0,0.1,0,0.2,0,0.2c0.1,0,0.2,0,0.3,0c0.2,0,0.4,0.1,0.5,0.1c0.1,0.2,0.2,0.5,0,0.6C51.3,40,51,40,50.8,40.1
				c-0.2,0.1-0.1,0.5-0.2,0.7c0.1,0.2,0.1,0.5-0.1,0.6c-0.1,0-0.3,0-0.5,0c-0.1,0-0.2,0-0.3,0c-0.1,0-0.3-0.1-0.4-0.1
				c-0.2,0-0.4,0-0.5,0c-0.1,0-0.2-0.1-0.3-0.1c-0.2-0.1-0.3-0.1-0.4-0.3C48.1,40.9,48.2,40.7,48.2,40.7z"/>
			<path fill="#FFFFFF" d="M46.3,12c0.2,0.2,0.3,0.5,0.5,0.8c0.2,0.3,0.3,0.6,0.5,0.9c0.2,0.5,0.4,0.9,0.5,1.5
				c0.1,0.2,0.1,0.3,0.2,0.5c0.1,0.3,0.1,0.7,0.2,1c0,0.2,0.1,0.3,0.1,0.5c0,0.2,0.1,0.3,0.1,0.5c0,0.2,0,0.5,0,0.7
				c0,0.1,0,0.2,0,0.3c0,0.3-0.1,0.7-0.1,1c0,0.2,0,0.3-0.1,0.5c0,0.2,0,0.3-0.1,0.5c0,0.2-0.1,0.4-0.2,0.5
				c-0.1,0.2-0.1,0.4-0.2,0.5c-0.2,0.5-0.3,0.9-0.3,1.6c-0.5,0.1-1,0-1.5,0c-0.1-0.2-0.2-0.5-0.3-0.7c-0.2-0.5-0.3-1-0.4-1.5
				c-0.1-0.5-0.2-1-0.1-1.7c0-0.3,0.1-0.6,0.2-0.9c0.1-0.3,0.1-0.6,0.2-0.9c0.1-0.6,0.2-1.2,0.3-1.8c0.1-0.6,0.2-1.3,0.3-1.9
				c0-0.3,0-0.7,0.1-1C46.2,12.7,46.2,12.3,46.3,12C46.2,12,46.2,11.9,46.3,12C46.3,11.9,46.3,11.9,46.3,12"/>
			<path fill="#6AB023" d="M46.3,37.1c-0.2,0.1-0.2,0.2-0.5,0.3c-0.1-0.1,0.1-0.3,0-0.5c0.1-0.2,0.1-0.5,0.2-0.8
				c0.1-0.1,0.1-0.2,0.2-0.3c0.2,0,0.4-0.1,0.6-0.1c0.1-0.1,0.2-0.2,0.4-0.3c0.2-0.2,0.5-0.4,0.7-0.6c0.2-0.2,0.6-0.4,0.8-0.6
				c0.1-0.1,0.2-0.4,0.3-0.5c0.1-0.1,0.2-0.2,0.3-0.2c0.1,0,0.3,0,0.4,0c0.3,0,0.8-0.1,1,0.1c0.1,0.3,0,0.8,0.1,1.1
				c0.1,0.1,0.2,0,0.3,0.1c-0.1,0.2-0.3,0.3-0.4,0.4c-0.1,0.1-0.2,0.1-0.2,0.2c-0.4,0.3-0.8,0.6-1.1,1c0.1,0.6-0.5,0.2-0.8,0.2
				c-0.1,0-0.3,0-0.4,0.1c-0.1,0-0.2,0-0.4,0c-0.1,0-0.2,0.1-0.2,0.1c-0.1,0-0.2,0-0.2,0c-0.1,0-0.3,0.2-0.4,0.2
				c-0.1,0.1-0.2,0.2-0.4,0.2C46.5,37,46.4,37,46.3,37.1"/>
			<path fill="none" stroke="#FFFFFF" stroke-width="0.25" d="M46.3,37.1c-0.2,0.1-0.2,0.2-0.5,0.3c-0.1-0.1,0.1-0.3,0-0.5
				c0.1-0.2,0.1-0.5,0.2-0.8c0.1-0.1,0.1-0.2,0.2-0.3c0.2,0,0.4-0.1,0.6-0.1c0.1-0.1,0.2-0.2,0.4-0.3c0.2-0.2,0.5-0.4,0.7-0.6
				c0.2-0.2,0.6-0.4,0.8-0.6c0.1-0.1,0.2-0.4,0.3-0.5c0.1-0.1,0.2-0.2,0.3-0.2c0.1,0,0.3,0,0.4,0c0.3,0,0.8-0.1,1,0.1
				c0.1,0.3,0,0.8,0.1,1.1c0.1,0.1,0.2,0,0.3,0.1c-0.1,0.2-0.3,0.3-0.4,0.4c-0.1,0.1-0.2,0.1-0.2,0.2c-0.4,0.3-0.8,0.6-1.1,1
				c0.1,0.6-0.5,0.2-0.8,0.2c-0.1,0-0.3,0-0.4,0.1c-0.1,0-0.2,0-0.4,0c-0.1,0-0.2,0.1-0.2,0.1c-0.1,0-0.2,0-0.2,0
				c-0.1,0-0.3,0.2-0.4,0.2c-0.1,0.1-0.2,0.2-0.4,0.2C46.5,37,46.4,37,46.3,37.1z"/>
			<path fill="#6AB023" d="M53.9,46.9c0.1,0.1,0.4,0.2,0.6,0.3c0.1,0,0.1,0.1,0.2,0.1c0.4,0.1,0.5,0,0.7-0.1
				c0.1-0.1,0.2-0.1,0.2-0.1c0-0.1,0-0.3,0-0.4c-0.3,0.1-0.5-0.1-0.9-0.1c-0.2,0-0.3-0.3-0.5-0.3c-0.2,0-0.3,0.2-0.4,0.3
				C53.8,46.6,53.9,46.7,53.9,46.9 M52.9,41c-0.2,0.2-0.5,0.2-0.9,0.3c-0.2,0.3,0.1,0.5,0.2,0.7c0.1,0.1,0.1,0.3,0.2,0.3
				c0.1,0,0.2-0.1,0.3-0.2c0.1-0.1,0.3-0.2,0.4-0.2c0.1,0,0.1,0,0.2,0c0.2,0,0.4,0,0.5,0c0.1,0,0.1,0,0.2,0c0.1,0,0.2-0.1,0.3-0.2
				c0.1-0.1,0.2-0.1,0.3-0.1c0.1-0.1,0.2-0.4,0.2-0.5c-0.2,0-0.3,0.2-0.5,0.2c-0.2,0-0.3-0.5-0.4-0.6c0.2-0.2,0.5-0.3,0.6-0.5
				c-0.1-0.1-0.3,0-0.5,0c-0.1,0-0.3-0.1-0.3-0.1c-0.2,0.1-0.4,0.3-0.7,0.3c-0.1,0.2-0.1,0.3-0.2,0.5C53,40.8,52.9,41,52.9,41
				 M52.2,40.5c0.1,0.1,0,0.4,0.1,0.4C52.5,40.8,52.4,40.3,52.2,40.5 M43.1,52.8c-0.1,0-0.1,0-0.2,0c-0.1,0-0.3-0.1-0.4-0.1
				c-0.3-0.1-0.6-0.1-1-0.2c-0.1-0.4-0.4-0.9-0.5-1.4c0-0.1-0.1-0.2-0.1-0.3c0-0.2,0-0.3-0.1-0.5c-0.1-0.2-0.2-0.3-0.1-0.4
				c0-0.2,0.1-0.3,0.2-0.5c0-0.2,0.2-0.4,0.2-0.6c0-0.1,0-0.2,0-0.2c0-0.1,0.1-0.1,0.1-0.2c0.1-0.1,0-0.2,0.1-0.3
				c0.1-0.1,0.4-0.3,0.6-0.4c0.2-0.2,0.4-0.3,0.6-0.4c0.3-0.2,0.6-0.4,1-0.6c0.2-0.1,0.3-0.3,0.6-0.3c0.2,0,0.4,0.2,0.6,0.2
				c0.2-0.1,0.1-0.2,0.2-0.4c0.1-0.2,0.3-0.3,0.3-0.5c0.1,0,0.1-0.1,0.2-0.2c0.3-0.1,0.4-0.3,0.7-0.3c0.2-0.1,0.6-0.5,0.7,0
				c0.2,0.1,0.4,0.1,0.6,0.2c0.1,0,0.2,0.1,0.3,0.2c0.2,0.1,0.4,0,0.7,0.1c0.1,0,0.2,0.2,0.3,0.2c0.1,0.1,0.2,0.2,0.2,0.4
				c0,0.1-0.1,0.2-0.1,0.3c0,0.1,0.1,0.2,0.3,0.3c0.1,0.1,0.2,0.3,0.4,0.4c0.1,0.1,0.2,0.4,0.4,0.4c0.1,0,0.2-0.1,0.3-0.1
				c0.3,0,0.4,0.2,0.5,0.4c0.3,0.1,0.7,0.1,1,0.2c0.1,0,0.2,0.1,0.3,0.1c0.2,0,0.4,0,0.6,0c0.3,0.1,0.4,0.2,0.6,0.3
				c0.2,0,0.2-0.3,0.3-0.4c0-0.1,0.2-0.2,0.2-0.3c0-0.2-0.5-0.2-0.7-0.3c-0.3-0.2-0.2-0.6,0-0.9c0.1-0.1,0.2-0.1,0.2-0.3
				c0-0.1-0.3-0.1-0.4-0.1c-0.1,0.3,0,0.7-0.3,0.7c-0.1,0-0.2,0-0.3,0c-0.1,0-0.2,0-0.2,0c-0.1-0.1-0.3-0.5-0.3-0.7
				c0-0.2,0.1-0.3,0-0.5c0-0.1-0.1-0.2-0.2-0.3c0-0.2-0.1-0.3-0.2-0.4c-0.1,0.2,0.1,0.3,0.2,0.4c0,0.4,0.2,1-0.1,1.2
				c-0.3-0.2-0.3,0-0.6,0.1c-0.1,0.1-0.2,0.2-0.3,0.2c-0.2,0-0.3-0.2-0.3-0.4c0-0.2,0.5-0.4,0.5-0.6c0-0.1-0.1-0.2-0.2-0.3
				c0-0.1,0-0.2,0-0.3c0-0.1-0.1-0.2-0.1-0.3c0-0.1,0-0.1,0-0.2c0-0.2-0.1-0.3-0.1-0.5c-0.1-0.2-0.4-0.1-0.7-0.1
				c-0.1-0.1-0.1-0.2-0.2-0.3c-0.4-0.1-0.4,0.2-0.6,0.3c-0.1,0-0.2,0.1-0.3,0.2c-0.1,0.1-0.2,0.1-0.3,0.2c-0.1,0.1-0.2,0.3-0.3,0.3
				c-0.2,0-0.4-0.1-0.5-0.2c-0.2-0.1-0.3-0.2-0.4-0.3c0-0.4-0.3-0.5-0.4-0.8c0-0.2,0.2-0.3,0.3-0.5c0.1-0.1,0.1-0.2,0.2-0.3
				c0.1-0.1,0.2-0.2,0.3-0.3c0-0.1,0.1-0.2,0.1-0.2c0-0.1,0.1-0.1,0.2-0.2c0.1-0.1,0.2-0.2,0.5-0.1c0,0,0.1,0.1,0.2,0.2
				c0.1,0.2,0.1,0.5,0.3,0.4c0.1,0,0.1-0.1,0.2-0.3c0-0.1,0-0.3,0-0.4c0-0.1-0.2-0.2-0.2-0.3c0-0.1,0.1-0.4,0.2-0.5
				c0.2,0,0.3,0.2,0.5,0.2c0.1,0,0.2,0,0.2,0c0.1,0,0.2,0.2,0.3,0.2c0.2,0.1,0.3,0,0.5,0c0.2,0,0.3,0,0.4-0.1c0.1,0,0.1-0.1,0.1-0.2
				c0.1-0.1,0.3-0.3,0.5-0.4c0.1,0,0.2,0.1,0.2,0.1c0.2-0.3,0.5-0.4,0.7-0.6c0-0.1-0.3-0.1-0.2-0.3c0-0.1,0.3-0.2,0.4-0.3
				c0.1-0.1,0.2-0.2,0.2-0.2c0.1-0.1,0.2-0.1,0.3-0.2c0.1-0.1,0.2-0.2,0.3-0.2c0.1-0.1,0.2-0.1,0.3-0.2c0.2-0.1,0.2-0.3,0.5-0.4
				c0.1-0.1,0.2-0.2,0.3-0.2c0.2,0,0.3,0.1,0.5,0.2c0.2,0.1,0.4,0.1,0.5,0.2c0.1,0,0.1,0.1,0.2,0.2c0.1,0,0.2,0.1,0.2,0.1
				c0.1,0.1,0.3,0.2,0.5,0.1c0.1-0.1-0.1-0.3-0.1-0.4c0-0.2,0.1-0.4,0.1-0.5c0-0.1,0.1-0.1,0.2-0.2c0-0.1,0.1-0.1,0.1-0.2
				c0.1-0.1,0.2-0.4,0.3-0.5c0-0.1,0-0.2,0-0.2c0-0.1,0.1-0.3,0.2-0.4c0-0.1,0-0.2,0.1-0.2c0-0.1,0-0.2,0.1-0.2
				c0-0.1,0.1-0.1,0.2-0.2c0-0.1,0.1-0.2,0.1-0.3c0.1-0.2,0.1-0.4,0.2-0.7c-0.1-0.2,0.1-0.5,0.1-0.7c0-0.1-0.1-0.3-0.2-0.4
				c0-0.1,0-0.3,0-0.4c0-0.3-0.2-0.6-0.2-0.9c-0.2-0.2-0.5-0.2-0.7-0.4c-0.3-0.1-0.7-0.1-0.6-0.6c-0.1-0.2-0.5-0.3-0.3-0.7
				c0.2-0.1,0.5-0.1,0.7-0.3c0.1,0.1,0.2-0.1,0.3,0c0.1,0,0.2,0.1,0.3,0.1c0.1,0,0.1,0,0.2,0c0.2,0,0.4,0.1,0.6,0.2
				c0.1,0,0.2-0.1,0.3,0c0.2,0,0.2,0.3,0.4,0.3c0.1,0,0.1,0,0.2,0c0.9,0.8,1.8,1.7,2.7,2.7c0.4,0.5,0.7,1,1.1,1.6
				c0.1,0.1,0.2,0.3,0.3,0.4c0.1,0.1,0.1,0.3,0.2,0.5c0.1,0.1,0.2,0.3,0.3,0.4c0,0.1,0.1,0.2,0.1,0.2c0.1,0.1,0.1,0.2,0.2,0.4
				c0,0.1,0.1,0.2,0.1,0.2c0.1,0.3,0.2,0.6,0.4,0.9c0.1,0.3,0.3,0.6,0.4,0.9c0.1,0.3,0.2,0.7,0.3,1c0.1,0.2,0.1,0.5,0.2,0.8
				c0,0.1,0.1,0.2,0.1,0.2c0,0.1,0,0.3,0,0.4c0,0.1,0.1,0.2,0.1,0.3c0,0.1,0,0.2,0,0.3c0.1,0.4,0.2,0.9,0.3,1.3
				c0.2,1.9,0.2,4-0.2,5.8c-0.1,0.5-0.2,1-0.3,1.4c0,0.2-0.1,0.3-0.2,0.5c-0.1,0.2-0.1,0.4-0.1,0.6c0,0.1-0.1,0.1-0.1,0.2
				c-0.1,0.2-0.1,0.4-0.1,0.5c0,0.1-0.1,0.1-0.1,0.2c-0.1,0.2-0.2,0.7-0.5,0.7c-0.1,0-0.1-0.1-0.2-0.3c-0.1-0.1-0.1-0.2-0.2-0.3
				c0-0.1,0-0.2-0.1-0.3c0-0.2-0.1-0.3-0.2-0.5c-0.1-0.2-0.1-0.6-0.1-0.9c-0.1-0.2-0.6-0.3-0.8-0.4c-0.1-0.1-0.1-0.2-0.2-0.2
				c-0.1,0-0.2,0-0.3,0.1c-0.1,0-0.3,0-0.4,0c-0.1,0-0.2,0.1-0.3,0.1c-0.2,0-0.5-0.1-0.8-0.2c-0.1,0-0.2,0-0.3,0
				c-0.3,0-0.7-0.2-1-0.3c-0.2,0-0.3-0.1-0.5-0.1c-0.1,0-0.3-0.2-0.4,0c0,0.1,0.1,0.2,0.2,0.3c0.1,0.1,0.2,0.1,0.3,0.2
				c0.2,0.2,0.4,0.5,0.9,0.4c0.1,0,0.2-0.1,0.3-0.1c0.4-0.1,0.6,0.2,0.7,0.4c0,0.1,0,0.1,0,0.2c0,0.2,0.1,0.3,0.1,0.5
				c0,0.1,0,0.1,0,0.1c0,0.2-0.2,0.2-0.3,0.4c-0.1,0.1-0.3,0.2-0.4,0.3c-0.1,0.1-0.1,0.1-0.2,0.2c-0.1,0.1-0.1,0.1-0.2,0.2
				C59,54,58.8,54,58.7,54.1c-0.1,0.1-0.3,0.3-0.4,0.3c-0.1,0-0.2,0-0.4,0.1c-0.1,0-0.2,0.1-0.3,0.1c-0.2,0-0.5,0-0.7,0
				c-0.1,0-0.2,0.1-0.3,0.1c-0.1,0-0.3-0.1-0.5-0.2c-0.2-0.1-0.3-0.1-0.4-0.3c0-0.2,0-0.4,0-0.5c0-0.3,0-0.5,0-0.8
				c-0.1-0.6-0.5-0.9-0.8-1.4c-0.1-0.1-0.2-0.2-0.2-0.3c0,0,0-0.1-0.1-0.2c0-0.1-0.1-0.1-0.1-0.2c0-0.1,0-0.2-0.1-0.3
				c0-0.1-0.1-0.2-0.1-0.2c0-0.1,0-0.1,0-0.2c0-0.1-0.1-0.1-0.1-0.2c0-0.1,0-0.2-0.1-0.3c-0.1-0.2-0.2-0.3-0.2-0.5
				c-0.1-0.1-0.2-0.2-0.3-0.3c-0.2,0.1,0,0.6-0.2,0.7c-0.3,0-0.4-0.3-0.6-0.3c-0.1,0.2,0.1,0.3,0.1,0.5c0.1,0.2,0.3,0.4,0.4,0.6
				c0.1,0.2,0.2,0.5,0.4,0.7c0.1,0.2,0.3,0.3,0.4,0.5c0,0,0,0.1,0,0.2c0,0,0.1,0.1,0.1,0.1c0,0.1,0,0.2,0.1,0.3
				c0,0.1,0.1,0.3,0.2,0.4c0,0.2,0.1,0.3,0.1,0.5c0,0.1,0,0.2,0,0.3c0,0.1,0.1,0.1,0.2,0.2c0,0.1,0,0.1,0.1,0.2
				c0.1,0.1,0.3,0.3,0.4,0.5c0.1,0.2,0.1,0.4,0.3,0.4c0.2-0.1,0.3,0,0.5,0.1c0.1,0,0.1,0,0.2,0c0.2,0,0.4,0.1,0.6,0.2
				c0.2,0.1,0.4,0.1,0.6,0.2c0,0.2-0.2,0.2-0.3,0.3c-0.1,0.1-0.2,0.2-0.4,0.3c-0.2,0.1-0.4,0.3-0.5,0.4c-0.1,0-0.1,0.1-0.1,0.1
				c-0.2,0.2-0.6,0.2-0.9,0.3c-0.3,0.2-0.4,0.4-0.6,0.6c-0.1,0-0.1,0.1-0.2,0.1c-0.1,0-0.1,0-0.2,0.1c-0.2,0.1-0.3,0.3-0.5,0.3
				c-0.1,0.1-0.3,0.1-0.4,0.2c-0.1,0.2-0.1,0.4-0.2,0.5c0,0.1-0.1,0.2-0.2,0.3c-0.1,0.2-0.1,0.4-0.2,0.6c0,0.1-0.1,0.2-0.2,0.3
				c0,0.1,0,0.1,0,0.2c0,0.1-0.1,0.1-0.2,0.2c-0.1,0.3-0.1,0.6-0.2,0.8c-0.1,0.2-0.4,0.3-0.6,0.4c-0.2,0.1-0.4,0.2-0.6,0.4
				c0,0.1-0.1,0.2-0.1,0.3c-0.2,0.1-0.3,0.5-0.5,0.6c-0.2,0.5-0.7,0.9-0.9,1.4c-1.4,0.2-3.2,0.3-4.6,0c0-0.4,0.1-0.7,0.1-1.1
				c0-0.1,0-0.2,0-0.3c0-0.3,0.2-0.5,0.2-0.8c0.1-0.4,0-0.8-0.1-1.1c0-0.1,0-0.2,0-0.3c-0.1-0.3-0.3-0.6-0.3-0.9
				c-0.2-0.2-0.2-0.5-0.3-0.7c0.1-0.4,0.1-0.8,0.3-1.2c0-0.1,0.1-0.2,0.1-0.3c0-0.1,0-0.2,0-0.4c0-0.1,0-0.2,0-0.3
				c0-0.1-0.1-0.2-0.1-0.3c-0.1-0.5,0.1-0.8,0.2-1.1c0-0.1,0-0.2,0-0.2c0-0.1,0.1-0.1,0.1-0.2c0-0.1,0-0.2,0.1-0.3
				c0-0.1,0.1-0.2,0.1-0.3c0-0.2-0.2-0.3-0.3-0.4c-0.1-0.1-0.1-0.2-0.1-0.3c-0.1-0.1-0.2-0.2-0.3-0.3c0-0.1-0.1-0.1-0.1-0.2
				c0-0.1-0.1-0.1-0.2-0.1c-0.1-0.1-0.1-0.2-0.1-0.3c-0.1-0.1-0.4-0.1-0.6-0.1C43.4,52.9,43.2,52.8,43.1,52.8"/>
			<path fill="#FFFFFF" d="M42.8,7.5c0.2,0.1,0.3,0.3,0.5,0.5c0.1,0.2,0.3,0.4,0.4,0.6c0.3,0.5,0.4,0.9,0.6,1.3
				c0.3,0.7,0.5,1.5,0.7,2.3c0.1,0.5,0.2,1,0.1,1.6c0,0.4-0.1,0.8-0.2,1.2c-0.1,0.5-0.3,1.2-0.5,1.8c-0.1,0.2-0.1,0.5-0.2,0.7
				c-0.1,0.5-0.3,1-0.4,1.4c-0.1,0.2-0.1,0.5-0.2,0.7c0,0.2,0,0.3,0,0.5c-0.2,1.1,0,2.2,0.3,3.1c-0.4,0.1-0.7,0.1-1.1,0.1
				c-0.4,0-0.8,0.1-1.1,0.1c-0.3-0.4-0.5-0.8-0.8-1.3c-0.6-1.4-1.1-3.1-0.9-5c0.1-0.9,0.2-1.8,0.5-2.6c0.2-0.7,0.5-1.4,0.8-2.2
				c0.4-1.1,0.9-2.2,1.1-3.5c0-0.2,0.1-0.4,0.1-0.6C42.7,8,42.7,7.7,42.8,7.5"/>
			<path fill="#6AB023" d="M29.2,54.3c-0.2-0.2-0.3-0.4-0.4-0.6c-0.3-0.6-0.5-1.2-0.8-1.8c-0.1-0.1-0.1-0.3-0.1-0.4
				c-0.1-0.2-0.2-0.4-0.3-0.7c-0.1-0.2-0.1-0.5-0.2-0.7c-0.1-0.2-0.1-0.5-0.2-0.7c-0.1-0.2-0.1-0.5-0.2-0.7c0-0.1,0-0.4-0.1-0.5
				c0-0.2-0.1-0.4-0.1-0.5c0-0.2,0.3-0.5,0.5-0.7c0.1-0.1,0.1-0.2,0.2-0.4c0.2-0.3,0.4-0.6,0.6-0.9c0-0.4,0.1-0.5,0-0.8
				c0-0.1-0.1-0.2-0.1-0.3c-0.1-0.2-0.2-0.4-0.3-0.6c0-0.1,0-0.4,0.1-0.5c0.1-0.2,0.2-0.3,0.3-0.5c0.2,0,0.3-0.2,0.3-0.5
				c0.1-0.1,0.2-0.2,0.2-0.3c-0.1-0.5,0.3-0.9,0.5-1.3c0-0.1,0.1-0.1,0.1-0.2c0.1-0.2,0.2-0.4,0-0.7c0.1-0.4,0.5-0.6,0.8-0.8
				c0,0,0.1-0.1,0.1-0.1c0.1-0.1,0.2-0.1,0.3-0.2c0.1-0.1,0-0.2,0.1-0.3c0-0.1,0.1-0.1,0.2-0.1c0.1-0.1,0.2-0.2,0.5-0.3
				c0.1-0.1,0.3-0.1,0.4-0.1c0.3,0.1,0.6,0.3,0.9,0c0.2-0.1,0.2-0.2,0.3-0.4c0-0.1,0.1-0.2,0.1-0.3c0-0.3-0.2-0.5-0.3-0.8
				c0.1-0.3,0.2-0.5,0.3-0.8c0-0.1,0.1-0.3,0.1-0.3c0-0.2-0.2-0.2-0.1-0.5c0-0.1,0.2-0.2,0.2-0.3c0.1-0.2,0-0.4,0.1-0.6
				c-0.1-0.5,0.1-0.8,0.3-1.1c0.1-0.1,0.1-0.1,0.2-0.2c0-0.1,0.1-0.2,0.1-0.3c0.1-0.1,0.2-0.2,0.3-0.4c0.1-0.3,0-0.6,0-0.8
				c0-0.1,0.2-0.2,0.3-0.3c0.1-0.1,0.1-0.3,0.3-0.3c0.1,0,0.1,0.1,0.3,0.1c0.2,0,0.4-0.3,0.5-0.7c0-0.1,0-0.2,0-0.3
				c0-0.2,0.2-0.4,0.2-0.6c0.2-0.2,0.5-0.3,0.8-0.5c0.2-0.1,0.4-0.2,0.6-0.3c0.4-0.2,0.8-0.4,1.2-0.6c0.1,0,0.2-0.1,0.3-0.1
				c0.4-0.2,0.9-0.3,1.4-0.5c0.5-0.1,0.9-0.2,1.5-0.3c0.2,0,0.3-0.1,0.5-0.1c0.1,0,0.2,0,0.3,0c0.1,0,0.3-0.1,0.4-0.1
				c0.1,0,0.3,0,0.4,0c0.1,0,0.3-0.1,0.4,0c0.1,0,0.3,0.3,0.4,0.3c0.2,0,0.4-0.1,0.6,0c0.1,0,0.1,0.1,0.2,0.2c0,0,0.1,0.1,0.2,0.1
				c0.2,0.1,0.5,0.1,0.8,0.1c0.1,0,0.2,0,0.3,0c0.2,0,0.4-0.2,0.5-0.2c0.2,0,0.1,0.3,0.1,0.5c0.1,0.1,0.2,0,0.4,0.1
				c0.3,0.1,0.7,0.7,1.1,0.4c0.3,0.1,0.5,0.2,0.9,0.2c0.1,0,0.3-0.2,0.4-0.2c0.1,0,0.2,0,0.3,0c0.1-0.1,0.1-0.3,0.2-0.4
				c0-0.1,0.2-0.2,0.3-0.3c0.1-0.1,0.2-0.2,0.3-0.2c0.1,0,0.2,0,0.3,0.1c0.1,0,0.2,0,0.3,0.1v0.4c0.1,0,0.1,0.1,0.2,0.1
				c0.1,0,0.2-0.1,0.3-0.1c0.3,0,0.4,0.2,0.6,0.3c-0.1,0.2-0.2,0.3-0.3,0.4c0,0.1,0.1,0.1,0.1,0.2c0,0.2,0,0.4,0,0.6
				c0,0.1,0.2,0.3,0.1,0.5c-0.2,0-0.2,0.1-0.4,0.2c-0.1,0-0.1,0-0.2,0c-0.1,0-0.2,0.1-0.3,0.1c-0.1,0-0.2-0.1-0.3-0.2
				c-0.1-0.1-0.2-0.2-0.3-0.2c-0.1,0-0.2,0-0.3,0c-0.3,0-0.5,0.1-0.8,0.2c-0.2,0.1-0.3,0.3-0.4,0.5c-0.1,0-0.2,0.1-0.3,0.1
				c-0.1,0-0.3,0-0.4,0c-0.2,0.1-0.2,0.4-0.4,0.5c-0.1,0.2-0.2,0.4-0.3,0.6c0.2,0.3,0.6,0.4,0.7,0.8c-0.2,0.1-0.5,0-0.6,0.1
				c-0.1,0.1,0,0.4,0,0.6c-0.1,0-0.4-0.1-0.5-0.2c-0.1-0.2,0.1-0.4,0.1-0.6c0-0.1-0.2-0.2-0.3-0.2c-0.2-0.1-0.3,0-0.4-0.1
				c-0.1,0-0.3-0.1-0.5-0.2c-0.1,0-0.3-0.2-0.5-0.3c-0.1-0.1-0.4-0.3-0.5-0.2c-0.1,0-0.3,0.3-0.4,0.4c-0.3,0.4-0.4,0.8-0.7,1.2
				c-0.1,0.2-0.2,0.3-0.4,0.4c-0.1,0.1-0.2,0.1-0.2,0.2c0,0.2,0.4,0.3,0.6,0.4c0.1,0,0.2,0.1,0.2,0.1c0.2,0,0.3-0.2,0.5-0.2
				c0.1-0.1,0-0.3,0.1-0.3c0.2,0,0.4,0.2,0.7,0.1c0.2,0,0.3-0.2,0.5-0.1c0,0.1,0,0.3,0,0.4c-0.2,0.2-0.4,0.4-0.5,0.6
				c-0.1,0.2-0.3,0.3-0.4,0.5c0,0.1,0,0.1-0.1,0.2c0,0.1-0.1,0.1-0.1,0.2c0,0.1,0,0.2,0,0.2c-0.1,0.1-0.2,0.2-0.3,0.3
				c0,0-0.1,0.1-0.1,0.2c0,0.1-0.1,0.1-0.1,0.2c0,0.1,0,0.2,0,0.2c0,0-0.1,0.1-0.1,0.1c-0.1,0.2-0.2,0.4-0.5,0.4c-0.1,0-0.3,0-0.4,0
				c-0.2-0.1-0.1-0.6-0.2-0.7c0-0.3,0-0.7-0.3-0.8c-0.3,0.1-0.2,0.6-0.3,0.8c-0.2,0-0.3-0.1-0.5-0.2c-0.1-0.2-0.3-0.4-0.4-0.6
				c0,0,0-0.1-0.1-0.2c-0.1-0.1-0.3-0.2-0.3-0.5c-0.2-0.2-0.7-0.1-1-0.3C39.9,35,39.7,35,39.6,35c-0.1,0-0.1,0.1-0.2,0.1
				c-0.1,0-0.2,0.1-0.4,0.1c-0.2,0.1-0.3,0.1-0.4,0.1c-0.1,0-0.2-0.2-0.3-0.2c-0.2,0-0.4,0.3-0.6,0.3c-0.1,0-0.2-0.1-0.3,0
				c-0.1,0-0.1,0.1-0.2,0.1c-0.2,0.1-0.3,0.2-0.5,0.3c0-0.2,0.1-0.3,0.1-0.4c0.2-0.2,0.4-0.3,0.6-0.5c0.1-0.3,0.2-0.7,0.3-1
				c0-0.1,0.1-0.1,0.1-0.2c0-0.1,0-0.2-0.1-0.3c0-0.3-0.1-0.4-0.2-0.6c-0.3,0.1-0.6,0.2-0.9,0.3c-0.2,0.1-0.4,0.1-0.6,0.2
				c-0.1,0.1-0.1,0.2-0.2,0.3c-0.1,0.1-0.3,0.2-0.4,0.4c-0.1,0.3,0.1,0.8,0,1.2c-0.3,0-0.5-0.2-0.8-0.3c-0.2-0.1-0.4-0.2-0.5,0
				c0,0.1,0,0.1,0,0.2c0,0.2-0.1,0.3-0.1,0.5c0,0.2,0,0.4-0.1,0.5c-0.1,0.1-0.3,0.1-0.5,0.2c-0.2,0.3,0.1,0.7,0.2,0.9
				c-0.1,0.3-0.1,0.7-0.1,1c0.2,0.1,0.6,0,0.9,0.1c0.4,0.1,0.4,0.2,0.6,0.4c0.1,0.1,0.1,0.2,0.2,0.3c0.1,0.2,0.2,0.3,0.3,0.4
				c0,0,0,0.1,0.1,0.2c0,0.1,0.1,0.1,0.1,0.2c0.1,0.2,0,0.4,0,0.5c0,0.1,0.1,0.2,0.1,0.3c0,0.1,0,0.2,0.1,0.3c0,0.1,0.1,0.2,0.1,0.3
				c0,0.1,0.1,0.2,0.1,0.3c0,0.1,0.1,0.1,0.1,0.1c0,0.1,0,0.1,0,0.2c0.1,0.2,0.3,0.5,0.5,0.7c0.1,0.1,0.2,0.2,0.2,0.3
				c0,0.2-0.2,0.4-0.2,0.7c0,0.2,0.1,0.3,0,0.4c-0.1,0.3-0.4,0.5-0.5,0.7c0,0.2,0,0.5,0.1,0.6c0.3,0.1,0.4,0.2,0.5,0.5
				c0.1,0.2,0.1,0.6,0.1,0.9c0,0.1-0.1,0.2-0.1,0.3c0,0.2,0,0.4,0,0.6c-0.1,0.1-0.2,0-0.3,0.1c-0.1,0-0.1,0.1-0.2,0.1
				c-0.1,0-0.2,0-0.3,0.1c0,0.2,0.1,0.3,0.2,0.5c0.2,0.4,0.4,0.8,0.6,1.1c0,0.1,0,0.1,0,0.2c0.2,0.3,0.2,0.7,0.4,1.1
				c0.1,0.1,0.2,0.3,0.2,0.5c0,0.1,0,0.3,0,0.4c-0.1,0.1-0.2,0.2-0.3,0.3c-0.2,0.2-0.4,0.4-0.6,0.7c-0.1,0.1-0.3,0.3-0.3,0.3
				c-0.2,0-0.3-0.2-0.5-0.3c-0.2-0.1-0.3-0.2-0.5-0.3c-0.3,0.1-0.5,0-0.8,0.1c-0.1,0-0.1,0.1-0.2,0.1c-0.2,0-0.3,0-0.5,0
				c-0.3,0-0.7,0.1-1.1,0.2c-0.4,0-0.7,0-1,0.1c-0.2,0-0.3,0.2-0.4,0.2c-0.1,0-0.1,0-0.2,0c0,0-0.1,0.1-0.1,0.1c-0.1,0-0.1,0-0.2,0
				c-0.1,0-0.1,0.1-0.2,0.1c-0.1,0-0.3,0-0.4,0.1c-0.2,0.1-0.4,0.4-0.7,0.5C29.4,53.9,29.3,54.1,29.2,54.3"/>
			<path fill="#FFFFFF" d="M47.6,40c0,0.4,0.9,0.4,1.2,0.5c0.2-0.2,0.1-0.3,0.3-0.5c0,0,0.1,0,0.2-0.1c0.1-0.1,0.3-0.3,0.3-0.4
				c0-0.3-0.3-0.3-0.5-0.4c-0.1,0-0.2-0.2-0.3-0.2c-0.2,0-0.2,0.1-0.4,0.2c-0.1,0.1-0.2,0.1-0.3,0.1c-0.2,0.2,0,0.4-0.2,0.6
				C47.7,39.8,47.6,39.8,47.6,40 M48.2,40.7c-0.1,0-0.1,0.2-0.1,0.3c0,0.2,0.2,0.2,0.4,0.3c0.1,0.1,0.2,0.1,0.3,0.1
				c0.2,0,0.3-0.1,0.5,0c0.1,0,0.2,0.1,0.4,0.1c0.1,0,0.2,0,0.3,0c0.2,0,0.4,0,0.5,0c0.2-0.1,0.3-0.4,0.2-0.6c0.1-0.2,0-0.6,0.2-0.7
				c0.2-0.1,0.4-0.1,0.6-0.2c0.2-0.2,0.1-0.4,0-0.6c-0.2,0-0.3-0.1-0.5-0.1c-0.1,0-0.2,0.1-0.3,0c0-0.1,0-0.1,0-0.2
				c-0.3-0.2-0.6,0.1-0.7,0.3c0,0.1,0.1,0.2,0.1,0.3c-0.2,0.1-0.1,0.3-0.2,0.4h-0.3c-0.2,0.1-0.1,0.2-0.2,0.3c0,0.1-0.2,0.1-0.2,0.1
				c-0.1,0.1-0.1,0.2-0.2,0.2C48.7,40.7,48.4,40.6,48.2,40.7 M47.3,36.5c0.1,0,0.2,0,0.2,0c0.1,0,0.2-0.1,0.2-0.1c0.1,0,0.2,0,0.4,0
				c0.2,0,0.3-0.1,0.4-0.1c0.3,0,0.9,0.5,0.8-0.1c0.3-0.4,0.7-0.7,1.1-1c0.1-0.1,0.2-0.1,0.2-0.2c0.1-0.1,0.4-0.2,0.4-0.4
				c-0.1,0-0.2,0-0.3-0.1c-0.1-0.3,0-0.7-0.1-1.1c-0.3-0.2-0.7-0.1-1-0.1c-0.1,0-0.3-0.1-0.5,0c-0.1,0-0.2,0.1-0.3,0.2
				c-0.1,0.1-0.2,0.4-0.3,0.5c-0.2,0.2-0.6,0.4-0.8,0.6c-0.3,0.2-0.5,0.4-0.7,0.6c-0.1,0.1-0.2,0.3-0.4,0.3
				c-0.2,0.1-0.4,0.1-0.6,0.2c-0.1,0.1-0.1,0.2-0.2,0.3c0,0.3,0,0.6-0.2,0.8c0,0.2-0.1,0.4,0,0.5c0.2,0,0.3-0.2,0.5-0.3
				c0.1,0,0.2,0,0.3-0.1c0.1-0.1,0.2-0.2,0.4-0.2C47.1,36.7,47.2,36.6,47.3,36.5 M43.8,25.5c0.3,0,0.6-0.1,0.8-0.1
				c0.2,0,0.4,0,0.6,0c0.4,0,0.8-0.1,1.2,0c0.6,0.1,1.2,0.1,1.7,0.2c0.2,0,0.4,0.1,0.5,0.1c0.2,0,0.4,0,0.6,0.1
				c0.3,0.1,0.7,0.2,1,0.2c1.7,0.4,3.2,1,4.6,1.7c0.3,0.1,0.6,0.3,0.8,0.4c1.3,0.7,2.6,1.7,3.7,2.6c0.4,0.4,0.8,0.7,1.1,1.1
				c0.4,0.4,0.7,0.8,1,1.2c0.7,0.8,1.3,1.7,1.8,2.6c1.1,1.8,2,3.9,2.5,6.3c0.3,1.6,0.5,3.3,0.4,5.1c0,0.3,0,0.6,0,0.8
				c0,0.1,0,0.2,0,0.2c0,0.3-0.1,0.6-0.2,0.9c0,0.2,0,0.3-0.1,0.5c-0.2,1.4-0.6,2.7-1.1,3.9c-0.3,0.8-0.7,1.5-1.1,2.2
				c-0.4,0.7-0.8,1.4-1.3,2c-0.3,0.4-0.7,0.8-1,1.2c-0.7,0.8-1.5,1.5-2.3,2.2c-0.2,0.2-0.4,0.3-0.6,0.5c-0.2,0.2-0.4,0.3-0.6,0.5
				c-0.9,0.6-1.8,1.1-2.8,1.6c-1.5,0.7-3.2,1.3-5.1,1.6c-0.3,0.1-0.6,0.1-1,0.1c-0.3,0-0.6,0.1-0.9,0.1c-0.7,0-1.3,0.1-2.1,0.1
				c-1.4,0-2.7-0.2-3.9-0.4c-1.2-0.2-2.4-0.6-3.4-1c-1.1-0.4-2-0.9-3-1.5c-0.2-0.1-0.5-0.3-0.7-0.4c-0.7-0.4-1.3-0.9-1.9-1.4
				c-0.1-0.1-0.2-0.2-0.3-0.3c-0.1-0.1-0.2-0.2-0.3-0.3c-0.1-0.1-0.2-0.2-0.3-0.3c-0.5-0.4-1-0.9-1.4-1.4c-0.3-0.4-0.7-0.8-1-1.2
				c-0.2-0.2-0.3-0.4-0.5-0.6c-0.5-0.6-0.9-1.3-1.3-2c-0.3-0.5-0.5-1-0.8-1.5c-0.2-0.5-0.4-1-0.6-1.6c-0.1-0.3-0.2-0.5-0.3-0.8
				c-0.1-0.3-0.2-0.6-0.3-0.8c-0.2-0.6-0.2-1.2-0.4-1.9c-0.3-1.5-0.4-3.5-0.2-5.2c0-0.2,0-0.4,0-0.5c0-0.1,0.1-0.3,0.1-0.4
				c0-0.2,0-0.3,0.1-0.5c0.2-1.1,0.4-2.1,0.8-3.1c0.4-1.1,0.9-2.1,1.4-3c0.6-1.1,1.3-2.1,2-3c0.1-0.1,0.2-0.1,0.2-0.2
				c0.1-0.1,0.2-0.2,0.3-0.4c0.1-0.1,0.1-0.2,0.2-0.3c0.7-0.7,1.5-1.4,2.4-2.1c0.2-0.1,0.3-0.2,0.5-0.3c0.2-0.2,0.5-0.4,0.8-0.6
				c0.2-0.1,0.5-0.3,0.7-0.4c0.1-0.1,0.2-0.1,0.4-0.2c0.1-0.1,0.2-0.2,0.3-0.2c1-0.5,2-0.9,3.1-1.3c0.3-0.1,0.6-0.2,0.9-0.2
				c0.3-0.1,0.6-0.2,0.8-0.3c0.2,0,0.3,0,0.5-0.1c0.4-0.1,0.8-0.1,1.2-0.2c0.1,0,0.1-0.1,0.2-0.1c0.3-0.1,0.7,0,1-0.1
				C43.6,25.5,43.7,25.5,43.8,25.5 M41,51.1c0.1,0.5,0.4,1,0.5,1.4c0.3,0,0.7,0.1,1,0.2c0.1,0,0.3,0.1,0.4,0.1c0.1,0,0.1,0,0.2,0
				c0.1,0,0.2,0.1,0.4,0.1c0.2,0,0.5,0,0.6,0.1c0.1,0.1,0.1,0.2,0.1,0.3c0,0,0.1,0.1,0.2,0.1c0,0,0.1,0.1,0.1,0.2
				c0.1,0.1,0.2,0.2,0.3,0.3c0.1,0.1,0.1,0.2,0.2,0.3c0.1,0.1,0.3,0.2,0.3,0.4c0,0.1-0.1,0.2-0.1,0.3c0,0.1,0,0.2-0.1,0.3
				c0,0.1-0.1,0.1-0.1,0.2c0,0.1,0,0.2,0,0.2c-0.1,0.3-0.3,0.7-0.2,1.1c0,0.1,0.1,0.2,0.1,0.3c0,0.1,0,0.2,0,0.3
				c0,0.1,0.1,0.3,0,0.4c0,0.1-0.1,0.2-0.1,0.3c-0.1,0.4-0.2,0.8-0.3,1.2c0.1,0.2,0.1,0.5,0.3,0.7c0,0.4,0.2,0.6,0.3,0.9
				c0,0.1,0,0.2,0,0.3c0.1,0.3,0.1,0.7,0.1,1.1c0,0.3-0.2,0.5-0.2,0.8c0,0.1,0,0.2,0,0.3c0,0.4-0.1,0.7-0.1,1.1
				c1.4,0.3,3.2,0.2,4.6,0c0.2-0.5,0.7-0.8,0.9-1.4c0.2-0.2,0.3-0.5,0.5-0.6c0-0.1,0.1-0.2,0.1-0.3c0.2-0.1,0.4-0.3,0.6-0.4
				c0.2-0.1,0.5-0.3,0.6-0.4c0.1-0.2,0.1-0.5,0.2-0.8c0-0.1,0.1-0.1,0.2-0.2c0-0.1,0-0.1,0-0.2c0-0.1,0.1-0.2,0.2-0.3
				c0.1-0.2,0.2-0.4,0.2-0.6c0-0.1,0.1-0.2,0.2-0.3c0.1-0.2,0.1-0.4,0.2-0.5c0.1-0.1,0.3-0.1,0.4-0.2c0.2-0.1,0.3-0.2,0.5-0.3
				c0.1,0,0.2,0,0.2-0.1c0,0,0.1-0.1,0.2-0.2c0.2-0.2,0.3-0.5,0.6-0.6c0.3-0.1,0.6-0.1,0.9-0.3c0.1,0,0.1-0.1,0.1-0.2
				c0.2-0.2,0.4-0.3,0.5-0.4c0.1-0.1,0.2-0.2,0.4-0.3c0.1-0.1,0.3-0.1,0.3-0.3c-0.2-0.1-0.4-0.1-0.6-0.2c-0.2-0.1-0.4-0.1-0.6-0.2
				c-0.1,0-0.1,0-0.2,0c-0.2,0-0.3-0.1-0.5-0.1c-0.2-0.1-0.2-0.3-0.3-0.4c-0.1-0.2-0.3-0.3-0.4-0.5c0-0.1,0-0.1-0.1-0.2
				c-0.1-0.1-0.2-0.1-0.2-0.2c0-0.1,0-0.2,0-0.3c0-0.2-0.1-0.4-0.1-0.5c0-0.2-0.1-0.3-0.2-0.4c0-0.1,0-0.2-0.1-0.3
				c0,0-0.1-0.1-0.1-0.1c0-0.1,0-0.1,0-0.2c-0.1-0.2-0.2-0.3-0.4-0.5c-0.1-0.2-0.2-0.5-0.4-0.7c-0.1-0.2-0.3-0.4-0.4-0.6
				c0-0.2-0.3-0.3-0.1-0.5c0.2,0,0.3,0.3,0.6,0.3c0.2-0.2,0-0.6,0.2-0.7c0.2,0,0.2,0.2,0.3,0.3c0,0.2,0.2,0.3,0.2,0.5
				c0,0.1,0,0.2,0.1,0.3c0,0.1,0.1,0.2,0.1,0.2c0,0.1,0,0.1,0,0.2c0,0.1,0.1,0.1,0.1,0.2c0,0.1,0,0.2,0.1,0.3c0,0.1,0.1,0.1,0.1,0.2
				c0,0.1,0,0.1,0.1,0.2c0.1,0.1,0.1,0.2,0.2,0.3c0.3,0.4,0.7,0.7,0.8,1.4c0,0.2,0,0.5,0,0.8c0,0.2,0,0.3,0,0.5
				c0.1,0.1,0.2,0.2,0.4,0.3c0.2,0.1,0.4,0.2,0.5,0.2c0.1,0,0.2-0.1,0.3-0.1c0.3,0,0.5,0,0.7,0c0.1,0,0.2-0.1,0.3-0.1
				c0.1,0,0.3,0,0.4-0.1c0.1-0.1,0.2-0.2,0.4-0.3c0.1-0.1,0.3-0.2,0.5-0.3c0.1,0,0.1-0.1,0.2-0.2c0.1-0.1,0.2-0.1,0.2-0.1
				c0.1-0.1,0.2-0.3,0.4-0.3c0.1-0.2,0.3-0.2,0.3-0.4c0,0,0-0.1,0-0.2c-0.1-0.2-0.1-0.4-0.1-0.5c0-0.1,0-0.2,0-0.2
				c-0.1-0.3-0.3-0.5-0.7-0.4c-0.1,0-0.2,0.1-0.3,0.1c-0.5,0.1-0.7-0.2-0.9-0.4C58,51.1,57.9,51,57.8,51c-0.1-0.1-0.2-0.1-0.2-0.3
				c0.1-0.1,0.3,0,0.4,0c0.2,0,0.3,0.1,0.5,0.1c0.3,0.1,0.6,0.2,1,0.3c0.1,0,0.2,0,0.3,0c0.3,0,0.5,0.2,0.8,0.2
				c0.1,0,0.2-0.1,0.3-0.1c0.1,0,0.3,0,0.4,0c0.1,0,0.2-0.1,0.3-0.1c0.1,0,0.2,0.2,0.2,0.2c0.2,0.2,0.6,0.3,0.8,0.4
				c0,0.3,0,0.6,0.1,0.9c0.1,0.2,0.1,0.4,0.2,0.5c0,0.1,0,0.2,0.1,0.3c0,0.1,0.1,0.1,0.2,0.3c0.1,0.1,0.1,0.3,0.2,0.3
				c0.3,0,0.4-0.5,0.5-0.7c0-0.1,0.1-0.2,0.1-0.2c0.1-0.2,0.1-0.4,0.1-0.5c0-0.1,0.1-0.2,0.1-0.2c0.1-0.2,0.1-0.4,0.1-0.6
				c0.1-0.2,0.1-0.3,0.2-0.5c0.1-0.5,0.2-0.9,0.3-1.4c0.3-1.7,0.4-3.9,0.2-5.8c0-0.4-0.2-0.9-0.3-1.3c0-0.1,0-0.2,0-0.3
				c0-0.1-0.1-0.2-0.1-0.3c0-0.1,0-0.3,0-0.4c0-0.1-0.1-0.2-0.1-0.2c-0.1-0.3-0.1-0.5-0.2-0.8c-0.1-0.3-0.2-0.7-0.3-1
				c-0.1-0.3-0.3-0.6-0.4-0.9c-0.1-0.3-0.2-0.6-0.4-0.9c0-0.1-0.1-0.2-0.1-0.2c-0.1-0.2-0.1-0.3-0.2-0.4c0-0.1-0.1-0.2-0.1-0.2
				c-0.1-0.2-0.2-0.3-0.3-0.4c-0.1-0.2-0.1-0.3-0.2-0.4c-0.1-0.1-0.2-0.3-0.3-0.4c-0.4-0.5-0.7-1.1-1.1-1.6c-0.8-1-1.7-1.9-2.7-2.7
				c0,0-0.1,0-0.2,0c-0.1,0-0.2-0.3-0.4-0.3c-0.1,0-0.2,0-0.3,0c-0.2,0-0.4-0.1-0.6-0.2c-0.1,0-0.2,0-0.2,0c-0.1,0-0.2-0.1-0.3-0.1
				c-0.1,0-0.2,0.1-0.3,0c-0.1,0.2-0.4,0.2-0.7,0.3c-0.2,0.4,0.2,0.5,0.3,0.7c0,0.5,0.3,0.5,0.6,0.6c0.2,0.2,0.5,0.2,0.7,0.4
				c0,0.3,0.2,0.6,0.2,0.9c0,0.1,0,0.3,0,0.4c0,0.1,0.1,0.2,0.2,0.4c0,0.2-0.2,0.5-0.1,0.7c-0.1,0.2-0.1,0.5-0.2,0.7
				c0,0.1-0.1,0.2-0.1,0.3c0,0.1-0.1,0.1-0.2,0.2c0,0.1,0,0.2-0.1,0.2c0,0.1,0,0.2-0.1,0.2c-0.1,0.2-0.2,0.3-0.2,0.4
				c0,0.1,0,0.2,0,0.2c0,0.2-0.2,0.4-0.3,0.5c0,0.1-0.1,0.2-0.1,0.2c-0.1,0.1-0.1,0.1-0.2,0.2c-0.1,0.1-0.1,0.3-0.1,0.5
				c0,0.1,0.1,0.3,0.1,0.4c-0.2,0.1-0.3,0-0.5-0.1c-0.1,0-0.1-0.1-0.2-0.1c-0.1,0-0.1-0.1-0.2-0.1c-0.1-0.1-0.3-0.1-0.5-0.2
				c-0.2-0.1-0.3-0.3-0.5-0.2c-0.1,0-0.2,0.2-0.3,0.2c-0.2,0-0.3,0.3-0.5,0.4c-0.1,0.1-0.2,0.1-0.3,0.2c-0.1,0.1-0.2,0.2-0.3,0.2
				c-0.1,0.1-0.2,0.1-0.3,0.2c-0.1,0-0.1,0.1-0.2,0.2c-0.1,0.1-0.3,0.2-0.4,0.3c0,0.2,0.2,0.2,0.2,0.3c-0.3,0.2-0.5,0.3-0.7,0.6
				c-0.1,0-0.1-0.1-0.2-0.1c-0.2,0.1-0.3,0.2-0.5,0.4c-0.1,0.1-0.1,0.1-0.1,0.2c-0.1,0.1-0.3,0-0.4,0.1c-0.2,0-0.3,0.1-0.5,0
				c-0.1,0-0.2-0.2-0.3-0.2c-0.1,0-0.2,0-0.2,0c-0.2,0-0.3-0.3-0.5-0.2c-0.1,0.1-0.2,0.4-0.2,0.5c0,0.1,0.2,0.2,0.2,0.3
				c0,0.1,0,0.3,0,0.4c0,0.2,0,0.3-0.2,0.3c-0.3,0-0.2-0.3-0.3-0.4c0-0.1-0.1-0.2-0.2-0.2c-0.2-0.1-0.3,0-0.5,0.1
				c-0.1,0.1-0.2,0.1-0.2,0.2c-0.1,0.1-0.1,0.2-0.1,0.2c-0.1,0.1-0.2,0.1-0.3,0.3c-0.1,0.1-0.1,0.2-0.1,0.3
				c-0.1,0.1-0.2,0.2-0.3,0.5c0.2,0.2,0.5,0.3,0.4,0.8c0.1,0.1,0.3,0.2,0.4,0.3c0.2,0.1,0.4,0.2,0.5,0.2c0.1,0,0.2-0.2,0.3-0.3
				c0.1-0.1,0.2-0.1,0.3-0.2c0.1-0.1,0.2-0.1,0.3-0.2c0.2-0.1,0.2-0.4,0.6-0.3c0.1,0.1,0.1,0.3,0.2,0.3c0.3,0,0.6-0.1,0.7,0.1
				c0,0.2,0.1,0.3,0.1,0.5c0,0.1,0,0.1,0,0.2c0,0.1,0.1,0.2,0.1,0.3c0,0.1,0,0.2,0,0.3c0,0.1,0.2,0.2,0.2,0.3c0,0.2-0.5,0.4-0.5,0.6
				c0,0.2,0.1,0.4,0.3,0.4c0.1,0,0.2-0.1,0.3-0.2c0.2-0.2,0.3-0.3,0.6-0.1c0.3-0.2,0.1-0.8,0.1-1.2c-0.1-0.1-0.3-0.2-0.2-0.4
				c0.1,0.1,0.2,0.2,0.2,0.4c0.1,0.1,0.2,0.1,0.2,0.3c0.1,0.2,0,0.4,0,0.5c0,0.2,0.1,0.6,0.3,0.7c0.1,0,0.1,0,0.2,0
				c0.1,0,0.2,0.1,0.3,0c0.3-0.1,0.2-0.5,0.3-0.7c0.1,0,0.4-0.1,0.4,0.1c0,0.2-0.2,0.2-0.2,0.3c-0.2,0.3-0.2,0.7,0,0.9
				c0.2,0.1,0.6,0.1,0.7,0.3c0,0.1-0.1,0.2-0.2,0.3c-0.1,0.1-0.1,0.4-0.3,0.4c-0.2-0.1-0.4-0.2-0.6-0.3c-0.2-0.1-0.4,0-0.6,0
				c-0.1,0-0.2-0.1-0.3-0.1c-0.4-0.1-0.7-0.2-1-0.2c-0.1-0.2-0.2-0.4-0.5-0.4c-0.1,0-0.2,0.1-0.3,0.1c-0.1,0-0.3-0.3-0.4-0.4
				c-0.1-0.2-0.3-0.4-0.4-0.5c-0.1-0.1-0.2-0.2-0.3-0.3c0-0.1,0.1-0.2,0.1-0.3c0-0.2-0.1-0.3-0.2-0.4c-0.1,0-0.2-0.1-0.3-0.2
				c-0.2-0.1-0.5,0-0.7-0.1c-0.1,0-0.2-0.1-0.3-0.2c-0.2-0.1-0.4-0.1-0.6-0.2c-0.1-0.5-0.5-0.1-0.7,0c-0.3,0.1-0.4,0.3-0.7,0.3
				c0,0.1-0.1,0.1-0.2,0.2c0,0.2-0.2,0.4-0.3,0.5c-0.1,0.1,0,0.3-0.2,0.4c-0.1,0-0.4-0.2-0.6-0.2c-0.3,0-0.4,0.1-0.6,0.3
				c-0.3,0.2-0.7,0.4-1,0.6c-0.2,0.1-0.4,0.3-0.6,0.4c-0.2,0.1-0.6,0.3-0.6,0.4c0,0.1,0,0.2-0.1,0.3c0,0.1-0.1,0.1-0.1,0.2
				c0,0.1,0,0.2,0,0.2c-0.1,0.2-0.2,0.4-0.2,0.6c-0.1,0.1-0.2,0.3-0.2,0.5c0,0.1,0.1,0.3,0.1,0.4c0.1,0.2,0.1,0.3,0.1,0.5
				C40.9,50.9,41,51,41,51.1 M27.2,49.4c0.1,0.2,0.1,0.5,0.2,0.7c0.1,0.2,0.1,0.5,0.2,0.7c0.1,0.2,0.2,0.4,0.3,0.7
				c0,0.1,0.1,0.3,0.1,0.4c0.3,0.6,0.5,1.2,0.8,1.8c0.1,0.2,0.2,0.5,0.4,0.6c0.1-0.2,0.3-0.4,0.3-0.7c0.2-0.1,0.4-0.4,0.7-0.5
				c0.1,0,0.2,0,0.4-0.1c0.1,0,0.1-0.1,0.2-0.1c0.1,0,0.1,0,0.2,0c0,0,0.1-0.1,0.1-0.1c0.1,0,0.1,0,0.2,0c0.2-0.1,0.3-0.2,0.4-0.2
				c0.3-0.1,0.6,0,1-0.1c0.4-0.1,0.8-0.2,1.1-0.2c0.2,0,0.3,0,0.5,0c0.1,0,0.1-0.1,0.2-0.1c0.3,0,0.5,0,0.8-0.1
				c0.2,0.1,0.3,0.3,0.5,0.3c0.1,0.1,0.3,0.3,0.5,0.3c0.1,0,0.2-0.2,0.3-0.3c0.2-0.3,0.4-0.4,0.6-0.7c0.1-0.1,0.2-0.2,0.3-0.3
				c0-0.1,0-0.3,0-0.4c0-0.2-0.1-0.4-0.2-0.5c-0.1-0.4-0.2-0.7-0.4-1.1c0-0.1,0-0.1,0-0.2c-0.2-0.4-0.4-0.7-0.6-1.1
				c-0.1-0.1-0.3-0.3-0.2-0.5c0-0.1,0.2-0.1,0.3-0.1c0.1,0,0.1-0.1,0.2-0.1c0.1,0,0.3,0,0.3-0.1c0-0.2,0-0.4,0-0.6
				c0-0.1,0.1-0.2,0.1-0.3c0.1-0.3,0-0.6-0.1-0.9c-0.1-0.3-0.2-0.4-0.5-0.5c-0.1-0.1-0.1-0.4-0.1-0.6c0.1-0.2,0.4-0.5,0.5-0.7
				c0-0.1,0-0.3,0-0.4c0-0.3,0.2-0.5,0.2-0.7c0-0.1-0.1-0.2-0.2-0.3c-0.1-0.2-0.4-0.5-0.5-0.7c0-0.1,0-0.1,0-0.2
				c0-0.1-0.1-0.1-0.1-0.1c0-0.1,0-0.2-0.1-0.3c0-0.1-0.1-0.2-0.1-0.3c0-0.1,0-0.2-0.1-0.3c0-0.1-0.1-0.2-0.1-0.3
				c-0.1-0.2,0-0.4,0-0.5c0,0-0.1-0.1-0.1-0.2c0-0.1,0-0.2-0.1-0.2c-0.1-0.1-0.2-0.2-0.3-0.4c-0.1-0.1-0.1-0.2-0.2-0.3
				c-0.2-0.3-0.3-0.4-0.6-0.4c-0.3-0.1-0.7,0-0.9-0.1c0-0.3,0-0.8,0.1-1c-0.1-0.2-0.4-0.6-0.2-0.9c0.2,0,0.4,0,0.5-0.2
				C34,36,34,35.8,34,35.6c0-0.2,0.1-0.3,0.1-0.5c0-0.1,0-0.2,0-0.2c0.1-0.2,0.3-0.1,0.5,0c0.3,0.1,0.4,0.3,0.8,0.3
				c0.1-0.4-0.1-0.9,0-1.2c0-0.2,0.3-0.3,0.4-0.4c0.1-0.1,0.1-0.2,0.2-0.3c0.2-0.1,0.4-0.1,0.6-0.2c0.3-0.1,0.6-0.3,0.9-0.3
				c0.1,0.2,0.2,0.4,0.2,0.6c0.1,0.1,0.1,0.2,0.1,0.3c0,0.1,0,0.1-0.1,0.2c-0.1,0.4-0.2,0.7-0.3,1c-0.2,0.2-0.4,0.3-0.6,0.5
				c0,0.2-0.1,0.3-0.1,0.4c0.2-0.1,0.3-0.2,0.5-0.3c0.1-0.1,0.1-0.1,0.2-0.1c0.1,0,0.2,0.1,0.3,0c0.2,0,0.4-0.3,0.6-0.3
				c0.1,0,0.2,0.2,0.3,0.2c0.1,0,0.3,0,0.4-0.1c0.1,0,0.3-0.1,0.4-0.1c0.1,0,0.1-0.1,0.2-0.1c0.1,0,0.3,0,0.4-0.1
				c0.3,0.1,0.8,0.1,1,0.3c0,0.2,0.2,0.3,0.3,0.5c0,0,0,0.1,0.1,0.2c0.1,0.2,0.3,0.4,0.4,0.6c0.2,0,0.3,0.2,0.5,0.2
				c0.1-0.2,0-0.7,0.3-0.8c0.3,0,0.3,0.4,0.3,0.8c0.1,0.2,0.1,0.6,0.2,0.7c0.1,0,0.3,0,0.4,0c0.3-0.1,0.3-0.2,0.5-0.4
				c0,0,0.1-0.1,0.1-0.1c0-0.1,0-0.2,0-0.2c0-0.1,0.1-0.1,0.1-0.2c0-0.1,0.1-0.1,0.1-0.2c0.1-0.1,0.3-0.2,0.3-0.3c0-0.1,0-0.2,0-0.2
				c0,0,0.1-0.1,0.1-0.2c0-0.1,0-0.1,0.1-0.2c0.1-0.2,0.2-0.3,0.4-0.5c0.2-0.2,0.4-0.4,0.5-0.6c0-0.1,0-0.3,0-0.4
				c-0.2-0.1-0.3,0.1-0.5,0.1c-0.3,0.1-0.5-0.1-0.7-0.1c-0.1,0-0.1,0.3-0.1,0.3c-0.2,0-0.3,0.2-0.5,0.2c-0.1,0-0.1-0.1-0.2-0.1
				c-0.2-0.1-0.6-0.3-0.6-0.4c0-0.1,0.1-0.2,0.2-0.2c0.2-0.1,0.3-0.2,0.4-0.4c0.3-0.4,0.4-0.8,0.7-1.2c0.1-0.2,0.3-0.4,0.4-0.4
				c0.1,0,0.4,0.2,0.5,0.2c0.2,0.1,0.4,0.3,0.5,0.3c0.2,0.1,0.4,0.1,0.5,0.2c0.1,0,0.3,0,0.4,0.1c0.1,0,0.3,0.1,0.3,0.2
				c0.1,0.2-0.2,0.4-0.1,0.6c0.1,0.1,0.4,0.2,0.5,0.2c0.1-0.1,0-0.4,0-0.6c0.1-0.2,0.5,0,0.6-0.1c-0.1-0.3-0.6-0.4-0.7-0.8
				c0.1-0.2,0.2-0.4,0.3-0.6c0.2-0.2,0.1-0.4,0.4-0.5c0.1,0,0.3,0,0.4,0c0.1,0,0.2-0.1,0.3-0.1c0.1-0.2,0.2-0.4,0.4-0.5
				c0.3-0.1,0.4-0.1,0.8-0.2c0.1,0,0.2-0.1,0.3,0c0.1,0,0.2,0.1,0.3,0.2c0.1,0.1,0.2,0.2,0.3,0.2c0.1,0,0.2-0.1,0.3-0.1
				c0.1,0,0.1,0,0.2,0c0.1,0,0.2-0.2,0.4-0.2c0-0.2-0.1-0.4-0.1-0.5c0-0.2,0-0.4,0-0.6c0-0.1-0.1-0.1-0.1-0.2
				c0.1-0.2,0.2-0.2,0.3-0.4c-0.2-0.1-0.3-0.3-0.6-0.3c-0.1,0-0.2,0.1-0.3,0.1c-0.1,0-0.2-0.1-0.2-0.1v-0.4
				c-0.1-0.1-0.2-0.1-0.3-0.1c-0.1,0-0.2-0.1-0.3-0.1c-0.1,0-0.2,0.1-0.3,0.2c-0.1,0.1-0.2,0.2-0.3,0.3c-0.1,0.2,0,0.3-0.2,0.4
				c-0.1,0.1-0.2,0-0.3,0c-0.2,0-0.3,0.2-0.4,0.2c-0.4,0.1-0.6,0-0.9-0.2c-0.4,0.4-0.8-0.3-1.1-0.4c-0.1,0-0.2,0-0.4-0.1
				c0.1-0.2,0.1-0.5-0.1-0.5c-0.1,0-0.4,0.1-0.5,0.2c-0.1,0-0.2,0-0.3,0c-0.3,0-0.6,0-0.8-0.1c-0.1,0-0.2-0.1-0.2-0.1
				c-0.1-0.1-0.1-0.2-0.2-0.2c-0.2,0-0.4,0.1-0.6,0c-0.2,0-0.3-0.3-0.4-0.3c-0.2-0.1-0.3,0-0.4,0c-0.1,0-0.3,0-0.4,0
				c-0.1,0-0.3,0.1-0.4,0.1c-0.1,0-0.2,0-0.3,0c-0.2,0-0.3,0.1-0.5,0.1c-0.5,0.1-1,0.2-1.5,0.3c-0.4,0.2-0.9,0.3-1.4,0.5
				c-0.1,0-0.2,0.1-0.3,0.1c-0.4,0.2-0.8,0.4-1.2,0.6c-0.2,0.1-0.4,0.2-0.6,0.3c-0.3,0.2-0.6,0.3-0.8,0.5c0,0.2-0.1,0.3-0.2,0.6
				c0,0.1,0,0.2,0,0.3c0,0.3-0.3,0.6-0.5,0.7c-0.1,0-0.1-0.1-0.3-0.1c-0.1,0.1-0.2,0.2-0.3,0.3c-0.1,0.1-0.2,0.2-0.3,0.3
				c-0.1,0.2,0,0.5,0,0.8c-0.1,0.1-0.2,0.2-0.3,0.4c0,0.1-0.1,0.2-0.1,0.3c0,0.1-0.1,0.1-0.2,0.2c-0.2,0.3-0.4,0.6-0.3,1.1
				c-0.1,0.2-0.1,0.4-0.1,0.6c0,0.1-0.2,0.2-0.2,0.3c0,0.3,0.1,0.3,0.1,0.5c0,0.1-0.1,0.2-0.1,0.3c-0.1,0.3-0.2,0.5-0.3,0.8
				c0,0.2,0.3,0.5,0.3,0.8c0,0.1-0.1,0.2-0.1,0.3c-0.1,0.2-0.2,0.3-0.3,0.4c-0.3,0.2-0.6,0.1-0.9,0c-0.1,0.1-0.3,0.1-0.4,0.1
				c-0.2,0.1-0.3,0.2-0.5,0.3c0,0.1-0.1,0.1-0.2,0.1c0,0.1,0,0.2-0.1,0.3c-0.1,0.1-0.2,0.1-0.3,0.2c0,0-0.1,0.1-0.1,0.1
				c-0.3,0.2-0.7,0.5-0.8,0.8c0.1,0.3,0.1,0.5,0,0.7c0,0.1-0.1,0.1-0.1,0.2c-0.2,0.4-0.5,0.8-0.5,1.3c-0.1,0.1-0.2,0.2-0.2,0.3
				c0,0.3,0,0.5-0.3,0.5c-0.1,0.2-0.2,0.3-0.3,0.5c0,0.1-0.1,0.4-0.1,0.5c0,0.2,0.2,0.4,0.3,0.6c0,0.1,0.1,0.2,0.1,0.3
				c0.1,0.3,0.1,0.4,0,0.8c-0.2,0.3-0.4,0.6-0.6,0.9c-0.1,0.1-0.1,0.2-0.2,0.4c-0.1,0.2-0.4,0.5-0.5,0.7c0,0.1,0.1,0.3,0.1,0.5
				c0,0.2,0,0.4,0.1,0.5C27,48.9,27.1,49.2,27.2,49.4"/>
			<path fill="#FFFFFF" d="M32.8,14.6C32.8,14.6,32.9,14.6,32.8,14.6C32.9,14.6,32.9,14.6,32.8,14.6c0.3,0,0.6,0.3,0.8,0.5
				c0,0,0.1,0,0.1,0.1c0.2,0.1,0.4,0.3,0.6,0.5c0.2,0.2,0.4,0.4,0.7,0.6c0.7,0.6,1.3,1.3,1.8,2c0.2,0.2,0.4,0.5,0.5,0.8
				c0.1,0.1,0.1,0.3,0.2,0.4c0.1,0.3,0.3,0.5,0.4,0.8c0.1,0.1,0.1,0.3,0.2,0.4c0.1,0.2,0.1,0.4,0.2,0.6c0.1,0.2,0.2,0.4,0.2,0.6
				c0,0.2,0.1,0.4,0.1,0.6c0.1,0.4,0.1,0.8,0.2,1.2c0,0.2,0.1,0.5,0.1,0.6c0,0.1-0.4,0.2-0.6,0.3c-0.2,0.1-0.4,0.2-0.6,0.2
				c-0.1,0-0.4-0.2-0.6-0.3c-0.4-0.3-0.7-0.5-1-0.8c-0.2-0.3-0.5-0.5-0.7-0.8c-0.2-0.2-0.3-0.5-0.4-0.7c-0.2-0.3-0.2-0.5-0.3-0.8
				c-0.2-0.6-0.4-1.3-0.5-2c-0.1-0.5-0.2-1.1-0.3-1.6c-0.2-0.8-0.5-1.4-0.8-2.1C33,15.1,32.9,14.9,32.8,14.6"/>
			<path fill="#FFFFFF" d="M26.8,11.1c0.4,0.2,1,0.6,1.4,0.8c0.2,0.2,0.5,0.3,0.7,0.5c0.8,0.6,1.6,1.3,2.3,2.1
				c0.1,0.1,0.2,0.2,0.2,0.3c0.1,0.1,0.2,0.2,0.3,0.3c0.1,0.1,0.2,0.3,0.3,0.5c0.6,1,1,2,1.4,3.2c0,0.1,0.1,0.2,0.1,0.2
				c0,0.1,0,0.2,0,0.3c0,0.1,0.1,0.2,0.1,0.3c0.1,0.2,0.1,0.4,0.1,0.6c0.1,0.4,0.2,0.9,0.2,1.3c0.1,0.4,0.2,0.8,0.3,1.2
				c0.1,0.4,0.2,0.8,0.4,1.1c0.2,0.4,0.5,0.8,0.8,1.2c0.1,0.1,0.3,0.3,0.3,0.4c0,0.1-0.3,0.2-0.4,0.3C35.2,25.9,35,26,34.9,26
				c-0.1,0.1-0.3,0.2-0.4,0.3c-0.1,0.1-0.3,0.2-0.5,0.2c-0.3,0-0.9-0.5-1.1-0.6c-0.6-0.4-1-0.7-1.4-1.2c-0.4-0.4-0.8-0.9-1.2-1.5
				c-0.4-0.7-0.8-1.6-1.1-2.5c-0.1-0.2-0.1-0.5-0.2-0.7c-0.1-0.5-0.1-1-0.2-1.5c-0.1-0.9-0.1-1.9-0.2-2.7c-0.1-0.6-0.3-1.1-0.5-1.6
				c-0.3-0.7-0.6-1.4-1-2.1C27,11.7,26.9,11.5,26.8,11.1C26.8,11.2,26.8,11.2,26.8,11.1"/>
			<path fill="#FFFFFF" d="M15.9,31.8c0.5-0.1,1.2-0.2,1.8-0.1c0.4,0.1,0.7,0.1,1.1,0.2c0.3,0.1,0.6,0.2,0.9,0.3
				c0.2,0.1,0.3,0.1,0.5,0.1c0.2,0.1,0.3,0.2,0.5,0.3c0.5,0.2,0.9,0.6,1.4,0.9c0.5,0.3,0.8,0.7,1.3,1c0.1,0,0.1,0.1,0.2,0.2
				c0.1,0.1,0.1,0.1,0.2,0.2c0.2,0.1,0.4,0.2,0.7,0.4c0.1,0,0.1,0.1,0.2,0.1c0.1,0.1,0.3,0.2,0.5,0.3c0.2,0.1,0.4,0.1,0.5,0.2
				c0,0.2-0.1,0.4-0.2,0.6c-0.1,0.2-0.2,0.4-0.3,0.5c-0.1,0-0.2,0-0.4,0c-0.6,0-1.4,0.2-2,0.2c-0.2,0-0.4,0-0.5,0
				c-0.8-0.1-1.5-0.2-2.1-0.5c-0.6-0.3-1.1-0.6-1.6-1c-0.1-0.1-0.3-0.2-0.4-0.3c-0.1-0.1-0.2-0.2-0.4-0.3c-0.5-0.4-1-0.7-1.5-1.1
				c-0.2-0.2-0.5-0.4-0.8-0.5c-0.2-0.1-0.4-0.2-0.5-0.2c-0.3-0.2-0.7-0.3-1-0.5c-0.2-0.1-0.4-0.1-0.5-0.3c0.3-0.2,0.7-0.3,1.1-0.4
				c0.1,0,0.2-0.1,0.3-0.1c0.2-0.1,0.4-0.1,0.6-0.2c0.1,0,0.2-0.1,0.3-0.1C15.7,31.8,15.8,31.8,15.9,31.8"/>
			<path fill="#FFFFFF" d="M13.2,46.6c0.6,0,1.3,0.1,1.8,0.2c0.3,0.1,0.5,0.2,0.8,0.2c0.4,0.1,0.8,0.2,1.2,0.4
				c0.1,0,0.2,0.1,0.4,0.2c0.5,0.2,1.1,0.3,1.7,0.4c0.9,0.1,1.8,0.2,2.6,0c0.2,0,0.3-0.1,0.5-0.2c0.3-0.1,0.5-0.1,0.8-0.2
				c0.2-0.1,0.3-0.2,0.6-0.2c0.1,0.4,0.1,0.7,0.1,1.1c0,0.1,0.1,0.2,0.1,0.3c0,0.3,0,0.7,0,1c-0.4,0.3-0.9,0.5-1.4,0.9
				c-0.5,0.4-1.2,0.5-2,0.7c-0.3,0.1-0.6,0.2-1,0.2c-0.3,0.1-0.7,0.2-1,0.2c-1.8,0.1-3.4-0.2-4.9-0.5c-0.2-0.1-0.5-0.1-0.7-0.2
				c-1.1-0.4-2.2-0.8-3.3-1.2c-0.9-0.3-1.9-0.5-2.8-0.8c0-0.2,0.2-0.2,0.3-0.3c0.1-0.1,0.2-0.1,0.4-0.2c0.1-0.1,0.3-0.1,0.4-0.2
				c0.4-0.2,0.7-0.4,1.1-0.6c0.4-0.2,0.7-0.4,1.1-0.6c0.3-0.1,0.6-0.3,1.1-0.3c0.1,0,0.2,0,0.3-0.1C11.8,46.6,12.5,46.6,13.2,46.6"
				/>
			<path fill="#FFFFFF" d="M22,21.4c0.4,0.1,1,0.3,1.5,0.4c0.1,0,0.1,0.1,0.2,0.1c0.9,0.3,1.5,0.6,2.1,1c0.2,0.1,0.5,0.2,0.7,0.4
				c0.2,0.1,0.4,0.3,0.6,0.4c0.3,0.2,0.6,0.4,0.8,0.7c0.1,0.1,0.2,0.1,0.2,0.2c0.1,0.1,0.3,0.3,0.4,0.5c0.2,0.2,0.4,0.5,0.6,0.8
				c0.5,0.8,1,1.7,1.5,2.4c0.1,0.1,0.4,0.3,0.4,0.5c0,0.1-0.3,0.3-0.5,0.4c-0.2,0.1-0.4,0.3-0.5,0.3c-0.1,0-0.4-0.2-0.6-0.2
				c-0.6-0.2-1.2-0.4-1.7-0.7c-0.5-0.3-1-0.5-1.5-0.9c-0.3-0.3-0.6-0.5-0.9-0.8c-0.2-0.2-0.3-0.3-0.4-0.5c-0.1-0.2-0.2-0.4-0.4-0.6
				c-0.1-0.2-0.3-0.4-0.4-0.6c-0.5-0.8-0.8-1.7-1.3-2.5c-0.1-0.2-0.3-0.4-0.4-0.6C22.2,22,22.1,21.8,22,21.4
				C22,21.5,22,21.4,22,21.4"/>
			<path fill="#FFFFFF" d="M18.9,46.6c-0.1,0-0.2,0-0.2,0c-0.1,0-0.2,0-0.3,0c-0.3,0-0.5,0-0.8-0.1c-1.1-0.2-2.2-0.5-3.3-0.8
				c-0.7-0.2-1.4-0.3-2.3-0.3c-0.3,0-0.6,0-0.9,0c0-0.1,0.2-0.2,0.3-0.2c0.5-0.3,1.1-0.6,1.7-0.8c0.7-0.3,1.5-0.5,2.4-0.7
				c0.6-0.1,1.2-0.1,1.8-0.1c0.5,0,1.2,0,1.7,0c0.5,0,1.1,0.1,1.6,0.2c0.4,0.1,0.9,0.2,1.4,0.2c0.4,0,0.8-0.1,1.3-0.1
				c0.1,0.3,0,0.8,0,1.1c-0.3,0.2-0.5,0.3-0.8,0.4c-0.3,0.1-0.5,0.3-0.8,0.4c-0.5,0.3-1.2,0.4-1.9,0.6c-0.2,0-0.5,0.1-0.7,0.1
				C19.1,46.6,19,46.6,18.9,46.6"/>
			<path fill="#6AB023" d="M90,84.1c0,0,0,0.3,0,0.3c0,0-0.2,0-0.3,0c-0.9,0-1.9,0-2.8,0c-28.9,0-57.7,0-86.5,0c0,0-0.1,0-0.1,0V0.1
				c0,0,0-0.1,0-0.1h88.8c0.3,0,0.6,0,0.7,0c0.1,0,0.1,0,0.1,0.1c0,0,0,0.2,0,0.2C90,28.1,90,56.3,90,84.1 M69.7,54.9
				c0.3,0.2,0.6,0.3,0.9,0.5c0.2,0.1,0.3,0.3,0.5,0.4c0.2,0.1,0.4,0.3,0.5,0.4c0.5,0.4,1,0.9,1.6,1.2c0.2,0.1,0.4,0.3,0.6,0.4
				c0.1,0.1,0.2,0.1,0.3,0.1c0.1,0.1,0.2,0.1,0.3,0.2c0.1,0.1,0.2,0.1,0.3,0.1c0.1,0.1,0.2,0.1,0.3,0.2c0.2,0.1,0.5,0.2,0.7,0.2
				c0.2,0.1,0.5,0.2,0.8,0.2c1.8,0.3,3.5-0.1,5-0.5c0-0.2-0.3-0.3-0.4-0.4c-0.5-0.3-0.9-0.6-1.3-1c-0.6-0.4-1.1-0.9-1.7-1.4
				c-1-0.8-1.8-1.8-2.7-2.6c-0.5-0.4-1.2-0.8-2-0.9c-0.2,0-0.4-0.1-0.6-0.1c-0.8-0.2-1.7-0.2-2.6-0.3c-0.2,0-0.5,0-0.6,0
				c-0.2,0.1-0.5,0-0.8,0c-0.5,0-1,0.2-1.3,0.3c-0.1,0.1-0.3,0.1-0.3,0.2c-0.1,0.1-0.1,0.2-0.2,0.3c-0.2,0.3-0.3,0.6-0.4,1
				c0.1,0.1,0.3,0.2,0.5,0.2C68.1,54.2,69,54.5,69.7,54.9 M69.3,49.6c0.2,0,0.3,0,0.5,0c0.1,0,0.2,0.1,0.3,0.1c0.3,0,0.6,0,1,0.1
				c0.3,0,0.6,0,0.8,0c0.7-0.1,1.3-0.2,1.9-0.3c0.1,0,0.3,0,0.4,0c0.1,0,0.2-0.1,0.3-0.1c0.1,0,0.2,0,0.3,0c0.4-0.1,0.8-0.2,1.1-0.3
				c0.7-0.3,1.5-0.6,2.1-0.9c0.2-0.1,0.5-0.3,0.7-0.4c0.1,0,0.2-0.1,0.2-0.2c-1.1,0-2.2,0-3.3-0.1c-1-0.2-2.1-0.3-3.1-0.3
				c-0.4,0-0.8,0.1-1.2,0.1c-0.4,0-0.8,0.1-1.1,0.1c-0.5,0.1-0.9,0.2-1.3,0.3c-0.3,0.1-0.6,0.1-0.8,0.3c-0.1,0.5-0.2,1.1-0.2,1.6
				C68.4,49.4,68.9,49.5,69.3,49.6 M68.1,44.3c0,0.5,0,1,0.1,1.4c0.4,0,0.8-0.2,1.3-0.2c0.2,0,0.4,0,0.6,0c0.2,0,0.4,0,0.6,0.1
				c0.2,0,0.4,0.1,0.6,0.2c0.7,0.2,1.3,0.5,2.1,0.6c0.1,0,0.3,0,0.4,0.1c0.3,0,0.5,0.1,0.8,0.2c0.2,0,0.4,0,0.6,0
				c0.7,0,1.4,0,2.1-0.1c0.9-0.1,1.6-0.3,2.3-0.6c0.8-0.3,1.7-0.7,2.3-1.2c0.2-0.2,0.4-0.4,0.6-0.5c0.1-0.1,0.2-0.2,0.3-0.3
				c0.1-0.1,0.3-0.2,0.2-0.3c-0.5-0.1-0.9,0-1.4,0c-0.4,0-0.8-0.1-1.2-0.1c-1.5-0.3-2.8-1-4.2-1.4c-0.4-0.1-0.8-0.2-1.2-0.2
				c-0.4-0.1-0.8-0.2-1.2-0.2c-0.5,0-0.9,0-1.4,0c-0.8,0.1-1.7,0.2-2.5,0.4c-0.4,0.1-0.7,0.2-1,0.4c-0.3,0.1-0.8,0.3-0.9,0.5
				c-0.1,0.2,0,0.4,0,0.7C68,43.8,68.1,44.1,68.1,44.3 M67.4,40.3c0.2,0,0.4,0,0.6-0.1c0.3,0,0.6,0,0.9,0c0.2,0,0.4-0.1,0.6-0.1
				c0.2,0,0.4,0,0.6-0.1c0.2,0,0.4-0.2,0.6-0.2c0.2-0.1,0.4-0.1,0.6-0.2c0.4-0.1,0.7-0.4,1-0.6c0.3-0.2,0.6-0.4,0.9-0.6
				c0.2-0.2,0.4-0.4,0.6-0.6c0.1-0.1,0.2-0.1,0.2-0.2c0.3-0.2,0.5-0.5,0.8-0.8c0.2-0.3,0.5-0.6,0.7-0.9c0.4-0.7,0.8-1.4,1-2.1h0
				c-0.2,0.1-0.4,0.3-0.6,0.4c-0.3,0.3-0.6,0.5-1,0.8c-0.2,0.1-0.3,0.2-0.5,0.4c-0.7,0.4-1.5,0.9-2.3,1.2c-0.4,0.1-0.9,0.2-1.4,0.3
				c-0.5,0.1-1,0.1-1.5,0.3c-0.2,0.1-0.4,0.2-0.6,0.3c-0.2,0.1-0.4,0.2-0.6,0.3c-0.2,0.1-0.9,0.5-1,0.8c0,0.1,0.1,0.3,0.1,0.4
				C67.2,39.4,67.2,39.9,67.4,40.3 M67,55.6c-0.4,0-0.7,0-1.1,0c-0.3,0.4-0.5,0.9-0.7,1.4c0.1,0.1,0.3,0.2,0.4,0.3
				c0.5,0.4,1.1,0.8,1.6,1.2c0.1,0.1,0.3,0.2,0.4,0.3c0.1,0.1,0.3,0.2,0.4,0.3c0.1,0.1,0.3,0.2,0.5,0.2c0.6,0.3,1.3,0.5,1.9,0.8
				c0.3,0.1,0.7,0.2,1.1,0.3c0.8,0.1,1.8,0.3,2.6,0.2c0.5,0,1-0.1,1.5-0.1c0.2,0,0.4-0.1,0.5-0.1c-0.1-0.2-0.3-0.2-0.5-0.3
				c-0.6-0.3-1.1-0.5-1.6-0.9c-0.3-0.2-0.6-0.5-0.9-0.7c-0.1-0.1-0.3-0.2-0.5-0.3c-0.2-0.1-0.3-0.3-0.5-0.4c-0.6-0.4-1.3-0.9-2-1.2
				c-0.4-0.2-0.7-0.3-1.2-0.4c-0.2-0.1-0.4-0.1-0.7-0.2c-0.2-0.1-0.4-0.1-0.6-0.2C67.5,55.6,67.3,55.6,67,55.6
				C67.1,55.6,67,55.6,67,55.6 M65.4,35.1c0.1,0.2,0.2,0.4,0.3,0.6c0.2,0.4,0.3,0.8,0.6,1.1c0.3,0,0.6-0.2,0.9-0.4
				c0.6-0.3,1.2-0.5,1.9-0.6c0.7-0.1,1.4-0.3,2.1-0.4c0.3-0.1,0.7-0.1,1-0.2c0.3-0.1,0.6-0.2,0.9-0.3c0.3-0.1,0.6-0.2,0.9-0.4
				c0.1-0.1,0.2-0.1,0.3-0.2c0.1-0.1,0.2-0.1,0.3-0.2c0.1-0.1,0.2-0.2,0.3-0.3c0.3-0.2,0.6-0.5,0.9-0.8c0.1-0.2,0.3-0.3,0.4-0.5
				c0.1-0.1,0.2-0.2,0.2-0.2c0.1-0.1,0.1-0.2,0.2-0.3c0.1-0.2,0.3-0.3,0.5-0.5c0.2-0.2,0.3-0.4,0.4-0.5c0.4-0.5,0.8-1.1,1.2-1.6
				c0.1-0.2,0.4-0.3,0.3-0.6c-0.1,0-0.2,0-0.2,0c-1,0.4-2.1,0.7-3.2,1c-0.7,0.2-1.5,0.3-2.3,0.4c-0.5,0-1,0.1-1.5,0.1
				c-1.2,0.2-2.3,0.5-3.2,1c-0.5,0.2-0.9,0.5-1.3,0.8c-0.4,0.3-0.7,0.7-1.1,1c-0.2,0.4-0.5,0.7-0.8,1.1c-0.1,0.1-0.2,0.3-0.2,0.4
				C65.1,34.7,65.3,34.9,65.4,35.1 M63.5,32.2c1.2-0.5,2.4-1.1,3.3-1.9c0.4-0.4,0.9-0.7,1.3-1.1c0.6-0.6,1.2-1.3,1.7-2.1
				c0.1-0.2,0.2-0.4,0.3-0.6c0.1-0.2,0.2-0.4,0.3-0.7c0.2-0.4,0.4-0.9,0.6-1.3c0.1-0.2,0.1-0.4,0.1-0.6c0.1-0.6,0.3-1.3,0.3-2
				c0,0,0,0,0,0c0,0,0,0-0.1,0c-1.4,1.6-2.6,3.3-4.4,4.5c-0.9,0.6-1.9,1-2.7,1.7c-0.8,0.7-1.5,1.4-2,2.4
				C62.6,31,62.9,31.6,63.5,32.2 M62.8,61.5c0.7,0.5,1.4,1.1,1.9,1.7c0.2,0.2,0.3,0.4,0.5,0.5c0.1,0.1,0.1,0.2,0.2,0.3
				c0.1,0.2,0.3,0.4,0.5,0.6c0.3,0.5,0.5,1.1,0.8,1.7c0.1,0.3,0.3,0.7,0.5,1c0.2,0.3,0.3,0.6,0.5,0.9c0.2,0.3,0.4,0.6,0.7,0.8
				c0.2,0.2,0.5,0.4,0.7,0.6c0.6,0.5,1.3,1,1.9,1.4c0.1,0,0.1,0.1,0.2,0.1c0.1,0,0.2,0,0.3,0.1c0.1,0,0.1,0.1,0.2,0.1
				c0.2,0.1,0.4,0.2,0.7,0.3c0.5,0.2,1,0.4,1.4,0.6c0.2,0.1,0.3,0.1,0.5,0.2c0.3,0.1,0.7,0.2,1.1,0.2c0.1-0.1-0.1-0.2-0.1-0.2
				c-0.2-0.2-0.3-0.4-0.5-0.6c-0.2-0.3-0.4-0.6-0.6-0.9c-0.4-0.6-0.8-1.2-1.1-1.9c-0.2-0.4-0.3-0.7-0.4-1.1
				c-0.4-0.9-0.7-1.8-1.1-2.6c-0.1-0.2-0.2-0.3-0.3-0.5c-0.7-1.3-1.7-2.4-2.7-3.3c-0.5-0.5-1.2-0.8-1.9-1.1
				c-0.7-0.3-1.5-0.5-2.3-0.7c-0.2,0-0.4,0-0.6,0c-0.3,0-0.4,0.1-0.5,0.3c-0.2,0.3-0.4,0.4-0.6,0.7c-0.1,0.1-0.3,0.2-0.3,0.4
				C62.2,61.2,62.6,61.4,62.8,61.5 M60,64.2c0.5,0.5,1,1.2,1.3,1.7c0.4,0.5,0.7,1,1.1,1.5c0.1,0.1,0.2,0.3,0.3,0.3
				c0.1,0.1,0.1,0.1,0.2,0.2c0.3,0.4,0.7,0.7,1.1,1c0.3,0.2,0.5,0.3,0.8,0.5c0.4,0.2,0.7,0.4,1.1,0.6c0.2,0.1,0.4,0.2,0.6,0.2
				c0.4,0.2,0.7,0.4,1.1,0.5c0.4,0.2,0.8,0.3,1.2,0.4c-0.2-0.5-0.5-0.7-0.8-1.1c-0.1-0.1-0.2-0.2-0.2-0.3c-0.1-0.1-0.2-0.2-0.3-0.3
				c-0.1-0.1-0.1-0.2-0.1-0.3c-0.6-1-1.1-2-1.7-2.9c-0.2-0.3-0.5-0.7-0.7-1c-0.3-0.3-0.5-0.6-0.9-0.8c-0.8-0.6-1.8-1-2.8-1.4
				c-0.2-0.1-0.6-0.3-0.7-0.2c-0.2,0.2-0.6,0.5-0.9,0.7c-0.1,0.1-0.2,0.2-0.2,0.3C59.5,63.8,59.8,64,60,64.2 M59.3,28
				c0,0.1,0.3,0.2,0.4,0.3c0.3,0.3,0.5,0.4,0.8,0.7c0.1,0.1,0.2,0.3,0.4,0.3c0.3-0.4,0.5-0.8,0.9-1.2c0.1-0.1,0.2-0.2,0.3-0.3
				c0.3-0.3,0.6-0.5,1-0.7c0.2-0.1,0.5-0.3,0.7-0.4c0.2-0.1,0.5-0.2,0.7-0.3c0.2-0.1,0.5-0.2,0.7-0.3c0.5-0.2,0.9-0.5,1.4-0.7
				c0.5-0.2,0.9-0.5,1.3-0.8c0.4-0.3,0.8-0.6,1.1-1c0.3-0.3,0.7-0.7,1-1.1c0.3-0.5,0.7-1.1,0.9-1.7c0.1-0.4,0.2-0.8,0.3-1.2
				c0.1-0.4,0.2-0.9,0.3-1.3c0-0.1,0.1-0.4-0.1-0.4h0c-0.3,0.2-0.6,0.4-0.9,0.6c-0.5,0.4-1.1,0.8-1.7,1.1c-1.4,0.9-3.3,1.1-5.1,1.9
				c-0.6,0.3-1.2,0.6-1.7,1c-0.3,0.2-0.5,0.4-0.7,0.7c-0.2,0.3-0.5,0.5-0.6,0.8c-0.6,1-1.2,2-1.4,3.4C59.3,27.6,59.3,27.9,59.3,28
				 M55.1,25.4c0.2,0.2,0.6,0.3,0.9,0.5c0.2,0.1,0.5,0.4,0.7,0.4c0.1,0,0.2-0.2,0.3-0.3c0.3-0.4,0.6-0.7,0.8-1.1
				c0.4-0.5,0.6-1.1,0.9-1.7c0.3-0.6,0.4-1.3,0.5-2.1c0.1-0.8,0.2-1.6,0.2-2.4c0-0.4-0.1-0.8-0.2-1.2c-0.1-0.4-0.1-0.8-0.3-1.1h0
				c-0.2,0.3-0.3,0.7-0.4,1.1c-0.1,0.4-0.2,0.7-0.3,1.1c-0.1,0.3-0.2,0.7-0.3,1.1c-0.2,0.6-0.5,1-0.8,1.4c-0.2,0.4-0.5,0.6-0.8,0.9
				c-0.1,0.2-0.3,0.3-0.4,0.5c-0.1,0.1-0.1,0.3-0.2,0.5c-0.1,0.1-0.2,0.3-0.3,0.5C55.1,23.8,55.1,24.6,55.1,25.4 M50.3,23.7
				c0.4,0.2,0.8,0.2,1.3,0.4c0.3,0.1,0.6,0.2,1,0.3c0.2,0,0.2,0.1,0.3,0c0.1,0,0.2-0.4,0.3-0.5c0.1-0.2,0.1-0.4,0.2-0.6
				c0.1-0.3,0.4-0.5,0.6-0.8c0.1-0.1,0.1-0.2,0.1-0.2c0.1-0.2,0.3-0.4,0.5-0.6c0.1-0.1,0.2-0.2,0.3-0.4c0.1-0.1,0.2-0.3,0.3-0.4
				c0.2-0.3,0.4-0.5,0.6-0.8c0.1-0.1,0.2-0.3,0.3-0.4c0.1-0.1,0.1-0.2,0.2-0.3c0,0,0.1,0,0.1-0.1c0.2-0.3,0.4-0.6,0.5-0.9
				c0.5-0.8,1-1.6,1.2-2.8c0.1-0.7,0.2-1.3,0.2-2.1c0-0.4,0-0.7,0-1.1c0-0.2-0.1-0.4-0.1-0.6c-0.1-0.7-0.2-1.4-0.4-2c0,0,0,0,0,0
				c0,0,0,0-0.1,0c-0.1,0.2-0.2,0.4-0.3,0.5c-0.1,0.2-0.2,0.4-0.2,0.6c-0.5,1.1-1.1,2.1-1.9,2.9c-0.5,0.6-1,1.1-1.6,1.6
				c-0.1,0.1-0.3,0.2-0.4,0.4c-0.4,0.4-0.7,0.9-1.1,1.3c-0.2,0.3-0.4,0.6-0.6,1c-0.2,0.3-0.4,0.7-0.6,1c-0.1,0.2-0.2,0.5-0.3,0.7
				c-0.2,0.4-0.3,0.8-0.3,1.4C50.3,22.2,50.2,22.9,50.3,23.7 M45.7,22.6c0.1,0.2,0.1,0.5,0.3,0.7c0.5,0,1,0.1,1.5,0
				c0-0.7,0.2-1.1,0.3-1.6c0.1-0.2,0.1-0.4,0.2-0.5c0.1-0.2,0.2-0.4,0.2-0.5c0-0.1,0-0.3,0.1-0.5c0-0.2,0-0.3,0.1-0.5
				c0-0.3,0.1-0.7,0.1-1c0-0.1,0-0.2,0-0.3c0-0.2,0-0.5,0-0.7c0-0.2-0.1-0.3-0.1-0.5c0-0.2-0.1-0.3-0.1-0.5c-0.1-0.3-0.1-0.7-0.2-1
				c0-0.2-0.1-0.3-0.2-0.5c-0.2-0.5-0.3-1-0.5-1.5c-0.1-0.3-0.3-0.6-0.5-0.9c-0.2-0.3-0.3-0.6-0.5-0.8c0,0,0,0,0,0
				c0,0-0.1,0-0.1,0.1c0,0.3,0,0.7,0,1c0,0.3,0,0.7-0.1,1c-0.1,0.6-0.1,1.3-0.3,1.9c-0.1,0.6-0.2,1.2-0.3,1.8
				c-0.1,0.3-0.1,0.6-0.2,0.9c-0.1,0.3-0.2,0.6-0.2,0.9c-0.1,0.7,0,1.1,0.1,1.7C45.4,21.6,45.5,22.1,45.7,22.6 M41,22.2
				c0.2,0.5,0.4,0.9,0.8,1.3c0.4,0,0.7-0.1,1.1-0.1c0.4,0,0.8,0,1.1-0.1c-0.3-0.9-0.5-2-0.3-3.1c0-0.2,0-0.3,0-0.5
				c0-0.2,0.1-0.5,0.2-0.7c0.1-0.5,0.2-1,0.4-1.4c0.1-0.2,0.2-0.5,0.2-0.7c0.1-0.6,0.3-1.2,0.5-1.8c0.1-0.4,0.2-0.8,0.2-1.2
				c0.1-0.7,0-1.1-0.1-1.6c-0.2-0.8-0.4-1.6-0.7-2.3c-0.2-0.4-0.4-0.8-0.6-1.3c-0.1-0.2-0.2-0.4-0.4-0.6c-0.1-0.2-0.3-0.5-0.5-0.5
				c-0.1,0.2-0.1,0.5-0.2,0.8c0,0.2-0.1,0.4-0.1,0.6c-0.2,1.3-0.7,2.3-1.1,3.5c-0.3,0.8-0.6,1.5-0.8,2.2c-0.2,0.8-0.4,1.7-0.5,2.6
				C39.9,19.1,40.4,20.8,41,22.2 M32.8,14.6C32.9,14.6,32.8,14.6,32.8,14.6c0,0.3,0.1,0.6,0.2,0.8c0.2,0.7,0.6,1.4,0.8,2.1
				c0.1,0.5,0.2,1.1,0.3,1.6c0.1,0.7,0.3,1.4,0.5,2c0.1,0.3,0.2,0.5,0.3,0.8c0.1,0.3,0.2,0.5,0.4,0.7c0.2,0.3,0.4,0.5,0.7,0.8
				c0.3,0.3,0.6,0.5,1,0.8c0.2,0.1,0.4,0.3,0.6,0.3c0.2,0,0.4-0.1,0.6-0.2c0.2-0.1,0.5-0.1,0.6-0.3c0-0.1-0.1-0.4-0.1-0.6
				c-0.1-0.4-0.1-0.8-0.2-1.2c0-0.2,0-0.4-0.1-0.6c0-0.2-0.1-0.4-0.2-0.6c-0.1-0.2-0.1-0.4-0.2-0.6c0-0.1-0.1-0.2-0.2-0.4
				c-0.1-0.3-0.3-0.5-0.4-0.8c-0.1-0.1-0.1-0.3-0.2-0.4c-0.2-0.3-0.3-0.5-0.5-0.8c-0.5-0.7-1.1-1.4-1.8-2c-0.2-0.2-0.4-0.4-0.7-0.6
				c-0.2-0.1-0.4-0.3-0.6-0.5c0,0-0.1,0-0.1-0.1C33.4,14.9,33.1,14.6,32.8,14.6C32.9,14.6,32.9,14.6,32.8,14.6 M27.1,12
				c0.4,0.7,0.7,1.4,1,2.1c0.2,0.5,0.4,1,0.5,1.6c0.1,0.9,0.1,1.9,0.2,2.7c0.1,0.5,0.1,1,0.2,1.5c0.1,0.2,0.1,0.5,0.2,0.7
				c0.2,0.9,0.6,1.8,1.1,2.5c0.3,0.5,0.7,1,1.2,1.5c0.4,0.5,0.8,0.8,1.4,1.2c0.2,0.2,0.8,0.6,1.1,0.6c0.2,0,0.3-0.1,0.5-0.2
				c0.2-0.1,0.3-0.2,0.4-0.3c0.1-0.1,0.3-0.1,0.5-0.2c0.1-0.1,0.4-0.2,0.4-0.3c0-0.1-0.2-0.3-0.3-0.4c-0.3-0.4-0.6-0.8-0.8-1.2
				c-0.2-0.4-0.3-0.7-0.4-1.1c-0.1-0.4-0.2-0.8-0.3-1.2c-0.1-0.4-0.1-0.8-0.2-1.3c0-0.2-0.1-0.4-0.1-0.6c0-0.1-0.1-0.2-0.1-0.3
				c0-0.1,0-0.2,0-0.3c0-0.1-0.1-0.1-0.1-0.2c-0.4-1.2-0.9-2.2-1.4-3.2c-0.1-0.2-0.2-0.3-0.3-0.5c-0.1-0.1-0.2-0.2-0.3-0.3
				c-0.1-0.1-0.2-0.2-0.2-0.3c-0.7-0.8-1.5-1.5-2.3-2.1c-0.2-0.2-0.4-0.3-0.7-0.5c-0.4-0.3-1-0.7-1.4-0.8c0,0,0,0,0,0.1
				C26.9,11.5,27,11.7,27.1,12 M26.2,50.1c0.1,0.3,0.2,0.6,0.3,0.8c0.1,0.3,0.2,0.6,0.3,0.8c0.2,0.5,0.4,1.1,0.6,1.6
				c0.2,0.5,0.5,1,0.8,1.5c0.4,0.7,0.8,1.4,1.3,2c0.2,0.2,0.3,0.4,0.5,0.6c0.3,0.4,0.7,0.8,1,1.2c0.4,0.5,0.9,1,1.4,1.4
				c0.1,0.1,0.2,0.2,0.3,0.3c0.1,0.1,0.2,0.2,0.3,0.3c0.1,0.1,0.2,0.2,0.3,0.3c0.7,0.5,1.2,1,1.9,1.4c0.2,0.1,0.5,0.3,0.7,0.4
				c0.9,0.5,1.9,1,3,1.5c1.1,0.4,2.2,0.8,3.4,1c1.2,0.2,2.6,0.4,3.9,0.4c0.7,0,1.4,0,2.1-0.1c0.3,0,0.6-0.1,0.9-0.1
				c0.3,0,0.6-0.1,1-0.1c1.9-0.3,3.6-0.9,5.1-1.6c1-0.5,1.9-1,2.8-1.6c0.2-0.2,0.4-0.3,0.6-0.5c0.2-0.2,0.4-0.3,0.6-0.5
				c0.8-0.7,1.6-1.4,2.3-2.2c0.3-0.4,0.7-0.8,1-1.2c0.5-0.6,0.9-1.3,1.3-2c0.4-0.7,0.8-1.5,1.1-2.2c0.5-1.2,0.9-2.5,1.1-3.9
				c0-0.2,0-0.3,0.1-0.5c0-0.3,0.1-0.6,0.2-0.9c0-0.1,0-0.2,0-0.2c0-0.2,0-0.5,0-0.8c0.1-1.8-0.1-3.5-0.4-5.1
				c-0.5-2.4-1.4-4.5-2.5-6.3c-0.6-0.9-1.1-1.8-1.8-2.6c-0.3-0.4-0.7-0.8-1-1.2c-0.4-0.4-0.8-0.7-1.1-1.1c-1.2-0.9-2.4-1.9-3.7-2.6
				c-0.3-0.1-0.6-0.3-0.8-0.4c-1.4-0.7-2.9-1.3-4.6-1.7c-0.3-0.1-0.7-0.2-1-0.2c-0.2,0-0.4,0-0.6-0.1c-0.2,0-0.4-0.1-0.5-0.1
				c-0.6-0.1-1.1-0.1-1.7-0.2c-0.4-0.1-0.8,0-1.2,0c-0.2,0-0.4,0-0.6,0c-0.3,0-0.6,0.1-0.8,0.1c-0.1,0-0.2,0-0.2,0
				c-0.3,0-0.7,0-1,0.1c-0.1,0-0.1,0.1-0.2,0.1c-0.4,0.1-0.8,0.1-1.2,0.2c-0.2,0-0.3,0.1-0.5,0.1c-0.3,0.1-0.6,0.2-0.8,0.3
				c-0.3,0.1-0.6,0.1-0.9,0.2c-1.1,0.4-2.1,0.8-3.1,1.3c-0.1,0.1-0.2,0.2-0.3,0.2c-0.1,0.1-0.2,0.1-0.4,0.2
				c-0.2,0.1-0.5,0.3-0.7,0.4c-0.3,0.2-0.6,0.4-0.8,0.6c-0.2,0.1-0.3,0.2-0.5,0.3c-0.8,0.6-1.7,1.3-2.4,2.1
				c-0.1,0.1-0.1,0.2-0.2,0.3c-0.1,0.1-0.2,0.2-0.3,0.4c-0.1,0.1-0.2,0.1-0.2,0.2c-0.7,0.9-1.4,1.9-2,3c-0.5,1-1,2-1.4,3
				c-0.4,0.9-0.6,2-0.8,3.1c0,0.2,0,0.3-0.1,0.5c0,0.1-0.1,0.3-0.1,0.4c0,0.2,0,0.4,0,0.5c-0.2,1.7-0.1,3.7,0.2,5.2
				C26,48.9,26.1,49.5,26.2,50.1 M22,21.5c0.1,0.3,0.3,0.5,0.5,0.8c0.1,0.2,0.3,0.4,0.4,0.6c0.5,0.8,0.9,1.7,1.3,2.5
				c0.1,0.2,0.3,0.4,0.4,0.6c0.1,0.2,0.2,0.4,0.4,0.6c0.1,0.2,0.3,0.3,0.4,0.5c0.3,0.3,0.6,0.5,0.9,0.8c0.5,0.3,1,0.6,1.5,0.9
				c0.5,0.2,1.1,0.5,1.7,0.7c0.2,0.1,0.5,0.2,0.6,0.2c0.2,0,0.4-0.2,0.5-0.3c0.1-0.1,0.4-0.3,0.5-0.4c0-0.1-0.3-0.4-0.4-0.5
				c-0.6-0.7-1-1.7-1.5-2.4c-0.2-0.3-0.4-0.5-0.6-0.8c-0.1-0.2-0.2-0.3-0.4-0.5c-0.1-0.1-0.2-0.1-0.2-0.2c-0.3-0.3-0.5-0.4-0.8-0.7
				c-0.2-0.2-0.4-0.3-0.6-0.4c-0.2-0.1-0.5-0.2-0.7-0.4c-0.7-0.4-1.3-0.7-2.1-1c-0.1,0-0.1-0.1-0.2-0.1C23,21.7,22.4,21.5,22,21.5
				C22,21.4,22,21.5,22,21.5 M17.1,22.4c0.6,0.6,1,1.5,1.4,2.3c0.3,0.9,0.6,1.8,1,2.7c0.1,0.4,0.4,0.7,0.6,1c0,0,0,0.1,0.1,0.2
				c0.1,0.2,0.3,0.3,0.4,0.5c0.1,0.2,0.3,0.4,0.4,0.5c0.1,0.1,0.2,0.2,0.3,0.3c0.3,0.3,0.7,0.5,1,0.8c0.5,0.3,0.9,0.7,1.4,1
				c0.8,0.4,2,0.8,3.1,1.1c0.2,0,0.4,0.1,0.5,0.1c0.1,0,0.3-0.3,0.4-0.4c0.3-0.3,0.5-0.6,0.7-0.9c0.1-0.1,0.3-0.3,0.3-0.5
				C28.5,31,28.3,31,28.2,31c-0.2-0.1-0.4-0.2-0.6-0.3c-0.5-0.3-1-0.6-1.4-1c-0.5-0.4-0.9-1-1.3-1.6c-0.1-0.2-0.2-0.4-0.3-0.6
				c-0.5-0.8-0.9-1.6-1.4-2.4c-0.2-0.4-0.5-0.8-0.8-1.1c-0.3-0.4-0.6-0.7-0.9-1c-0.2-0.2-0.4-0.3-0.6-0.5c-0.2-0.2-0.4-0.3-0.6-0.4
				c-0.9-0.5-1.9-0.9-3-1.2c-0.3-0.1-0.6-0.1-0.9-0.2c-0.3-0.1-0.6-0.1-0.9-0.2c0,0-0.1,0-0.1,0c0,0.2,0.4,0.6,0.6,0.8
				c0.2,0.3,0.4,0.5,0.7,0.7C16.8,22.1,17,22.3,17.1,22.4 M13.8,32.8c0.3,0.2,0.7,0.3,1,0.5c0.2,0.1,0.4,0.1,0.5,0.2
				c0.3,0.1,0.5,0.4,0.8,0.5c0.5,0.4,1,0.7,1.5,1.1c0.1,0.1,0.2,0.2,0.4,0.3c0.1,0.1,0.3,0.2,0.4,0.3c0.5,0.4,1,0.7,1.6,1
				c0.6,0.3,1.3,0.4,2.1,0.5c0.2,0,0.4,0,0.5,0c0.5,0,1.3-0.2,2-0.2c0.2,0,0.3,0.1,0.4,0c0.1-0.1,0.2-0.3,0.3-0.5
				c0.1-0.2,0.2-0.4,0.2-0.6c-0.1-0.2-0.4-0.2-0.5-0.2c-0.2-0.1-0.3-0.2-0.5-0.3c-0.1,0-0.1-0.1-0.2-0.1c-0.2-0.1-0.5-0.2-0.7-0.4
				c-0.1-0.1-0.1-0.1-0.2-0.2c-0.1-0.1-0.1-0.1-0.2-0.2c-0.4-0.3-0.8-0.7-1.3-1c-0.4-0.3-0.9-0.6-1.4-0.9c-0.2-0.1-0.3-0.2-0.5-0.3
				c-0.1-0.1-0.3-0.1-0.5-0.1c-0.3-0.1-0.6-0.2-0.9-0.3c-0.3-0.1-0.6-0.2-1.1-0.2c-0.6-0.1-1.3,0-1.8,0.1c-0.1,0-0.2,0-0.3,0
				c-0.1,0-0.2,0.1-0.3,0.1c-0.2,0.1-0.4,0.1-0.6,0.2c-0.1,0-0.2,0.1-0.3,0.1c-0.4,0.1-0.8,0.2-1.1,0.4
				C13.4,32.7,13.6,32.7,13.8,32.8 M9.3,49.8c1.1,0.4,2.2,0.8,3.3,1.2c0.2,0.1,0.5,0.2,0.7,0.2c1.4,0.4,3,0.7,4.9,0.5
				c0.3,0,0.7-0.1,1-0.2c0.3-0.1,0.7-0.1,1-0.2c0.7-0.2,1.4-0.4,2-0.7c0.5-0.3,0.9-0.5,1.4-0.9c0-0.3,0-0.7,0-1
				c0-0.1-0.1-0.2-0.1-0.3c0-0.4,0-0.8-0.1-1.1c-0.2,0-0.4,0.1-0.6,0.2c-0.3,0.1-0.5,0.2-0.8,0.2c-0.1,0-0.3,0.1-0.5,0.2
				c-0.8,0.2-1.7,0.2-2.6,0c-0.6-0.1-1.2-0.2-1.7-0.4c-0.1,0-0.2-0.1-0.4-0.1c-0.4-0.1-0.8-0.2-1.2-0.4c-0.3-0.1-0.5-0.2-0.8-0.2
				c-0.5-0.1-1.2-0.2-1.8-0.2c-0.7,0-1.4,0-1.9,0.1c-0.1,0-0.2,0-0.3,0.1c-0.4,0.1-0.7,0.2-1.1,0.3c-0.4,0.2-0.8,0.4-1.1,0.6
				c-0.4,0.2-0.8,0.4-1.1,0.6c-0.1,0.1-0.3,0.1-0.4,0.2c-0.1,0.1-0.2,0.1-0.4,0.2c-0.1,0.1-0.3,0.1-0.3,0.3
				C7.4,49.3,8.4,49.4,9.3,49.8 M12.1,45.5c0.9,0,1.6,0.1,2.3,0.3c1.1,0.3,2.2,0.6,3.3,0.8c0.3,0,0.5,0,0.8,0.1c0.1,0,0.2,0,0.3,0
				c0.1,0,0.2,0,0.2,0c0.1,0,0.2,0,0.3,0c0.2,0,0.4-0.1,0.7-0.1c0.7-0.1,1.3-0.3,1.9-0.6c0.3-0.1,0.5-0.3,0.8-0.5
				c0.3-0.1,0.6-0.2,0.8-0.4c0.1-0.3,0.1-0.8,0-1.1c-0.4,0-0.8,0.1-1.3,0.1c-0.5,0-1-0.1-1.4-0.2c-0.5-0.1-1.1-0.2-1.6-0.2
				c-0.6,0-1.2,0-1.7,0c-0.7,0-1.3,0.1-1.8,0.2c-0.9,0.1-1.6,0.4-2.4,0.7c-0.6,0.2-1.2,0.6-1.7,0.8c-0.1,0.1-0.2,0.1-0.3,0.2
				C11.5,45.5,11.8,45.5,12.1,45.5 M8.2,34.6c0.9,0.6,1.9,1.1,2.8,1.7c0.8,0.5,1.5,1.1,2.2,1.6c0.4,0.3,0.8,0.5,1.1,0.8
				c0.1,0.1,0.2,0.2,0.4,0.3c0.8,0.5,1.5,1,2.3,1.5c0.5,0.3,1.1,0.6,1.8,0.8c0.5,0.1,1,0.3,1.6,0.3c0.2,0,0.4,0,0.6,0
				c0.2,0,0.5-0.1,0.7-0.1c0.8-0.1,1.4-0.2,2.1-0.4c0.1-0.2,0.2-0.5,0.2-0.8c0.1-0.3,0.2-0.6,0.2-0.9c-0.2-0.1-0.4-0.1-0.5-0.1
				c-0.2,0-0.4-0.1-0.5-0.1c-0.4-0.1-0.7-0.1-1.1-0.3c-0.3-0.1-0.6-0.3-0.9-0.4c-0.3-0.1-0.6-0.2-0.9-0.4c-0.1,0-0.1-0.1-0.2-0.1
				c-0.1,0-0.1-0.1-0.2-0.1c-0.1-0.1-0.3-0.2-0.4-0.3c-0.3-0.2-0.6-0.3-0.8-0.5c-0.5-0.4-1-0.8-1.5-1.2c-0.5-0.4-1-0.8-1.5-1.1
				c-0.3-0.2-0.6-0.3-0.9-0.5c-0.4-0.2-0.8-0.4-1.2-0.5c-0.1,0-0.2-0.1-0.3-0.1c-0.3-0.1-0.8,0-1.2,0c-0.1,0-0.2,0-0.3,0
				c-0.1,0-0.2,0.1-0.3,0.1c-0.4,0-0.7,0.1-1,0.1c-0.8,0.3-1.7,0.4-2.6,0.7C7.8,34.5,8,34.5,8.2,34.6"/>
			<path fill="#FFFFFF" d="M15.5,20.4c0.3,0,0.6,0.1,0.9,0.2c0.3,0.1,0.6,0.1,0.9,0.2c1.1,0.3,2.1,0.7,3,1.2
				c0.2,0.1,0.4,0.3,0.6,0.5c0.2,0.2,0.4,0.3,0.6,0.5c0.3,0.3,0.6,0.7,0.9,1c0.3,0.4,0.5,0.8,0.8,1.1c0.5,0.8,0.9,1.6,1.4,2.4
				c0.1,0.2,0.2,0.4,0.3,0.6c0.4,0.6,0.8,1.1,1.3,1.6c0.4,0.4,0.9,0.7,1.4,1c0.2,0.1,0.4,0.2,0.6,0.3c0.1,0,0.2,0,0.3,0.2
				c0,0.2-0.2,0.3-0.3,0.5c-0.2,0.3-0.4,0.5-0.7,0.9c-0.1,0.1-0.2,0.4-0.4,0.4c-0.1,0-0.3-0.1-0.5-0.1c-1.1-0.3-2.2-0.6-3.1-1.1
				c-0.5-0.3-0.9-0.6-1.4-1c-0.3-0.2-0.7-0.5-1-0.8c-0.1-0.1-0.2-0.2-0.3-0.3c-0.1-0.2-0.2-0.4-0.4-0.5c-0.1-0.2-0.3-0.3-0.4-0.5
				c0,0,0-0.1-0.1-0.2c-0.2-0.3-0.4-0.6-0.6-1c-0.4-0.9-0.7-1.8-1-2.7c-0.3-0.8-0.8-1.7-1.4-2.3c-0.1-0.2-0.3-0.3-0.4-0.5
				c-0.2-0.2-0.4-0.5-0.7-0.7C15.9,21,15.4,20.6,15.5,20.4C15.4,20.4,15.5,20.4,15.5,20.4"/>
			<path fill="#FFFFFF" d="M12.1,33.5c0.4,0,0.9,0,1.2,0c0.1,0,0.2,0.1,0.3,0.1c0.4,0.1,0.8,0.3,1.2,0.5c0.3,0.1,0.6,0.3,0.9,0.5
				c0.5,0.3,1,0.7,1.5,1.1c0.5,0.4,1,0.8,1.5,1.2c0.2,0.2,0.5,0.3,0.8,0.5c0.1,0.1,0.3,0.2,0.4,0.3c0.1,0,0.1,0.1,0.2,0.1
				c0.1,0,0.1,0.1,0.2,0.1c0.3,0.2,0.6,0.3,0.9,0.4c0.3,0.1,0.6,0.3,0.9,0.4c0.3,0.1,0.7,0.2,1.1,0.3c0.2,0,0.3,0.1,0.5,0.1
				c0.2,0,0.4,0,0.5,0.1c0,0.3-0.1,0.6-0.2,0.9c-0.1,0.3-0.1,0.6-0.2,0.8c-0.6,0.2-1.3,0.3-2.1,0.4c-0.2,0-0.5,0.1-0.7,0.1
				c-0.2,0-0.4,0-0.6,0c-0.5,0-1.1-0.2-1.6-0.3c-0.7-0.2-1.2-0.5-1.8-0.8c-0.8-0.4-1.6-1-2.3-1.5c-0.1-0.1-0.2-0.2-0.4-0.3
				c-0.4-0.3-0.7-0.5-1.1-0.8c-0.7-0.5-1.4-1.1-2.2-1.6c-0.9-0.6-1.9-1.1-2.8-1.7c-0.1-0.1-0.3-0.1-0.3-0.3c0.8-0.2,1.8-0.4,2.6-0.7
				c0.3,0,0.6-0.1,1-0.1c0.1,0,0.2-0.1,0.3-0.1C11.9,33.5,12,33.5,12.1,33.5"/>
		</g>
	</g>
	<g>
		<path fill="#FFFFFF" d="M116.1,19.4c-2.4-0.9-5-1.5-7.8-1.5c-5.7,0-9.6,3.6-9.6,9.8c0,5.9,3.2,9.5,8.9,9.5c1.2,0,2.3-0.2,3.3-0.5
			v-9.9h6.1v14.1c-2.9,1.2-6.5,1.8-10.1,1.8c-9.4,0-14.8-5.5-14.8-14.4c0-9.2,6.3-15.7,16.6-15.7c2.9,0,5.9,0.5,8.3,1.3L116.1,19.4z
			"/>
		<path fill="#FFFFFF" d="M134.6,26.1c-4-0.8-6,1.6-6,7.3v8.8h-6V20.7h5.6c0,1,0,2.7-0.3,4.1h0.1c1-2.6,3.1-4.9,7.1-4.6L134.6,26.1z
			"/>
		<path fill="#FFFFFF" d="M155.9,32.6h-13.1c0,3.6,1.9,5.4,5.7,5.4c2.1,0,4.4-0.4,6.3-1.3l0.6,4.6c-2.4,0.9-5.1,1.4-7.8,1.4
			c-7,0-10.8-3.4-10.8-11c0-6.6,3.6-11.4,10.2-11.4c6.4,0,9.2,4.3,9.2,9.8C156.1,30.8,156,31.6,155.9,32.6z M150.1,28.6
			c0.1-2.6-1.2-4.1-3.4-4.1s-3.7,1.6-3.9,4.1H150.1z"/>
		<path fill="#FFFFFF" d="M178.2,32.6h-13.1c0,3.6,1.9,5.4,5.7,5.4c2.1,0,4.4-0.4,6.3-1.3l0.6,4.6c-2.4,0.9-5.1,1.4-7.8,1.4
			c-7,0-10.8-3.4-10.8-11c0-6.6,3.6-11.4,10.2-11.4c6.4,0,9.2,4.3,9.2,9.8C178.4,30.8,178.4,31.6,178.2,32.6z M172.5,28.6
			c0.1-2.6-1.2-4.1-3.4-4.1c-2.2,0-3.7,1.6-3.9,4.1H172.5z"/>
		<path fill="#FFFFFF" d="M195.9,42.2V28.5c0-2-0.5-3.3-2.4-3.3c-2.6,0-4.7,3.1-4.7,6.6v10.4h-6V20.7h5.6c0,0.9,0,2.6-0.3,3.6l0,0
			c1.3-2.4,3.8-4.2,7.2-4.2c4.9,0,6.4,3.1,6.4,6.9v15.2H195.9z"/>
		<path fill="#FFFFFF" d="M225.2,32.2c-0.6,0-1.1,0-1.8,0v10.1h-6.1V12.9c2.4-0.1,5.1-0.2,8-0.2c7.4,0,11.3,3.3,11.3,9.2
			C236.7,27.6,232.4,32.2,225.2,32.2z M225.2,17.7c-0.6,0-1.2,0-1.8,0V27c0.5,0.1,1,0.1,1.5,0.1c3.3,0,5.5-1.8,5.5-4.9
			C230.4,19.5,228.8,17.7,225.2,17.7z"/>
		<path fill="#FFFFFF" d="M251.2,42.2c0-1.2,0-2.4,0.2-3.5l0,0c-1,2.4-3.6,3.9-6.8,3.9c-4,0-6.2-2.3-6.2-5.8c0-5.2,5.2-7.9,12.3-7.9
			v-1c0-2.1-1-3.1-4.1-3.1c-2,0-4.6,0.7-6.3,1.6l-0.5-5c2.2-0.7,5-1.3,7.8-1.3c7.1,0,9.2,2.9,9.2,7.6v9.1c0,1.7,0,3.6,0.1,5.4H251.2
			z M250.7,32.8c-5.4,0-6.7,1.6-6.7,3.2c0,1.3,0.9,2.1,2.4,2.1c2.6,0,4.2-2.3,4.2-4.8V32.8z"/>
		<path fill="#FFFFFF" d="M274.5,26.1c-4-0.8-6,1.6-6,7.3v8.8h-6V20.7h5.6c0,1,0,2.7-0.3,4.1h0.1c1-2.6,3.1-4.9,7.1-4.6L274.5,26.1z
			"/>
		<path fill="#FFFFFF" d="M291.1,42.1c-1.4,0.3-3.3,0.6-4.8,0.6c-4.9,0-6.4-1.7-6.4-6.8V25.3h-3.5v-4.6h3.5v-6.5l5.9-1.6v8.1h5v4.6
			h-5v9.1c0,2.6,0.6,3.3,2.4,3.3c0.8,0,1.5-0.1,2.3-0.3L291.1,42.1z"/>
		<path fill="#FFFFFF" d="M305.6,43.8c-2.6,6.7-5,9.1-10.5,9.1c-0.9,0-1.8-0.1-2.8-0.3l0.7-5.1c0.8,0.3,1.7,0.4,2.7,0.4
			c1.9,0,2.9-0.9,4.1-4l0.6-1.6l-7.9-21.6h6.6l2.6,7.5c0.7,1.9,1.3,4,1.7,6.1h0c0.5-2,1.3-4.9,2-6.9l2.3-6.6h6.4L305.6,43.8z"/>
	</g>
	<g>
		<path fill="#FFFFFF" d="M102.2,51.3c-0.5-0.2-1-0.2-1.5-0.2c-1.5,0-2.1,0.8-2.1,2.7v0.8h2.9v1.3h-2.9v8.8h-1.7v-8.8h-2.1v-1.3h2.1
			v-0.7c0-2.8,1.4-4.1,3.9-4.1c0.6,0,1.2,0.1,1.8,0.2L102.2,51.3z"/>
		<path fill="#FFFFFF" d="M106.6,64.9c-2.8,0-4.5-1.6-4.5-5.2c0-2.9,1.8-5.3,4.9-5.3c2.5,0,4.5,1.4,4.5,5.1
			C111.5,62.5,109.6,64.9,106.6,64.9z M106.8,55.8c-1.5,0-2.9,1.2-2.9,3.7c0,2.5,1,3.9,2.9,3.9c1.5,0,2.9-1.2,2.9-3.9
			C109.7,57.2,108.7,55.8,106.8,55.8z"/>
		<path fill="#FFFFFF" d="M119.3,56.1c-0.3-0.1-0.6-0.1-0.8-0.1c-1.9,0-2.6,1.7-2.6,4.6v4.1h-1.7V54.6h1.7c0,0.7-0.1,1.6-0.2,2.4
			l0,0c0.5-1.5,1.5-2.7,3.2-2.7c0.2,0,0.5,0,0.7,0.1L119.3,56.1z"/>
		<path fill="#FFFFFF" d="M131.5,64.5c-0.6,0.1-1.4,0.3-2,0.3c-2.1,0-2.7-0.9-2.7-3v-5.9h-2.1v-1.3h2.1v-3.3l1.7-0.5v3.8h2.9v1.3
			h-2.9v5.3c0,1.7,0.3,2.2,1.3,2.2c0.6,0,1-0.1,1.5-0.2L131.5,64.5z"/>
		<path fill="#FFFFFF" d="M140.4,64.7v-6.5c0-1.5-0.4-2.4-1.8-2.4c-1.7,0-2.9,1.7-2.9,4v4.9h-1.7V49.8h1.7v4.8c0,0.7,0,1.5-0.2,2
			l0,0c0.6-1.4,1.8-2.3,3.5-2.3c2.3,0,3,1.4,3,3.2v7.1H140.4z"/>
		<path fill="#FFFFFF" d="M153.1,59.5h-6.6c-0.1,2.8,1,3.9,3.1,3.9c1.1,0,2.2-0.2,3-0.6l0.3,1.4c-1,0.4-2.2,0.7-3.6,0.7
			c-3,0-4.7-1.6-4.6-5.2c0-3,1.7-5.3,4.5-5.3c2.8,0,3.9,2,3.9,4.3C153.2,58.9,153.2,59.3,153.1,59.5z M151.5,58.3
			c0.1-1.6-0.9-2.6-2.3-2.6c-1.4,0-2.3,1-2.5,2.6H151.5z"/>
		<path fill="#FFFFFF" d="M167.2,64.1c-0.9,0.5-2.1,0.8-3.3,0.8c-2.4,0-4.4-1.1-4.4-4.9c0-3.3,1.6-5.5,4.8-5.5c1,0,1.8,0.2,2.7,0.5
			l-0.4,1.4c-0.8-0.4-1.6-0.6-2.4-0.6c-2,0-2.9,1.4-2.9,3.9c0,2,0.6,3.6,2.8,3.6c1,0,1.9-0.2,2.6-0.6L167.2,64.1z"/>
		<path fill="#FFFFFF" d="M172.9,64.9c-2.8,0-4.5-1.6-4.5-5.2c0-2.9,1.8-5.3,4.9-5.3c2.5,0,4.5,1.4,4.5,5.1
			C177.8,62.5,175.9,64.9,172.9,64.9z M173.1,55.8c-1.5,0-2.9,1.2-2.9,3.7c0,2.5,1,3.9,2.9,3.9c1.5,0,2.9-1.2,2.9-3.9
			C176,57.2,175.1,55.8,173.1,55.8z"/>
		<path fill="#FFFFFF" d="M193,64.7v-6.5c0-1.4-0.3-2.4-1.7-2.4c-1.5,0-2.9,1.6-2.9,4.1v4.8h-1.7v-6.5c0-1.3-0.2-2.4-1.7-2.4
			c-1.6,0-2.9,1.7-2.9,4.1v4.8h-1.7V54.6h1.7c0,0.6,0,1.5-0.2,2.2l0,0c0.6-1.5,1.9-2.4,3.5-2.4c2.2,0,2.7,1.5,2.8,2.3
			c0.4-1,1.5-2.3,3.5-2.3c1.9,0,3,1,3,3.3v7H193z"/>
		<path fill="#FFFFFF" d="M210.9,64.7v-6.5c0-1.4-0.3-2.4-1.7-2.4c-1.5,0-2.9,1.6-2.9,4.1v4.8h-1.7v-6.5c0-1.3-0.2-2.4-1.7-2.4
			c-1.6,0-2.9,1.7-2.9,4.1v4.8h-1.7V54.6h1.7c0,0.6,0,1.5-0.2,2.2l0,0c0.6-1.5,1.9-2.4,3.5-2.4c2.2,0,2.7,1.5,2.8,2.3
			c0.4-1,1.5-2.3,3.5-2.3c1.9,0,3,1,3,3.3v7H210.9z"/>
		<path fill="#FFFFFF" d="M219.7,64.9c-2.8,0-4.5-1.6-4.5-5.2c0-2.9,1.8-5.3,4.9-5.3c2.5,0,4.5,1.4,4.5,5.1
			C224.6,62.5,222.7,64.9,219.7,64.9z M219.9,55.8c-1.5,0-2.9,1.2-2.9,3.7c0,2.5,1,3.9,2.9,3.9c1.5,0,2.9-1.2,2.9-3.9
			C222.8,57.2,221.9,55.8,219.9,55.8z"/>
		<path fill="#FFFFFF" d="M233.7,64.7v-6.5c0-1.5-0.4-2.4-1.8-2.4c-1.7,0-2.9,1.7-2.9,4v4.9h-1.7V54.6h1.7c0,0.6,0,1.6-0.2,2.2l0,0
			c0.6-1.4,1.8-2.4,3.6-2.4c2.3,0,3,1.4,3,3.2v7.1H233.7z"/>
		<path fill="#FFFFFF" d="M250.4,55.9c0.5,0.5,0.7,1.2,0.7,2c0,2-1.6,3.7-4.3,3.7c-0.4,0-0.8,0-1.1-0.1c-0.4,0.3-0.6,0.6-0.6,1
			c0,0.5,0.5,0.7,1.6,0.7l1.8,0.1c2.4,0.1,3.5,1.2,3.5,2.9c0,2.1-1.9,3.7-5.4,3.7c-2.4,0-4.2-1-4.2-2.9c0-1.1,0.8-2.2,1.9-2.7
			c-0.7-0.3-1-0.7-1-1.4c0-0.7,0.5-1.3,1.2-1.8c-1-0.5-1.5-1.5-1.5-2.8c0-2.1,1.5-3.8,4.2-3.8c0.5,0,0.9,0.1,1.4,0.2h3.5v1.3H250.4z
			 M248.2,64.8l-2.5-0.1c-0.8,0.5-1.5,1.3-1.5,2.1c0,1.1,1.1,1.8,2.8,1.8c2.4,0,3.4-1.1,3.4-2.1C250.3,65.5,249.8,64.9,248.2,64.8z
			 M247,55.7c-1.5,0-2.4,1.1-2.4,2.4c0,1.4,0.9,2.3,2.4,2.3c1.5,0,2.5-0.9,2.5-2.3C249.5,56.7,248.7,55.7,247,55.7z"/>
		<path fill="#FFFFFF" d="M258.2,64.9c-2.8,0-4.5-1.6-4.5-5.2c0-2.9,1.8-5.3,4.9-5.3c2.5,0,4.5,1.4,4.5,5.1
			C263.1,62.5,261.2,64.9,258.2,64.9z M258.4,55.8c-1.5,0-2.9,1.2-2.9,3.7c0,2.5,1,3.9,2.9,3.9c1.5,0,2.9-1.2,2.9-3.9
			C261.3,57.2,260.3,55.8,258.4,55.8z"/>
		<path fill="#FFFFFF" d="M269.2,64.9c-2.8,0-4.5-1.6-4.5-5.2c0-2.9,1.8-5.3,4.9-5.3c2.5,0,4.5,1.4,4.5,5.1
			C274.1,62.5,272.2,64.9,269.2,64.9z M269.4,55.8c-1.5,0-2.9,1.2-2.9,3.7c0,2.5,1,3.9,2.9,3.9c1.5,0,2.9-1.2,2.9-3.9
			C272.3,57.2,271.4,55.8,269.4,55.8z"/>
		<path fill="#FFFFFF" d="M282.8,64.7c0-0.6,0-1.5,0.2-2.1l0,0c-0.5,1.4-1.8,2.3-3.4,2.3c-2.5,0-3.7-1.8-3.7-4.8
			c0-3.6,2-5.7,5.2-5.7c0.6,0,1.1,0,1.8,0.1v-4.7h1.7v14.8H282.8z M282.8,56c-0.6-0.2-1.3-0.2-1.8-0.2c-2,0-3.3,1.2-3.3,4.1
			c0,2.2,0.7,3.5,2.3,3.5c1.9,0,2.8-2.2,2.8-4V56z"/>
	</g>
</g>
</svg>
