<?xml version="1.0" encoding="utf-8"?>
<!-- Generator: Adobe Illustrator 18.1.0, SVG Export Plug-In . SVG Version: 6.00 Build 0)  -->
<!DOCTYPE svg PUBLIC "-//W3C//DTD SVG 1.1//EN" "http://www.w3.org/Graphics/SVG/1.1/DTD/svg11.dtd">
<svg version="1.1" id="Layer_1" xmlns="http://www.w3.org/2000/svg" xmlns:xlink="http://www.w3.org/1999/xlink" x="0px" y="0px"
	 viewBox="0 0 200 200" enable-background="new 0 0 200 200" xml:space="preserve">
<path fill="#C0CEAF" d="M165.1,131.1c0.2,0,1-0.1,1.5,0c2.3,0.2,4.6,0.3,6.7,0.7c0.4,0.1,1,0.2,1.4,0.4c1.9,0.5,3.8,1.4,5.1,2.5
	c2.5,2,4.7,4.8,7.2,6.8c1.5,1.2,2.9,2.5,4.5,3.6c1.1,0.8,2.3,1.7,3.5,2.5c0.3,0.2,0.9,0.4,1,0.9c-3.8,1.2-8.3,2.2-13,1.4
	c-0.7-0.1-1.3-0.3-2-0.5c-0.6-0.2-1.3-0.3-1.8-0.6c-0.3-0.1-0.5-0.3-0.8-0.5c-0.2-0.1-0.6-0.2-0.8-0.4s-0.5-0.3-0.7-0.5
	s-0.6-0.2-0.8-0.4c-0.5-0.3-1-0.7-1.5-1c-1.5-1-2.8-2.1-4.2-3.3c-0.4-0.4-0.9-0.8-1.4-1.1s-0.9-0.8-1.3-1.1c-0.7-0.5-1.5-1-2.3-1.4
	c-2-1-4.3-1.8-6.7-2.5c-0.4-0.1-0.9-0.2-1.3-0.5c0.1-0.9,0.6-1.8,1-2.6c0.1-0.3,0.2-0.6,0.4-0.8c0.1-0.2,0.5-0.3,0.9-0.5
	c0.9-0.4,2.2-0.7,3.5-0.9C163.7,131.2,164.5,131.3,165.1,131.1z"/>
<path fill="#C0CEAF" d="M188.9,70.7c0.1,0,0.3-0.1,0.5,0c0.1,0.6-0.5,1-0.8,1.5c-0.9,1.5-1.9,2.9-3.1,4.3c-0.4,0.4-0.7,0.9-1.1,1.4
	c-0.4,0.4-0.8,0.8-1.2,1.3c-0.2,0.2-0.3,0.5-0.5,0.7c-0.2,0.2-0.4,0.4-0.6,0.6c-0.3,0.4-0.7,0.9-1.1,1.3c-0.6,0.7-1.5,1.3-2.2,2
	c-0.2,0.2-0.5,0.5-0.7,0.7s-0.6,0.2-0.9,0.4c-0.3,0.1-0.5,0.4-0.8,0.5c-0.7,0.3-1.6,0.6-2.4,0.9c-0.8,0.3-1.6,0.6-2.5,0.8
	s-1.8,0.5-2.7,0.6c-1.8,0.3-3.7,0.7-5.5,1.1c-1.8,0.3-3.5,0.9-5.1,1.6c-0.7,0.3-1.4,0.9-2.3,0.9c-0.6-0.8-1-1.8-1.4-2.9
	c-0.2-0.4-0.4-1-0.7-1.5c-0.2-0.4-0.7-1-0.7-1.4c0-0.3,0.4-0.7,0.6-1c0.7-0.9,1.5-1.8,2.1-2.8c0.9-0.9,1.8-1.8,2.9-2.7
	c1-0.8,2.2-1.4,3.5-2c2.5-1.2,5.3-2.2,8.4-2.6c1.3-0.1,2.5-0.2,3.9-0.3c1.9-0.1,4-0.5,5.9-0.9C183.4,72.5,186.3,71.6,188.9,70.7z"/>
<path fill="#C0CEAF" d="M172.5,118.1c2.6,0,5.4,0.4,8.1,0.8c2.8,0.4,5.6,0.2,8.6,0.3c0.1,0.2-0.2,0.4-0.4,0.5
	c-0.5,0.4-1.2,0.7-1.8,1.1c-1.6,0.9-3.5,1.8-5.4,2.5c-0.9,0.3-2,0.7-3,0.9c-0.3,0-0.5,0-0.8,0s-0.6,0.3-0.9,0.3
	c-0.3,0-0.7,0-1.1,0.1c-1.5,0.3-3.2,0.6-5,0.7c-0.7,0-1.5,0-2.2,0c-0.8,0-1.7-0.1-2.5-0.1c-0.2,0-0.4-0.1-0.7-0.1
	c-0.4,0-0.8,0-1.2-0.1c-1.1-0.1-2.3-0.3-3.4-0.5c0-1.4,0.2-3,0.4-4.3c0.6-0.4,1.3-0.5,2.1-0.7c1.1-0.3,2.1-0.6,3.4-0.8
	c0.9-0.2,1.8-0.2,2.9-0.3C170.4,118.3,171.5,118.1,172.5,118.1z"/>
<path fill="#C0CEAF" d="M172.6,104.1c1.3-0.1,2.3-0.1,3.7,0c1,0.1,2,0.4,3,0.6c1,0.2,2.1,0.3,3,0.6c3.8,1,7,2.8,11,3.6
	c1,0.2,2,0.3,3.1,0.4c1.1,0,2.3-0.1,3.5,0.1c0,0.4-0.4,0.6-0.6,0.8c-0.2,0.2-0.6,0.4-0.8,0.7c-0.5,0.4-1.1,0.9-1.6,1.4
	c-1.6,1.4-3.8,2.3-6,3.2c-1.8,0.7-3.7,1.2-6.2,1.5c-1.7,0.2-3.5,0.3-5.5,0.3c-0.5,0-1.1,0-1.6,0c-0.7,0-1.3-0.3-2-0.4
	c-0.3,0-0.7-0.1-1.1-0.1c-1.9-0.4-3.6-1.1-5.4-1.7c-0.5-0.1-1-0.4-1.4-0.5c-0.5-0.1-1-0.1-1.6-0.1c-0.6,0-1.1-0.1-1.7,0
	c-1.2,0-2.3,0.6-3.3,0.6c-0.3-1.1-0.1-2.4-0.2-3.8c0-0.5-0.1-1.1-0.1-1.8c0-0.6-0.1-1.4,0-1.8c0.2-0.6,1.7-1.1,2.4-1.4
	c1-0.4,1.7-0.8,2.7-1.1C168.2,104.6,170.4,104.3,172.6,104.1z"/>
<path fill="#C0CEAF" d="M169.9,41.8c0.4,0,0.2,0.8,0.1,1.1c-0.1,1.2-0.4,2.4-0.7,3.4c-0.3,1.2-0.5,2.2-0.9,3.2
	c-0.6,1.6-1.4,3.2-2.3,4.6c-0.7,1-1.7,2-2.6,2.9c-0.9,0.9-1.9,1.8-2.9,2.6c-1,0.8-2.2,1.6-3.4,2.1c-1.2,0.5-2.4,1.2-3.7,1.7
	c-0.6,0.2-1.3,0.5-1.9,0.8c-0.6,0.3-1.2,0.5-1.8,0.8c-0.6,0.3-1.2,0.7-1.8,1.1c-1,0.5-1.8,1.2-2.6,1.9c-0.3,0.3-0.6,0.5-0.9,0.7
	c-0.9,0.9-1.4,2.2-2.2,3.1c-0.5-0.1-0.8-0.5-1.1-0.8c-0.6-0.6-1.3-1.1-2.1-1.7c-0.3-0.2-0.9-0.6-1-0.9c-0.1-0.3,0-1.1,0.1-1.7
	c0.6-3.6,2.1-6.4,3.7-9c0.4-0.7,1-1.4,1.6-2c0.6-0.6,1.2-1.3,1.8-1.8c1.4-1.1,2.9-2,4.6-2.7c4.7-1.9,9.6-2.6,13.3-4.9
	c1.5-0.9,2.9-1.8,4.4-2.9C168.4,43,169.1,42.5,169.9,41.8C169.9,41.8,169.9,41.8,169.9,41.8z"/>
<path fill="#C0CEAF" d="M169.5,52.3c0,1.8-0.3,3.5-0.7,5.1c-0.1,0.5-0.2,1.1-0.3,1.6c-0.3,1.2-1,2.3-1.5,3.5
	c-0.2,0.6-0.5,1.2-0.8,1.7c-0.3,0.5-0.5,1.1-0.8,1.6c-1.2,2.1-2.8,3.9-4.4,5.6c-1,1-2.1,2-3.3,3c-2.4,2-5.6,3.7-8.8,4.9
	c-1.3-1.3-2.3-3-3.6-4.4c1.3-2.6,3.1-4.7,5.3-6.4c2.2-1.7,4.9-2.9,7.2-4.5c4.8-3.1,7.8-7.7,11.5-11.8c0,0,0.1-0.1,0.1-0.1
	C169.4,52.3,169.4,52.3,169.5,52.3z"/>
<path fill="#C0CEAF" d="M159.1,100.7c-0.5-1-0.5-2.3-0.8-3.5c-0.1-0.4-0.3-0.8-0.3-1.1c0.1-0.7,2-1.6,2.6-2c0.5-0.3,0.9-0.5,1.4-0.8
	c0.5-0.3,1-0.5,1.6-0.7c1.2-0.4,2.6-0.5,3.8-0.8c1.3-0.2,2.6-0.5,3.8-0.8c2.2-0.6,4.4-1.9,6.2-3.1c0.5-0.3,0.9-0.6,1.3-0.9
	c0.9-0.6,1.7-1.3,2.6-2c0.5-0.4,0.9-0.7,1.4-1.1c0,0,0.1,0,0.1,0c-0.5,2-1.5,3.9-2.6,5.6c-0.5,0.8-1.1,1.6-1.7,2.4s-1.2,1.5-2,2.1
	c-0.2,0.1-0.4,0.3-0.6,0.4c-0.5,0.4-1,1-1.6,1.4c-0.7,0.6-1.6,1.1-2.4,1.7c-0.8,0.5-1.6,1.1-2.6,1.5c-0.5,0.2-1,0.4-1.5,0.5
	c-0.5,0.1-0.9,0.4-1.4,0.5c-0.4,0.1-1,0.1-1.6,0.2c-0.5,0-1,0.2-1.5,0.2c-0.8,0-1.6,0-2.5,0C160.2,100.6,159.7,100.8,159.1,100.7z"
	/>
<path fill="#C0CEAF" d="M155.3,140.8c1,0,2,0,3,0h0c0.6,0.1,1.2,0.1,1.8,0.2c0.6,0.1,1.1,0.3,1.7,0.4c0.6,0.1,1.2,0.2,1.7,0.4
	c1.1,0.3,2.1,0.7,3,1.2c1.9,0.9,3.6,2,5.2,3.2c0.4,0.3,0.7,0.6,1.2,0.9c0.4,0.3,0.8,0.5,1.2,0.8c0.8,0.6,1.5,1.3,2.4,1.8
	c1.3,0.9,2.7,1.6,4.1,2.2c0.4,0.2,1,0.3,1.2,0.8c-0.4,0.2-0.9,0.2-1.3,0.3c-1.1,0.2-2.5,0.3-3.8,0.4c-2.1,0.2-4.9-0.2-6.9-0.5
	c-1-0.1-1.9-0.3-2.9-0.7c-1.7-0.7-3.5-1.3-5.1-2.1c-0.4-0.2-0.8-0.4-1.2-0.6c-0.4-0.2-0.7-0.5-1.1-0.7c-0.3-0.2-0.8-0.4-1.1-0.7
	c-1.3-1-2.7-2.1-4.1-3.1c-0.3-0.2-0.7-0.3-1-0.7C153.9,143.2,154.4,141.8,155.3,140.8z"/>
<path fill="#C0CEAF" d="M149.3,151.6c0.5,0,1.1,0,1.6,0c2.2,0.4,4.3,1.1,6.2,1.8c1.9,0.7,3.6,1.7,5,2.9c2.8,2.4,5.3,5.2,7.1,8.6
	c0.2,0.4,0.5,0.8,0.7,1.3c1.1,2.2,2,4.4,3,6.8c0.3,0.9,0.6,1.9,1.1,2.9c0.8,1.8,1.8,3.5,2.9,5.1c0.5,0.8,1,1.6,1.6,2.3
	c0.4,0.5,0.8,1.1,1.3,1.7c0.1,0.1,0.4,0.3,0.3,0.5c-1,0-1.9-0.3-2.9-0.5c-0.4-0.1-0.8-0.3-1.3-0.4c-1.2-0.4-2.6-0.9-3.8-1.4
	c-0.6-0.3-1.1-0.5-1.7-0.9c-0.1-0.1-0.3-0.2-0.5-0.3c-0.2-0.1-0.4-0.1-0.7-0.2c-0.2-0.1-0.3-0.2-0.5-0.3c-1.8-1-3.5-2.3-5.1-3.7
	c-0.6-0.5-1.3-1-1.9-1.6c-0.6-0.6-1.2-1.4-1.7-2.1c-0.6-0.7-1-1.5-1.4-2.4c-0.4-0.8-0.9-1.7-1.2-2.6c-0.6-1.5-1.2-3.1-2.1-4.5
	c-0.3-0.5-0.8-1-1.2-1.6c-0.2-0.3-0.3-0.6-0.5-0.8c-0.4-0.5-0.8-0.9-1.3-1.4c-1.4-1.6-3.2-3.1-5.1-4.5c-0.4-0.3-1.5-0.8-1.5-1.2
	c0-0.3,0.4-0.6,0.7-0.9c0.6-0.6,1-1.1,1.6-1.8C148.3,151.9,148.4,151.7,149.3,151.6z"/>
<path fill="#C0CEAF" d="M141.2,159.4c0.2-0.2,1.3,0.4,1.8,0.6c2.7,1,5.3,2,7.3,3.7c0.8,0.6,1.5,1.4,2.2,2.1s1.3,1.6,1.9,2.5
	c1.5,2.4,2.9,5.2,4.4,7.7c0.1,0.2,0.2,0.5,0.4,0.7c0.2,0.3,0.4,0.5,0.7,0.8c0.2,0.3,0.4,0.6,0.6,0.8c0.7,0.9,1.7,1.5,2.1,2.8
	c-1.1-0.2-2.2-0.5-3.3-1c-1-0.4-1.9-0.9-2.9-1.3c-0.5-0.2-1-0.3-1.5-0.6c-0.9-0.5-1.9-0.9-2.8-1.4c-0.8-0.4-1.5-0.7-2.2-1.3
	c-1-0.8-2.1-1.6-2.9-2.6c-0.1-0.2-0.3-0.3-0.5-0.5c-0.2-0.2-0.5-0.5-0.8-0.8c-1-1.1-1.8-2.4-2.8-3.8c-0.9-1.4-2.1-3.2-3.5-4.5
	c-0.3-0.3-1.3-1-1.3-1.3c0-0.2,0.3-0.4,0.6-0.7C139.6,160.7,140.6,159.9,141.2,159.4z"/>
<path fill="#C0CEAF" d="M131,63.8c-0.6,0.1-1.4-0.7-1.9-0.9c-0.8-0.4-1.6-0.6-2.3-1.2c0-2,0.2-4.2,0.9-5.8c0.1-0.4,0.4-0.8,0.7-1.2
	s0.4-0.8,0.6-1.2c0.3-0.4,0.7-0.8,1.1-1.2c0.7-0.8,1.4-1.5,2-2.5c0.7-1.1,1.5-2.3,2-3.8c0.3-0.9,0.5-1.8,0.8-2.8
	c0.2-0.8,0.5-1.8,0.8-2.8c0.2-0.9,0.5-2,1.1-2.8c0,0,0.1,0,0.1,0c0.3,0.8,0.5,1.9,0.7,2.9c0.2,1,0.5,2,0.5,3.1
	c0.1,2.1-0.1,4.2-0.4,6.3c-0.3,2-0.6,3.9-1.3,5.5c-0.6,1.5-1.3,3.1-2.3,4.5c-0.7,1-1.4,1.8-2.2,2.9C131.5,63.3,131.3,63.7,131,63.8z
	"/>
<path fill="#C0CEAF" d="M121.1,59.2c-0.3,0.1-0.5,0-0.9-0.1c-0.9-0.2-1.8-0.5-2.5-0.7c-1.3-0.4-2.4-0.4-3.4-0.9
	c-0.1-2.2,0-4.1,0.2-6.2c0.1-1.4,0.4-2.4,0.8-3.6c0.2-0.6,0.4-1.3,0.7-1.9c0.4-0.9,1-1.8,1.5-2.7c0.5-0.9,1.1-1.7,1.7-2.5
	c0.9-1.2,1.8-2.4,2.9-3.5c0.3-0.3,0.7-0.6,1.1-0.9c1.4-1.3,2.8-2.8,4.2-4.3c2-2.2,3.6-4.7,4.9-7.6c0.2-0.5,0.4-1,0.6-1.4
	c0.2-0.4,0.4-1,0.7-1.4c0,0,0.1-0.1,0.1-0.1c0,0,0,0,0.1,0c0.5,1.6,0.7,3.4,1,5.2c0.1,0.6,0.3,1.1,0.3,1.7c0.1,0.9,0,1.9,0,2.8
	c0,2-0.2,3.7-0.4,5.4c-0.3,3.1-1.7,5.2-3,7.3c-0.4,0.8-0.9,1.6-1.4,2.3c-0.1,0.1-0.2,0.1-0.3,0.2c-0.1,0.2-0.2,0.6-0.4,0.9
	c-0.2,0.3-0.6,0.6-0.8,1c-0.5,0.6-1,1.4-1.6,2.1c-0.2,0.3-0.5,0.7-0.8,1.1s-0.6,0.6-0.9,0.9c-0.4,0.5-0.9,0.9-1.3,1.5
	c-0.1,0.1-0.2,0.3-0.3,0.5c-0.5,0.7-1.1,1.4-1.5,2.1c-0.2,0.4-0.3,0.9-0.5,1.5C121.7,58.2,121.4,59.1,121.1,59.2z"/>
<path fill="#C0CEAF" d="M103.8,26.4c0.6,0.6,0.9,1.4,1.3,2.1c0.4,0.7,0.8,1.5,1.2,2.3c0.5,1.2,0.9,2.4,1.4,3.8
	c0.1,0.4,0.3,0.8,0.4,1.3c0.2,0.8,0.3,1.7,0.5,2.6c0.1,0.4,0.1,0.9,0.2,1.3c0,0.4,0.2,0.9,0.2,1.3c0,0.6,0,1.3,0,1.9
	c0,0.2,0.1,0.5,0.1,0.8c0,0.9-0.2,1.8-0.3,2.6c0,0.4-0.1,0.9-0.1,1.3c-0.1,0.4-0.1,0.9-0.1,1.2c-0.1,0.4-0.3,0.9-0.5,1.4
	c-0.1,0.5-0.3,0.9-0.4,1.4c-0.4,1.3-0.9,2.5-0.9,4.2c-1.2,0.3-2.5,0-3.8,0c-0.3-0.5-0.5-1.2-0.7-1.8c-0.4-1.3-0.8-2.5-1.2-4
	c-0.3-1.4-0.5-2.5-0.3-4.3c0-0.7,0.3-1.5,0.5-2.3c0.1-0.7,0.3-1.5,0.5-2.2c0.3-1.5,0.6-3.1,0.9-4.7c0.3-1.5,0.5-3.3,0.7-4.9
	c0-0.8,0.1-1.8,0.1-2.6c0-0.9,0-1.9,0.1-2.7C103.6,26.5,103.7,26.4,103.8,26.4C103.8,26.4,103.8,26.4,103.8,26.4z"/>
<path fill="#C0CEAF" d="M94.6,14.9c0.4,0.1,0.9,0.8,1.2,1.4c0.3,0.5,0.7,1.1,0.9,1.6c0.7,1.2,1.1,2.3,1.6,3.4
	c0.8,1.8,1.2,3.8,1.7,5.9c0.3,1.3,0.5,2.6,0.4,4.3c-0.1,1-0.3,2-0.5,3c-0.3,1.4-0.8,3.1-1.2,4.7c-0.1,0.6-0.4,1.2-0.5,1.8
	c-0.4,1.2-0.6,2.5-0.9,3.8c-0.1,0.6-0.3,1.2-0.4,1.8c0,0.4,0,0.9-0.1,1.3c-0.5,3,0.1,5.9,0.9,8.2c-0.9,0.2-2,0.2-3,0.3
	c-1,0-2,0.3-2.9,0.3c-0.8-1-1.4-2.2-2-3.4c-1.6-3.6-2.8-8-2.4-13.2c0.2-2.4,0.6-4.7,1.2-6.7c0.6-2,1.4-3.8,2.2-5.8
	c1.1-2.9,2.3-5.8,2.9-9c0.1-0.5,0.2-1.1,0.3-1.6C94.3,16.2,94.3,15.3,94.6,14.9z"/>
<g>
	<path fill="none" d="M115.6,100.2c0.5-0.2,1.2-0.1,1.6-0.5c0.4-0.4,0.4-1.1,0-1.6c-0.4,0-0.9-0.3-1.3-0.3c-0.3,0-0.5,0.2-0.7,0.1
		c-0.1-0.2,0-0.3,0-0.6c-0.8-0.6-1.5,0.3-1.8,0.8c0,0.2,0.1,0.4,0.2,0.7c-0.4,0.2-0.2,0.8-0.4,1.1c-0.3,0-0.6,0-0.9,0
		c-0.4,0.2-0.3,0.6-0.5,0.8c-0.1,0.1-0.4,0.1-0.6,0.3c-0.2,0.1-0.2,0.4-0.4,0.5c-0.5,0.2-1.3-0.1-1.8,0.1c-0.1,0.1-0.3,0.4-0.3,0.7
		c0,0.4,0.4,0.4,0.9,0.7c0.3,0.1,0.5,0.3,0.8,0.3c0.4,0,0.9-0.2,1.4-0.1c0.3,0,0.6,0.3,1,0.3c0.1,0,0.4-0.1,0.7-0.1
		c0.5,0,1,0,1.2-0.1c0.5-0.2,0.6-1.1,0.4-1.6C115.3,101.5,115.1,100.5,115.6,100.2z"/>
	<path fill="none" d="M90.8,88.5c0.1,0.1,0.1,0.2,0.1,0.4c0.3,0.6,0.7,1.1,1,1.6c0.4,0.1,0.7,0.5,1.2,0.4c0.3-0.6,0-1.9,0.8-2.1
		c0.8,0.1,0.8,1.1,0.9,2c0.4,0.4,0.1,1.5,0.6,1.9c0.3,0,0.7,0,1.1,0c0.8-0.1,0.9-0.5,1.2-1.1c0-0.1,0.2-0.2,0.2-0.3
		c0.1-0.2,0-0.4,0.1-0.6c0-0.1,0.2-0.3,0.3-0.4c0.1-0.1,0.2-0.4,0.3-0.5c0.2-0.3,0.7-0.5,0.9-0.8c0.1-0.2,0-0.4,0-0.6
		c0-0.1,0.1-0.2,0.2-0.4c0.1-0.1,0.1-0.3,0.1-0.5c0.3-0.6,0.6-0.9,1-1.3c0.5-0.5,0.9-1,1.4-1.5c0-0.3,0-0.8,0-1
		c-0.4-0.2-0.9,0.1-1.3,0.2c-0.7,0.1-1.2-0.3-1.8-0.3c-0.3,0.1-0.2,0.6-0.4,0.9c-0.5,0-0.8,0.5-1.3,0.4c-0.1,0-0.3-0.1-0.5-0.3
		c-0.4-0.2-1.5-0.7-1.6-1.1c0-0.3,0.4-0.4,0.6-0.6c0.5-0.4,0.8-0.6,1.1-1.1c0.7-1.1,1.1-2,1.9-3.2c0.2-0.4,0.6-1,1-1.1
		c0.4,0,1,0.4,1.3,0.6c0.4,0.3,0.9,0.8,1.3,0.9c0.5,0.1,1,0.4,1.3,0.4c0.3,0,0.7,0,1.1,0.1c0.2,0.1,0.7,0.2,0.8,0.5
		c0.2,0.5-0.4,1-0.1,1.6c0.3,0.2,1,0.5,1.3,0.5c0.1-0.3,0-1.1,0.1-1.4c0.2-0.4,1.2-0.1,1.7-0.3c-0.4-0.9-1.5-1.1-1.9-2
		c0.2-0.5,0.5-1,0.8-1.5c0.4-0.4,0.3-1.1,0.9-1.3c0.3-0.1,0.7,0,1.1,0c0.3,0,0.4-0.3,0.7-0.3c0.3-0.5,0.6-1,1.1-1.4
		c0.7-0.2,1.2-0.3,2-0.4c0.3,0,0.6-0.1,0.8-0.1c0.2,0,0.5,0.3,0.8,0.4c0.3,0.1,0.6,0.4,0.9,0.4s0.5-0.2,0.8-0.3c0.1,0,0.3,0,0.5,0
		c0.3-0.1,0.5-0.4,0.9-0.4c0-0.5-0.3-1-0.4-1.4c-0.1-0.5,0-1.1,0-1.6c0-0.2-0.2-0.3-0.2-0.5c0.2-0.4,0.6-0.6,0.7-1.1
		c-0.5-0.3-0.8-0.9-1.4-0.9c-0.2,0-0.4,0.2-0.7,0.1c-0.2,0-0.4-0.2-0.6-0.3c0-0.4,0-0.7,0-1.1c-0.2-0.1-0.5-0.2-0.8-0.3
		c-0.2,0-0.6-0.2-0.9-0.1s-0.4,0.3-0.7,0.6c-0.2,0.2-0.6,0.4-0.7,0.7c-0.2,0.4-0.1,0.8-0.4,1.1c-0.2,0.1-0.5,0-0.8,0.1
		c-0.4,0.1-0.7,0.4-1.1,0.5c-1,0.2-1.6-0.1-2.3-0.4c-0.9,1-2-0.7-2.9-0.9c-0.3-0.1-0.6,0-0.9-0.1c0.1-0.5,0.2-1.2-0.2-1.3
		c-0.3-0.1-0.9,0.4-1.3,0.4c-0.2,0-0.5,0-0.7,0c-0.7,0.1-1.5,0-2.1-0.2c-0.1-0.1-0.4-0.2-0.5-0.2c-0.2-0.1-0.2-0.4-0.5-0.5
		c-0.4-0.1-1,0.2-1.4,0.1c-0.4-0.1-0.7-0.8-1.1-0.9c-0.5-0.1-0.8,0-1.2,0.1c-0.3,0-0.7,0-1.1,0c-0.3,0-0.7,0.2-1.1,0.3
		c-0.2,0-0.5,0-0.7,0c-0.4,0.1-0.8,0.2-1.2,0.3c-1.3,0.2-2.6,0.6-3.8,0.9c-1.1,0.5-2.5,0.8-3.5,1.3c-0.3,0.1-0.5,0.2-0.8,0.3
		c-1.2,0.5-2.2,1-3.3,1.4c-0.5,0.2-1,0.5-1.5,0.8c-0.7,0.4-1.4,0.7-2.1,1.2c0,0.4-0.3,0.9-0.4,1.4c0,0.2,0,0.4,0,0.7
		c-0.1,0.8-0.6,1.7-1.2,1.7c-0.3,0-0.3-0.2-0.7-0.2c-0.3,0.1-0.4,0.5-0.7,0.9c-0.2,0.3-0.6,0.6-0.7,0.9c-0.2,0.6,0.1,1.3,0,2.1
		c-0.1,0.4-0.5,0.6-0.7,1c-0.1,0.2-0.1,0.5-0.3,0.7c-0.1,0.2-0.3,0.3-0.4,0.5c-0.6,0.8-1,1.7-0.9,2.9c-0.4,0.5-0.1,1-0.3,1.5
		c-0.1,0.3-0.4,0.5-0.5,0.9c-0.1,0.7,0.3,0.7,0.3,1.2c0,0.2-0.2,0.5-0.3,0.9c-0.2,0.8-0.5,1.3-0.7,2c0.1,0.6,0.7,1.2,0.7,2
		c0,0.2-0.1,0.4-0.3,0.7c-0.3,0.5-0.4,0.8-0.8,1.1c-0.7,0.6-1.5,0.2-2.4-0.1c-0.3,0.1-0.7,0.2-1,0.4c-0.5,0.2-0.8,0.5-1.2,0.9
		c-0.1,0.1-0.3,0.2-0.4,0.3c-0.1,0.2-0.1,0.5-0.2,0.8c-0.2,0.3-0.5,0.2-0.8,0.4c-0.1,0-0.2,0.2-0.3,0.3c-0.8,0.6-1.9,1.2-2.2,2.2
		c0.3,0.7,0.1,1.4-0.1,1.8c-0.1,0.1-0.1,0.3-0.2,0.4c-0.5,1-1.3,2-1.2,3.4c-0.2,0.3-0.4,0.6-0.6,0.9c0.1,0.8-0.1,1.3-0.7,1.4
		c-0.2,0.4-0.6,0.8-0.8,1.2c-0.1,0.3-0.2,1-0.2,1.3c0,0.5,0.4,0.9,0.7,1.4c0.1,0.2,0.2,0.5,0.3,0.8c0.3,0.8,0.2,1.1,0.1,2.1
		c-0.5,0.8-1,1.6-1.4,2.4c-0.2,0.3-0.3,0.6-0.5,0.9c-0.3,0.5-1.1,1.2-1.2,1.8c0,0.3,0.1,0.8,0.2,1.3c0.1,0.5,0.1,1,0.1,1.4
		c0.1,0.8,0.3,1.4,0.5,2s0.2,1.3,0.4,1.9c0.2,0.6,0.3,1.2,0.5,1.8c0.2,0.6,0.4,1.1,0.7,1.7c0.1,0.3,0.2,0.6,0.3,1
		c0.7,1.6,1.4,3.2,2.1,4.7c0.3,0.6,0.6,1.2,1.1,1.7c0.3-0.5,0.6-1.1,0.9-1.7c0.6-0.3,1.1-1.1,1.7-1.3c0.2-0.1,0.6,0,0.9-0.1
		c0.1,0,0.3-0.2,0.4-0.2s0.3,0,0.5,0c0.1,0,0.2-0.1,0.3-0.1c0.1,0,0.4,0,0.5,0c0.4-0.1,0.7-0.5,1.1-0.6c0.7-0.2,1.6-0.1,2.6-0.2
		c1-0.1,2-0.4,2.9-0.5c0.4,0,0.9,0,1.3,0c0.1,0,0.3-0.1,0.4-0.1c0.7-0.1,1.4,0,2.1-0.1c0.4,0.3,0.7,0.7,1.3,0.9
		c0.3,0.3,0.7,0.9,1.2,0.8c0.2,0,0.6-0.4,0.9-0.7c0.6-0.6,1.1-1.2,1.6-1.7c0.3-0.3,0.6-0.6,0.8-0.9c-0.1-0.3,0-0.7,0-1.1
		c0-0.5-0.3-0.9-0.5-1.3c-0.4-0.9-0.5-2-1-2.8c0-0.1,0-0.3-0.1-0.5c-0.5-0.9-1-1.9-1.4-3c-0.2-0.3-0.7-0.7-0.6-1.2
		c0.1-0.2,0.4-0.1,0.7-0.2c0.1,0,0.3-0.2,0.4-0.2c0.3,0,0.7,0.1,0.9-0.1c0.1-0.5,0-1,0.1-1.6c0-0.3,0.2-0.6,0.3-0.9
		c0.2-0.8,0-1.6-0.1-2.2c-0.2-0.8-0.5-0.9-1.2-1.3c-0.3-0.4-0.3-1-0.3-1.7c0.2-0.5,1-1.2,1.3-1.9c0.1-0.3,0-0.7,0-1.1
		c0-0.7,0.6-1.2,0.5-1.7c0-0.2-0.3-0.4-0.6-0.8c-0.4-0.5-1-1.2-1.2-1.8c0-0.1,0-0.3-0.1-0.5c0-0.1-0.2-0.2-0.2-0.4
		c-0.1-0.3-0.1-0.5-0.2-0.8c-0.1-0.2-0.2-0.5-0.3-0.7c-0.1-0.2-0.1-0.5-0.1-0.8c-0.1-0.2-0.2-0.5-0.3-0.7c-0.1-0.4,0-0.9-0.1-1.4
		c0-0.1-0.2-0.2-0.3-0.4c-0.1-0.2-0.1-0.4-0.1-0.5c-0.1-0.3-0.5-0.6-0.8-1c-0.1-0.3-0.3-0.6-0.5-0.8c-0.5-0.7-0.7-0.9-1.6-1.1
		c-0.8-0.1-1.8,0-2.3-0.3c0-0.9,0-2,0.3-2.7c-0.3-0.6-1.1-1.5-0.5-2.4c0.5-0.1,0.9-0.1,1.2-0.4c0.3-0.3,0.3-0.7,0.3-1.3
		c0-0.4,0.2-0.9,0.2-1.3c0-0.2,0-0.4,0-0.5c0.2-0.5,0.7-0.2,1.2,0c0.7,0.3,1.2,0.8,2,0.8c0.4-0.9-0.1-2.3,0.1-3.1
		c0.1-0.4,0.7-0.7,0.9-0.9c0.2-0.2,0.4-0.6,0.6-0.7c0.4-0.2,1-0.3,1.5-0.5c0.7-0.2,1.5-0.7,2.2-0.8c0.2,0.5,0.4,1,0.4,1.7
		c0.1,0.2,0.3,0.4,0.3,0.7c0,0.2-0.1,0.3-0.2,0.5c-0.3,0.9-0.5,1.8-0.8,2.7c-0.5,0.4-1.1,0.7-1.6,1.2c0,0.4-0.2,0.7-0.1,1.1
		c0.5-0.3,0.8-0.6,1.3-0.9c0.2-0.1,0.3-0.3,0.5-0.3c0.3,0,0.6,0.1,0.9,0.1c0.6-0.1,0.9-0.8,1.5-0.8c0.3,0,0.6,0.5,0.9,0.5
		c0.3,0,0.7-0.1,1.1-0.2c0.3-0.1,0.7-0.2,1-0.3c0.2-0.1,0.3-0.2,0.5-0.3c0.3-0.1,0.7,0,1.1-0.3c0.7,0.3,2,0.2,2.6,0.7
		C90.1,87.9,90.6,88.1,90.8,88.5z"/>
	<path fill="none" d="M115,87.5c0.2-0.1,0.4-0.3,0.6-0.5c0.4-0.3,1-0.6,1.1-1.1c-0.2-0.1-0.6,0-0.7-0.1c-0.3-0.7,0-1.9-0.3-2.8
		c-0.6-0.4-1.8-0.2-2.7-0.3c-0.3,0-0.8-0.2-1.2-0.1c-0.2,0-0.6,0.3-0.8,0.5c-0.3,0.3-0.4,0.9-0.8,1.3c-0.5,0.6-1.5,1-2.2,1.6
		c-0.7,0.5-1.3,1.1-1.9,1.7c-0.3,0.3-0.6,0.6-0.9,0.8c-0.4,0.2-1,0.3-1.5,0.4c-0.2,0.2-0.2,0.5-0.4,0.7c-0.1,0.7-0.1,1.5-0.4,2
		c0,0.5-0.3,1-0.1,1.4c0.6-0.1,0.8-0.4,1.2-0.7c0.2-0.1,0.4-0.1,0.7-0.2c0.3-0.1,0.6-0.4,0.9-0.6c0.3-0.2,0.8-0.5,1.1-0.6
		c0.1,0,0.4,0,0.6,0c0.1,0,0.4-0.1,0.6-0.1c0.3,0,0.6,0,0.9,0c0.4,0,0.8-0.2,1.1-0.1c0.9,0.1,2.5,1.3,2.1-0.4
		C112.8,89.1,114,88.2,115,87.5z"/>
	<path fill="none" d="M110.4,101.2c0.5-0.4,0.2-0.9,0.7-1.4c0.1-0.1,0.3-0.1,0.4-0.2c0.3-0.2,0.9-0.6,0.9-1.1c0-0.7-0.7-0.7-1.2-0.9
		c-0.3-0.1-0.4-0.4-0.7-0.4c-0.5-0.1-0.6,0.2-1.1,0.4c-0.3,0.2-0.6,0.2-0.7,0.3c-0.4,0.4,0,1.1-0.5,1.6c-0.5,0-0.9,0.1-0.9,0.6
		C107.2,101,109.6,101.1,110.4,101.2z"/>
	<path fill="none" d="M152.1,107.3c0-0.2,0-0.5-0.1-0.8c0-0.2-0.1-0.4-0.2-0.7c0-0.3,0-0.6-0.1-0.9c0-0.2-0.1-0.4-0.2-0.6
		c-0.2-0.7-0.3-1.3-0.5-2c-0.3-0.9-0.5-1.8-0.8-2.6c-0.3-0.8-0.7-1.6-1-2.4c-0.3-0.8-0.6-1.7-0.9-2.5c-0.1-0.2-0.3-0.4-0.4-0.6
		c-0.2-0.4-0.3-0.7-0.5-1.1c-0.1-0.2-0.2-0.4-0.3-0.6c-0.2-0.4-0.5-0.7-0.7-1.1c-0.2-0.4-0.3-0.8-0.5-1.2c-0.2-0.3-0.5-0.7-0.7-1.1
		c-1-1.4-1.9-2.9-2.9-4.2c-2.1-2.7-4.5-5.1-7-7.2c-0.1-0.1-0.3,0-0.5-0.1c-0.3-0.1-0.5-0.7-0.9-0.8c-0.2,0-0.5,0.1-0.7,0.1
		c-0.4,0-1-0.3-1.6-0.4c-0.2,0-0.4,0.1-0.5,0c-0.3,0-0.4-0.3-0.7-0.3c-0.3,0-0.4,0.2-0.8,0.1c-0.3,0.4-1.1,0.5-1.7,0.7
		c-0.4,0.9,0.6,1.2,0.9,1.8c-0.1,1.2,0.9,1.3,1.7,1.6c0.5,0.5,1.4,0.6,1.8,1.1c0,0.8,0.4,1.6,0.4,2.4c0,0.3-0.1,0.7,0,1.1
		c0,0.3,0.4,0.6,0.4,1c0,0.6-0.4,1.3-0.1,1.9c-0.2,0.6-0.2,1.2-0.4,1.7c0,0.2-0.1,0.5-0.2,0.7c-0.1,0.2-0.3,0.3-0.4,0.5
		c0,0.1-0.1,0.4-0.1,0.6c0,0.2-0.1,0.4-0.1,0.6c-0.1,0.4-0.4,0.8-0.4,1.1c0,0.2,0,0.4,0,0.6c-0.1,0.4-0.5,1.1-0.7,1.4
		c-0.1,0.2-0.2,0.4-0.3,0.5c-0.1,0.2-0.4,0.3-0.5,0.5c-0.2,0.3-0.3,0.9-0.3,1.3c0,0.4,0.4,0.8,0.1,1.1c-0.5,0.2-0.8-0.1-1.2-0.3
		c-0.1-0.1-0.4-0.1-0.5-0.3c-0.1-0.1-0.3-0.3-0.4-0.4c-0.4-0.2-0.9-0.3-1.3-0.5c-0.5-0.2-0.8-0.7-1.3-0.6c-0.4,0-0.5,0.4-0.8,0.6
		c-0.6,0.1-0.8,0.6-1.2,1c-0.2,0.2-0.5,0.3-0.8,0.5c-0.2,0.2-0.5,0.4-0.8,0.6c-0.2,0.1-0.5,0.2-0.7,0.4c-0.1,0.1-0.3,0.3-0.5,0.5
		c-0.2,0.2-0.9,0.5-0.9,0.7c0,0.4,0.6,0.5,0.6,0.8c-0.7,0.4-1.4,0.8-1.8,1.5c-0.2-0.1-0.3-0.3-0.6-0.3c-0.5,0.3-0.9,0.6-1.2,0.9
		c-0.1,0.1-0.1,0.3-0.3,0.4c-0.2,0.1-0.7,0.1-1.1,0.1c-0.4,0.1-0.8,0.2-1.2,0.1c-0.3-0.1-0.5-0.4-0.8-0.5c-0.2,0-0.4,0.1-0.6,0
		c-0.5,0-0.8-0.6-1.4-0.5c-0.2,0.2-0.6,0.9-0.5,1.3c0,0.2,0.4,0.5,0.5,0.7c0.1,0.2,0.1,0.7,0.1,0.9c0,0.4,0,0.7-0.4,0.7
		c-0.7,0.1-0.6-0.7-0.9-1.1c-0.1-0.1-0.4-0.4-0.4-0.4c-0.5-0.3-0.8,0-1.2,0.3c-0.2,0.1-0.4,0.3-0.5,0.5c-0.1,0.1-0.1,0.4-0.3,0.6
		c-0.1,0.2-0.6,0.4-0.8,0.7c-0.2,0.3-0.2,0.6-0.4,0.8c-0.2,0.3-0.6,0.6-0.7,1.2c0.4,0.6,1.2,0.9,1.1,2c0.2,0.4,0.6,0.6,1.1,0.8
		c0.4,0.2,0.9,0.6,1.4,0.5c0.2,0,0.5-0.5,0.8-0.7c0.2-0.1,0.5-0.3,0.7-0.4c0.3-0.2,0.6-0.3,0.8-0.4c0.5-0.3,0.5-1.1,1.4-0.8
		c0.1,0.3,0.2,0.7,0.5,0.8c0.8,0.1,1.5-0.3,1.9,0.2c0,0.4,0.2,0.8,0.3,1.2c0,0.1,0,0.3,0,0.4c0,0.2,0.2,0.5,0.3,0.8
		c0,0.3,0,0.5,0.1,0.8c0.1,0.3,0.4,0.5,0.4,0.8c0,0.5-1.2,1.1-1.3,1.6c-0.1,0.5,0.2,1.1,0.7,1.1c0.2,0,0.5-0.3,0.8-0.5
		c0.5-0.4,0.7-0.7,1.4-0.3c0.9-0.6,0.3-2,0.3-3.1c-0.2-0.3-0.8-0.6-0.4-1.1c0.3,0.2,0.5,0.5,0.5,1c0.3,0.2,0.5,0.3,0.6,0.7
		c0.2,0.5,0,0.9,0,1.4c0,0.6,0.3,1.7,0.7,1.8c0.1,0,0.3,0,0.6,0c0.3,0,0.5,0.2,0.9,0.1c0.8-0.2,0.6-1.2,0.9-1.9
		c0.3-0.1,1-0.1,1.1,0.1c-0.1,0.5-0.4,0.5-0.6,0.8c-0.5,0.8-0.6,1.9,0.1,2.5c0.4,0.3,1.7,0.2,1.7,0.7c0,0.3-0.4,0.5-0.5,0.8
		c-0.2,0.3-0.1,1.1-0.7,1.1c-0.5-0.3-1-0.5-1.7-0.7c-0.6-0.1-1,0-1.5-0.1c-0.2,0-0.5-0.1-0.8-0.2c-1-0.2-1.8-0.4-2.7-0.6
		c-0.2-0.5-0.6-1.1-1.4-1.1c-0.3,0-0.5,0.3-0.8,0.3c-0.4,0-0.7-0.7-1-1.1c-0.4-0.5-0.7-0.9-1-1.2c-0.3-0.3-0.6-0.4-0.7-0.8
		c0-0.3,0.2-0.5,0.2-0.8c0-0.5-0.2-0.7-0.5-1.1c-0.3,0-0.6-0.3-0.9-0.4c-0.6-0.1-1.2,0-1.7-0.3c-0.3-0.1-0.5-0.4-0.8-0.5
		c-0.5-0.2-1-0.2-1.4-0.5c-0.2-1.3-1.2-0.3-1.7,0c-0.7,0.1-1.1,0.7-1.8,0.9c-0.1,0.2-0.3,0.3-0.4,0.4c0,0.5-0.5,0.9-0.7,1.3
		c-0.1,0.3-0.1,0.8-0.5,0.9c-0.4,0-0.9-0.5-1.4-0.5c-0.8,0-1,0.3-1.6,0.7c-0.9,0.6-1.8,1.1-2.6,1.6c-0.5,0.4-1,0.7-1.7,1.1
		c-0.5,0.3-1.5,0.8-1.7,1.1c-0.1,0.2-0.1,0.5-0.2,0.7c-0.1,0.2-0.3,0.3-0.4,0.5c-0.1,0.2,0,0.4-0.1,0.6c-0.1,0.5-0.6,1.1-0.6,1.6
		c-0.2,0.3-0.5,0.8-0.5,1.2c0,0.3,0.2,0.7,0.4,1.1c0.1,0.4,0.1,0.9,0.3,1.3c0,0.2,0.1,0.5,0.2,0.8c0.4,1.4,1,2.5,1.3,3.7
		c0.9,0,1.7,0.2,2.5,0.4c0.4,0.1,0.7,0.3,1.1,0.3c0.1,0,0.3,0,0.5,0c0.3,0,0.6,0.2,0.9,0.2c0.6,0,1.2,0,1.6,0.2
		c0.2,0.1,0.2,0.4,0.4,0.7c0.1,0.1,0.3,0.2,0.4,0.3c0.1,0.1,0.2,0.3,0.3,0.4c0.2,0.3,0.5,0.5,0.7,0.8c0.1,0.2,0.2,0.5,0.4,0.7
		c0.2,0.2,0.8,0.6,0.8,1.1c0,0.2-0.3,0.4-0.4,0.7c-0.1,0.2-0.1,0.5-0.1,0.7c0,0.1-0.2,0.3-0.3,0.5c0,0.2,0,0.4-0.1,0.6
		c-0.2,0.9-0.7,1.8-0.5,3c0,0.3,0.2,0.6,0.3,0.9c0,0.2,0,0.5,0,0.8c0,0.3,0.1,0.7,0.1,1c0,0.2-0.2,0.5-0.3,0.8c-0.3,1-0.4,2.1-0.7,3
		c0.3,0.5,0.3,1.4,0.8,1.8c0,0.9,0.6,1.6,0.8,2.4c0,0.2,0,0.5,0,0.8c0.1,0.9,0.3,1.9,0.1,3c-0.1,0.6-0.5,1.3-0.6,2
		c0,0.3,0,0.6,0,0.8c0,1-0.3,1.9-0.3,2.9c3.6,0.7,8.4,0.5,12.1,0c0.6-1.3,1.8-2.2,2.4-3.6c0.5-0.4,0.7-1.2,1.3-1.6
		c0-0.3,0.3-0.5,0.4-0.8c0.5-0.3,1-0.6,1.6-1c0.5-0.3,1.2-0.7,1.5-1.2c0.3-0.5,0.3-1.4,0.6-2.1c0.1-0.2,0.3-0.3,0.4-0.5
		c0-0.1,0-0.3,0.1-0.4c0.1-0.2,0.2-0.5,0.4-0.7c0.2-0.4,0.4-1,0.6-1.5c0.1-0.2,0.4-0.5,0.5-0.7c0.2-0.4,0.2-1,0.5-1.4
		c0.3-0.3,0.7-0.3,1.1-0.5c0.4-0.2,0.8-0.6,1.3-0.9c0.2-0.1,0.4-0.1,0.5-0.2c0.1-0.1,0.2-0.2,0.4-0.4c0.6-0.5,0.9-1.2,1.6-1.6
		c0.8-0.2,1.7-0.4,2.3-0.8c0.1-0.1,0.2-0.2,0.4-0.4c0.4-0.4,0.9-0.7,1.4-1.1c0.3-0.2,0.6-0.5,0.9-0.7c0.3-0.2,0.8-0.4,0.8-0.8
		c-0.4-0.2-1-0.3-1.6-0.5c-0.5-0.1-1.1-0.3-1.7-0.4c-0.2,0-0.4,0-0.5,0c-0.4,0-0.8-0.3-1.3-0.1c-0.4-0.2-0.5-0.7-0.8-1.1
		c-0.2-0.4-0.7-0.8-0.9-1.2c-0.1-0.1-0.1-0.3-0.2-0.5c-0.1-0.2-0.4-0.3-0.5-0.5c0-0.1,0-0.4-0.1-0.7c-0.1-0.5-0.1-0.9-0.3-1.4
		c-0.1-0.4-0.3-0.8-0.4-1.2c-0.1-0.3,0-0.6-0.1-0.9c0-0.1-0.2-0.2-0.2-0.3c0-0.1,0-0.3-0.1-0.4c-0.2-0.5-0.6-0.8-0.9-1.3
		c-0.4-0.5-0.6-1.2-1-1.7c-0.4-0.5-0.7-1.1-1.1-1.7c0-0.5-0.7-0.9-0.3-1.4c0.6,0,0.8,0.7,1.6,0.8c0.4-0.4-0.1-1.5,0.4-1.9
		c0.4,0.1,0.6,0.5,0.9,0.7c0,0.5,0.4,0.9,0.6,1.3c0,0.2,0.1,0.4,0.1,0.7c0.1,0.2,0.2,0.4,0.3,0.6c0,0.2,0,0.4,0.1,0.5
		c0.1,0.2,0.2,0.4,0.3,0.6c0.1,0.2,0.1,0.4,0.1,0.7c0,0.1,0.2,0.2,0.3,0.4c0.1,0.1,0.1,0.4,0.1,0.5c0.1,0.2,0.4,0.4,0.5,0.7
		c0.8,1.1,1.9,1.9,2,3.5c0,0.6,0,1.3,0,2c0,0.4,0.1,0.9,0,1.4c0.2,0.3,0.5,0.5,1,0.7c0.4,0.1,0.9,0.4,1.3,0.4c0.2,0,0.5-0.2,0.8-0.2
		c0.6-0.1,1.3,0,1.9,0c0.2,0,0.5-0.2,0.8-0.3c0.3-0.1,0.7-0.1,0.9-0.2c0.3-0.1,0.6-0.6,1-0.8c0.4-0.2,0.8-0.4,1.2-0.7
		c0.1-0.1,0.3-0.3,0.4-0.5c0.2-0.1,0.4-0.2,0.5-0.4c0.3-0.3,0.6-0.7,1-0.9c0.1-0.5,0.7-0.5,0.7-1c0,0,0-0.2-0.1-0.4
		c-0.1-0.6-0.3-0.9-0.4-1.4c0-0.2,0-0.4,0-0.6c-0.2-0.6-0.9-1.4-1.8-1.2c-0.2,0-0.5,0.3-0.7,0.4c-1.2,0.3-1.7-0.5-2.3-1.1
		c-0.2-0.2-0.4-0.4-0.7-0.6c-0.2-0.2-0.6-0.3-0.5-0.7c0.3-0.4,0.8,0,1.1,0c0.4,0.1,0.9,0.2,1.3,0.3c0.8,0.2,1.7,0.6,2.5,0.7
		c0.2,0,0.5,0,0.8,0c0.7,0.1,1.3,0.5,2,0.4c0.2,0,0.6-0.1,0.9-0.2c0.3-0.1,0.7,0,1.1-0.1c0.2,0,0.4-0.2,0.7-0.1
		c0.3,0,0.4,0.4,0.6,0.6c0.6,0.5,1.7,0.7,2,1.2c0,0.7,0.1,1.6,0.3,2.2c0.1,0.5,0.2,0.9,0.4,1.4c0.1,0.2,0.1,0.5,0.1,0.7
		c0,0.2,0.3,0.4,0.4,0.7c0.2,0.3,0.1,0.7,0.4,0.7c0.7,0.1,1-1.3,1.2-1.7c0.1-0.2,0.3-0.4,0.4-0.6c0.1-0.4,0.2-0.9,0.3-1.3
		c0.1-0.2,0.3-0.4,0.4-0.6c0.1-0.4,0.1-1,0.3-1.4c0.2-0.5,0.3-0.9,0.4-1.4c0.3-1.2,0.6-2.5,0.9-3.8c0.9-4.6,1-10.1,0.4-15.1
		C152.7,109.5,152.4,108.4,152.1,107.3z"/>
	<path fill="#C0CEAF" d="M155.2,105.2c-1.4-6.3-3.7-11.8-6.6-16.6c-1.5-2.4-3-4.8-4.8-6.8c-0.8-1-1.7-2.1-2.7-3.1s-2-1.9-3-2.9
		c-3.1-2.4-6.2-4.9-9.8-6.8c-0.7-0.4-1.4-0.7-2.2-1.1c-3.7-1.9-7.6-3.4-12.1-4.5c-0.9-0.2-1.8-0.4-2.7-0.6c-0.4,0-0.9,0-1.4-0.1
		c-0.4-0.1-0.9-0.2-1.4-0.3c-1.5-0.2-3-0.2-4.5-0.4c-1-0.1-2.1,0-3.1,0c-0.5,0-0.9-0.1-1.4-0.1c-0.6,0-1.5,0.1-2.2,0.1
		c-0.2,0-0.4,0-0.9,0.1c-0.8,0.1-1.7,0.1-2.6,0.2c-0.1,0-0.3,0.1-0.5,0.1c-1.1,0.2-2.1,0.2-3.1,0.5c-0.4,0.1-0.8,0.1-1.2,0.2
		c-0.7,0.1-1.4,0.5-2.2,0.7c-0.8,0.1-1.5,0.3-2.3,0.6c-2.9,1-5.6,2.2-8.1,3.5c-0.3,0.1-0.5,0.4-0.8,0.5s-0.6,0.3-0.9,0.5
		c-0.6,0.4-1.2,0.7-1.8,1.1c-0.7,0.4-1.5,1-2.1,1.4c-0.4,0.3-0.9,0.6-1.3,0.9c-2.2,1.7-4.4,3.5-6.2,5.5c-0.2,0.2-0.3,0.5-0.6,0.8
		c-0.3,0.3-0.6,0.6-0.8,0.9c-0.1,0.2-0.4,0.3-0.5,0.5c-1.9,2.5-3.6,5-5.2,7.9c-1.4,2.5-2.6,5.2-3.7,8c-1,2.5-1.5,5.3-2.1,8.1
		c0,0.4-0.1,0.8-0.1,1.3c-0.1,0.4-0.2,0.7-0.3,1.1c0,0.4,0,0.9,0,1.4c-0.4,4.4-0.3,9.6,0.5,13.5c0.3,1.7,0.5,3.4,0.9,4.9
		c0.2,0.7,0.5,1.4,0.7,2.2c0.2,0.7,0.5,1.4,0.8,2.1c0.5,1.4,1,2.8,1.7,4.1c0.6,1.3,1.3,2.6,2,3.8c1,1.9,2.2,3.7,3.4,5.3
		c0.4,0.5,0.8,1.1,1.2,1.7c0.8,1.1,1.7,2.1,2.6,3.1c1.1,1.2,2.4,2.6,3.7,3.6c0.3,0.2,0.5,0.5,0.7,0.7c0.2,0.2,0.5,0.4,0.8,0.7
		c0.2,0.3,0.5,0.5,0.8,0.7c1.7,1.2,3.2,2.6,5.1,3.7c0.6,0.4,1.2,0.8,1.8,1.1c2.5,1.4,5,2.7,7.8,3.8c2.8,1.1,5.8,2,8.9,2.6
		c3.2,0.6,6.6,1.1,10.3,1.1c1.9,0,3.6,0,5.4-0.1c0.8,0,1.6-0.2,2.5-0.3c0.8-0.1,1.7-0.2,2.5-0.4c5-0.8,9.4-2.3,13.3-4.1
		c2.6-1.2,5.1-2.6,7.3-4.2c0.5-0.4,1.1-0.8,1.7-1.2c0.5-0.4,1.1-0.8,1.6-1.3c2.1-1.9,4.2-3.7,5.9-5.8c0.9-1.1,1.8-2.1,2.6-3.2
		c1.2-1.7,2.3-3.5,3.4-5.3c1.1-1.8,2.1-3.8,2.9-5.9c1.3-3.2,2.3-6.5,2.9-10.1c0-0.4,0.1-0.8,0.1-1.3c0.1-0.8,0.3-1.6,0.4-2.4
		c0-0.2,0-0.4,0-0.6c0-0.6,0-1.3,0.1-2.1C156.4,113.8,156.1,109.4,155.2,105.2z M86.4,86.8c-0.2,0.1-0.3,0.2-0.5,0.3
		c-0.2,0.1-0.6,0.2-1,0.3c-0.4,0.1-0.8,0.3-1.1,0.2c-0.3,0-0.5-0.5-0.9-0.5c-0.6,0-0.9,0.7-1.5,0.8c-0.3,0-0.6-0.1-0.9-0.1
		c-0.2,0-0.3,0.2-0.5,0.3c-0.5,0.3-0.8,0.5-1.3,0.9c0-0.4,0.1-0.7,0.1-1.1c0.5-0.5,1.1-0.8,1.6-1.2c0.3-0.8,0.5-1.7,0.8-2.7
		c0.1-0.2,0.2-0.3,0.2-0.5c0-0.3-0.1-0.5-0.3-0.7c0-0.7-0.2-1.2-0.4-1.7c-0.7,0.1-1.5,0.6-2.2,0.8c-0.5,0.2-1.1,0.3-1.5,0.5
		c-0.2,0.1-0.3,0.5-0.6,0.7c-0.2,0.2-0.8,0.5-0.9,0.9c-0.2,0.8,0.3,2.2-0.1,3.1c-0.8,0-1.2-0.4-2-0.8c-0.4-0.2-1-0.5-1.2,0
		c0,0.1,0,0.3,0,0.5c0,0.4-0.2,0.9-0.2,1.3c0,0.5,0,1-0.3,1.3c-0.3,0.3-0.7,0.3-1.2,0.4c-0.5,0.9,0.2,1.8,0.5,2.4
		c-0.3,0.6-0.3,1.8-0.3,2.7c0.5,0.3,1.5,0.1,2.3,0.3c0.9,0.2,1.1,0.4,1.6,1.1c0.2,0.2,0.3,0.5,0.5,0.8c0.2,0.4,0.6,0.7,0.8,1
		c0,0.1,0,0.3,0.1,0.5c0.1,0.2,0.2,0.3,0.3,0.4c0.1,0.4,0,0.9,0.1,1.4c0.1,0.2,0.2,0.5,0.3,0.7c0,0.2,0,0.5,0.1,0.8
		c0.1,0.2,0.2,0.5,0.3,0.7c0.1,0.2,0.1,0.5,0.2,0.8c0,0.1,0.2,0.2,0.2,0.4c0,0.1,0,0.3,0.1,0.5c0.2,0.5,0.8,1.2,1.2,1.8
		c0.2,0.4,0.5,0.6,0.6,0.8c0.1,0.5-0.5,1-0.5,1.7c0,0.4,0.2,0.8,0,1.1c-0.2,0.7-1.1,1.4-1.3,1.9c0,0.6,0,1.3,0.3,1.7
		c0.7,0.4,1,0.5,1.2,1.3c0.1,0.6,0.3,1.4,0.1,2.2c-0.1,0.3-0.3,0.5-0.3,0.9c-0.1,0.6,0,1.1-0.1,1.6c-0.2,0.2-0.6,0.1-0.9,0.1
		c-0.1,0-0.3,0.2-0.4,0.2c-0.2,0.1-0.6,0-0.7,0.2c-0.1,0.5,0.3,0.9,0.6,1.2c0.4,1,0.9,2,1.4,3c0,0.1,0,0.3,0.1,0.5
		c0.5,0.8,0.6,1.8,1,2.8c0.1,0.3,0.4,0.8,0.5,1.3c0,0.3-0.1,0.7,0,1.1c-0.2,0.3-0.5,0.5-0.8,0.9c-0.5,0.5-1,1.1-1.6,1.7
		c-0.2,0.3-0.6,0.7-0.9,0.7c-0.5,0-0.9-0.5-1.2-0.8c-0.6-0.1-0.8-0.6-1.3-0.9c-0.7,0.2-1.4,0-2.1,0.1c-0.1,0-0.3,0.1-0.4,0.1
		c-0.4,0-0.8,0-1.3,0c-0.9,0-1.9,0.3-2.9,0.5c-0.9,0.1-1.8,0-2.6,0.2c-0.4,0.1-0.7,0.4-1.1,0.6c-0.1,0-0.3,0-0.5,0
		c-0.1,0-0.2,0.1-0.3,0.1c-0.1,0-0.3,0-0.5,0s-0.3,0.2-0.4,0.2c-0.3,0.1-0.7,0-0.9,0.1c-0.6,0.2-1.1,1-1.7,1.3
		c-0.2,0.6-0.5,1.2-0.9,1.7c-0.5-0.4-0.8-1.1-1.1-1.7c-0.7-1.5-1.4-3-2.1-4.7c-0.1-0.3-0.2-0.6-0.3-1c-0.2-0.6-0.5-1.1-0.7-1.7
		c-0.2-0.5-0.3-1.2-0.5-1.8c-0.2-0.6-0.3-1.3-0.4-1.9s-0.4-1.2-0.5-2c0-0.3,0-0.9-0.1-1.4c-0.1-0.4-0.3-0.9-0.2-1.3
		c0.1-0.5,0.8-1.3,1.2-1.8c0.2-0.3,0.3-0.6,0.5-0.9c0.4-0.8,0.9-1.6,1.4-2.4c0.1-0.9,0.2-1.3-0.1-2.1c-0.1-0.2-0.2-0.5-0.3-0.8
		c-0.2-0.5-0.6-0.9-0.7-1.4c0-0.3,0.1-1,0.2-1.3c0.1-0.4,0.6-0.8,0.8-1.2c0.6,0,0.8-0.6,0.7-1.4c0.2-0.3,0.4-0.5,0.6-0.9
		c-0.1-1.4,0.6-2.4,1.2-3.4c0.1-0.1,0.1-0.3,0.2-0.4c0.2-0.4,0.4-1.1,0.1-1.8c0.3-1,1.3-1.6,2.2-2.2c0.1-0.1,0.2-0.2,0.3-0.3
		c0.3-0.2,0.6-0.1,0.8-0.4c0.1-0.2,0.1-0.6,0.2-0.8c0.1-0.1,0.2-0.2,0.4-0.3c0.3-0.3,0.6-0.6,1.2-0.9c0.3-0.1,0.6-0.2,1-0.4
		c0.9,0.3,1.7,0.7,2.4,0.1c0.4-0.3,0.5-0.6,0.8-1.1c0.1-0.2,0.3-0.5,0.3-0.7c0-0.8-0.6-1.3-0.7-2c0.2-0.7,0.5-1.2,0.7-2
		c0.1-0.3,0.3-0.6,0.3-0.9c0-0.5-0.4-0.5-0.3-1.2c0-0.3,0.4-0.5,0.5-0.9c0.1-0.5-0.1-1,0.3-1.5c-0.1-1.2,0.3-2.1,0.9-2.9
		c0.1-0.2,0.3-0.3,0.4-0.5c0.1-0.2,0.2-0.5,0.3-0.7c0.2-0.3,0.6-0.6,0.7-1c0.1-0.8-0.1-1.4,0-2.1c0.1-0.3,0.5-0.6,0.7-0.9
		c0.2-0.3,0.4-0.7,0.7-0.9c0.3,0,0.4,0.3,0.7,0.2c0.5,0,1.1-0.9,1.2-1.7c0-0.2,0-0.5,0-0.7c0.1-0.5,0.5-1,0.4-1.4
		c0.6-0.5,1.3-0.8,2.1-1.2c0.5-0.3,1-0.6,1.5-0.8c1.1-0.4,2.1-0.9,3.3-1.4c0.3-0.1,0.5-0.2,0.8-0.3c1-0.4,2.4-0.7,3.5-1.3
		c1.2-0.2,2.5-0.6,3.8-0.9c0.4-0.1,0.8-0.2,1.2-0.3c0.2,0,0.5,0,0.7,0c0.4-0.1,0.8-0.2,1.1-0.3c0.4,0,0.8,0,1.1,0
		c0.3,0,0.7-0.2,1.2-0.1c0.4,0.1,0.7,0.8,1.1,0.9c0.4,0.1,1-0.2,1.4-0.1c0.2,0,0.3,0.3,0.5,0.5c0,0,0.3,0.1,0.5,0.2
		c0.6,0.3,1.4,0.3,2.1,0.2c0.2,0,0.5,0,0.7,0c0.4,0,1-0.5,1.3-0.4c0.5,0.1,0.4,0.8,0.2,1.3c0.3,0.2,0.6,0,0.9,0.1
		c0.8,0.2,1.9,1.9,2.9,0.9c0.7,0.3,1.3,0.6,2.3,0.4c0.4-0.1,0.7-0.4,1.1-0.5c0.3,0,0.5,0,0.8-0.1c0.3-0.2,0.2-0.7,0.4-1.1
		c0.1-0.2,0.5-0.4,0.7-0.7c0.3-0.2,0.4-0.5,0.7-0.6s0.6,0.1,0.9,0.1c0.3,0.1,0.5,0.1,0.8,0.3c0,0.4,0,0.7,0,1.1
		c0.2,0.1,0.3,0.3,0.6,0.3c0.3,0,0.4-0.1,0.7-0.1c0.6,0,0.9,0.5,1.4,0.9c-0.1,0.5-0.5,0.7-0.7,1.1c0,0.2,0.2,0.3,0.2,0.5
		c0.1,0.5,0,1.1,0,1.6c0,0.3,0.4,0.8,0.4,1.4c-0.4,0-0.6,0.3-0.9,0.4c-0.1,0-0.3,0-0.5,0c-0.2,0.1-0.5,0.3-0.8,0.3s-0.6-0.2-0.9-0.4
		c-0.2-0.1-0.5-0.4-0.8-0.4c-0.2,0-0.5,0-0.8,0.1c-0.8,0.1-1.3,0.2-2,0.4c-0.4,0.3-0.8,0.9-1.1,1.4c-0.3,0-0.4,0.3-0.7,0.3
		c-0.3,0-0.7,0-1.1,0c-0.6,0.2-0.5,0.9-0.9,1.3c-0.2,0.5-0.5,1-0.8,1.5c0.4,0.9,1.5,1.1,1.9,2c-0.5,0.2-1.4-0.1-1.7,0.3
		c-0.1,0.3,0,1.1-0.1,1.4c-0.3,0-1-0.2-1.3-0.5c-0.3-0.5,0.3-1,0.1-1.6c-0.1-0.3-0.6-0.4-0.8-0.5c-0.4-0.1-0.8-0.1-1.1-0.1
		c-0.3,0-0.8-0.3-1.3-0.4c-0.3-0.1-0.8-0.6-1.3-0.9c-0.3-0.2-0.9-0.6-1.3-0.6c-0.3,0-0.7,0.7-1,1.1c-0.8,1.2-1.2,2.1-1.9,3.2
		c-0.3,0.5-0.6,0.7-1.1,1.1c-0.2,0.1-0.6,0.3-0.6,0.6c0,0.4,1.1,0.9,1.6,1.1c0.2,0.1,0.4,0.3,0.5,0.3c0.5,0,0.8-0.5,1.3-0.4
		c0.2-0.2,0-0.8,0.4-0.9c0.6,0,1.1,0.4,1.8,0.3c0.4-0.1,0.8-0.5,1.3-0.2c0.1,0.2,0,0.6,0,1c-0.4,0.5-0.9,1-1.4,1.5
		c-0.3,0.4-0.7,0.7-1,1.3c0,0.1,0,0.3-0.1,0.5c-0.1,0.1-0.2,0.3-0.2,0.4c0,0.1,0,0.4,0,0.6c-0.1,0.3-0.6,0.5-0.9,0.8
		c-0.1,0.1-0.2,0.3-0.3,0.5c-0.1,0.1-0.3,0.3-0.3,0.4c0,0.1,0,0.4-0.1,0.6c0,0.1-0.2,0.2-0.2,0.3c-0.3,0.6-0.4,1-1.2,1.1
		c-0.3,0-0.8,0-1.1,0c-0.4-0.4-0.2-1.5-0.6-1.9c0-0.9,0-1.9-0.9-2c-0.7,0.2-0.4,1.5-0.8,2.1c-0.4,0.1-0.8-0.3-1.2-0.4
		c-0.3-0.5-0.7-1-1-1.6c0-0.1,0-0.2-0.1-0.4c-0.2-0.4-0.7-0.6-0.8-1.2c-0.5-0.5-1.8-0.4-2.6-0.7C87.1,86.8,86.7,86.7,86.4,86.8z
		 M114.7,103.6c-0.2,0.1-0.7,0-1.2,0.1c-0.3,0-0.6,0.1-0.7,0.1c-0.3,0-0.6-0.3-1-0.3c-0.5-0.1-1,0.1-1.4,0.1c-0.3,0-0.5-0.2-0.8-0.3
		c-0.5-0.2-0.9-0.3-0.9-0.7c0-0.3,0.2-0.6,0.3-0.7c0.5-0.3,1.3,0,1.8-0.1c0.1-0.1,0.2-0.4,0.4-0.5c0.2-0.2,0.4-0.2,0.6-0.3
		c0.2-0.2,0.1-0.6,0.5-0.8c0.3,0,0.6,0,0.9,0c0.1-0.3,0-0.9,0.4-1.1c-0.1-0.2-0.2-0.4-0.2-0.7c0.3-0.5,1-1.4,1.8-0.8
		c0,0.2-0.1,0.4,0,0.6c0.2,0.1,0.4-0.1,0.7-0.1c0.4,0,0.9,0.3,1.3,0.3c0.4,0.5,0.4,1.2,0,1.6c-0.4,0.3-1.1,0.2-1.6,0.5
		c-0.5,0.3-0.3,1.3-0.5,1.8C115.3,102.5,115.2,103.4,114.7,103.6z M109.9,90.5c-0.3,0-0.7,0.1-1.1,0.1c-0.3,0-0.6,0-0.9,0
		c-0.2,0-0.4,0.1-0.6,0.1c-0.2,0-0.4,0-0.6,0c-0.3,0-0.7,0.4-1.1,0.6c-0.3,0.1-0.6,0.4-0.9,0.6c-0.2,0.1-0.5,0.1-0.7,0.2
		c-0.4,0.2-0.6,0.6-1.2,0.7c-0.2-0.3,0.1-0.8,0.1-1.4c0.3-0.4,0.3-1.2,0.4-2c0.2-0.2,0.2-0.5,0.4-0.7c0.5-0.1,1.1-0.1,1.5-0.4
		c0.3-0.2,0.6-0.5,0.9-0.8c0.6-0.5,1.2-1.1,1.9-1.7c0.6-0.5,1.6-1,2.2-1.6c0.3-0.3,0.5-0.9,0.8-1.3c0.2-0.2,0.6-0.5,0.8-0.5
		c0.4-0.1,0.8,0,1.2,0.1c0.9,0.1,2-0.1,2.7,0.3c0.2,0.9,0,2,0.3,2.8c0.1,0.1,0.5,0,0.7,0.1c-0.1,0.5-0.7,0.8-1.1,1.1
		c-0.2,0.1-0.4,0.3-0.6,0.5c-1,0.7-2.1,1.6-3,2.6C112.4,91.8,110.8,90.6,109.9,90.5z M108.1,99.3c0.6-0.4,0.1-1.1,0.5-1.6
		c0.1-0.1,0.4-0.1,0.7-0.3c0.5-0.2,0.5-0.5,1.1-0.4c0.3,0,0.4,0.3,0.7,0.4c0.5,0.2,1.2,0.2,1.2,0.9c0,0.5-0.5,0.9-0.9,1.1
		c-0.1,0.1-0.3,0.1-0.4,0.2c-0.4,0.5-0.2,0.9-0.7,1.4c-0.8-0.1-3.2-0.1-3.2-1.2C107.2,99.5,107.5,99.3,108.1,99.3z M152.4,125.9
		c-0.2,1.3-0.6,2.5-0.9,3.8c-0.1,0.5-0.2,0.9-0.4,1.4c-0.2,0.4-0.2,1-0.3,1.4c-0.1,0.1-0.3,0.3-0.4,0.6c-0.1,0.4-0.2,0.9-0.3,1.3
		c-0.1,0.2-0.3,0.3-0.4,0.6c-0.2,0.4-0.5,1.8-1.2,1.7c-0.3,0-0.2-0.4-0.4-0.7c-0.1-0.3-0.4-0.5-0.4-0.7c0-0.2,0-0.5-0.1-0.7
		c-0.1-0.4-0.2-0.8-0.4-1.4c-0.1-0.6-0.3-1.5-0.3-2.2c-0.3-0.5-1.4-0.7-2-1.2c-0.1-0.1-0.3-0.5-0.6-0.6c-0.2,0-0.4,0.1-0.7,0.1
		c-0.3,0-0.7,0-1.1,0.1c-0.3,0.1-0.6,0.2-0.9,0.2c-0.6,0-1.3-0.3-2-0.4c-0.3,0-0.6,0-0.8,0c-0.8-0.1-1.7-0.5-2.5-0.7
		c-0.4-0.1-0.9-0.2-1.3-0.3c-0.3-0.1-0.8-0.4-1.1,0c-0.1,0.3,0.3,0.5,0.5,0.7c0.2,0.1,0.4,0.3,0.7,0.6c0.5,0.6,1,1.4,2.3,1.1
		c0.2-0.1,0.5-0.3,0.7-0.4c0.9-0.2,1.6,0.5,1.8,1.2c0,0.1,0,0.3,0,0.6c0.1,0.4,0.2,0.8,0.4,1.4c0,0.1,0.1,0.3,0.1,0.4
		c0,0.4-0.6,0.5-0.7,1c-0.4,0.1-0.6,0.5-1,0.9c-0.1,0.1-0.3,0.2-0.5,0.4c-0.1,0.1-0.3,0.4-0.4,0.5c-0.3,0.2-0.8,0.4-1.2,0.7
		c-0.3,0.2-0.7,0.7-1,0.8c-0.2,0.1-0.6,0.1-0.9,0.2c-0.3,0.1-0.5,0.3-0.8,0.3c-0.6,0-1.3,0-1.9,0c-0.3,0-0.5,0.2-0.8,0.2
		c-0.3,0-0.9-0.3-1.3-0.4c-0.4-0.2-0.8-0.3-1-0.7c0.1-0.5,0-0.9,0-1.4c-0.1-0.7,0-1.4,0-2c-0.1-1.6-1.2-2.4-2-3.5
		c-0.1-0.2-0.4-0.4-0.5-0.7c0-0.1,0-0.3-0.1-0.5c-0.1-0.1-0.2-0.2-0.3-0.4c0-0.2,0-0.5-0.1-0.7c-0.1-0.2-0.2-0.4-0.3-0.6
		c0-0.1,0-0.3-0.1-0.5c-0.1-0.2-0.2-0.3-0.3-0.6c0-0.2-0.1-0.5-0.1-0.7c-0.1-0.4-0.5-0.8-0.6-1.3c-0.3-0.2-0.4-0.6-0.9-0.7
		c-0.5,0.4,0,1.5-0.4,1.9c-0.7,0-1-0.8-1.6-0.8c-0.3,0.5,0.4,0.8,0.3,1.4c0.4,0.5,0.7,1.1,1.1,1.7c0.3,0.5,0.6,1.2,1,1.7
		c0.3,0.5,0.7,0.8,0.9,1.3c0,0.1,0,0.3,0.1,0.4c0,0.1,0.2,0.2,0.2,0.3c0.1,0.2,0,0.6,0.1,0.9c0.1,0.3,0.3,0.7,0.4,1.2
		c0.1,0.4,0.2,0.9,0.3,1.4c0,0.2,0,0.5,0.1,0.7c0.1,0.2,0.3,0.3,0.5,0.5c0.1,0.1,0.1,0.3,0.2,0.5c0.2,0.4,0.7,0.8,0.9,1.2
		c0.2,0.4,0.3,0.9,0.8,1.1c0.5-0.2,0.9,0.1,1.3,0.1c0.1,0,0.3,0,0.5,0c0.5,0,1.1,0.2,1.7,0.4c0.6,0.1,1.1,0.2,1.6,0.5
		c0,0.4-0.5,0.6-0.8,0.8c-0.3,0.2-0.6,0.5-0.9,0.7c-0.4,0.4-0.9,0.7-1.4,1.1c-0.1,0.1-0.2,0.3-0.4,0.4c-0.6,0.4-1.4,0.6-2.3,0.8
		c-0.7,0.4-0.9,1.1-1.6,1.6c-0.1,0.1-0.2,0.3-0.4,0.4c-0.1,0.1-0.3,0.1-0.5,0.2c-0.5,0.3-0.9,0.7-1.3,0.9c-0.4,0.1-0.8,0.2-1.1,0.5
		c-0.2,0.4-0.3,0.9-0.5,1.4c-0.1,0.2-0.3,0.5-0.5,0.7c-0.2,0.5-0.3,1.1-0.6,1.5c-0.1,0.2-0.3,0.5-0.4,0.7c0,0.1,0,0.3-0.1,0.4
		c-0.1,0.2-0.3,0.3-0.4,0.5c-0.3,0.7-0.2,1.5-0.6,2.1c-0.3,0.4-1,0.9-1.5,1.2c-0.6,0.3-1.1,0.6-1.6,1c-0.1,0.3-0.3,0.4-0.4,0.8
		c-0.6,0.4-0.8,1.2-1.3,1.6c-0.6,1.4-1.8,2.3-2.4,3.6c-3.7,0.6-8.5,0.8-12.1,0c0-1,0.2-1.9,0.3-2.9c0-0.2-0.1-0.5,0-0.8
		c0-0.7,0.4-1.3,0.6-2c0.2-1,0-2.1-0.1-3c0-0.3,0-0.5,0-0.8c-0.1-0.8-0.7-1.5-0.8-2.4c-0.4-0.4-0.5-1.2-0.8-1.8c0.3-0.9,0.4-2,0.7-3
		c0.1-0.3,0.3-0.6,0.3-0.8c0-0.3,0-0.6-0.1-1c0-0.3,0-0.6,0-0.8c0-0.3-0.2-0.6-0.3-0.9c-0.2-1.2,0.3-2.1,0.5-3c0-0.2,0-0.4,0.1-0.6
		c0.1-0.1,0.2-0.3,0.3-0.5c0-0.2,0-0.5,0.1-0.7c0.1-0.3,0.4-0.5,0.4-0.7c0-0.4-0.6-0.8-0.8-1.1c-0.1-0.2-0.2-0.5-0.4-0.7
		c-0.2-0.2-0.4-0.5-0.7-0.8c-0.1-0.1-0.2-0.3-0.3-0.4c-0.1-0.1-0.3-0.2-0.4-0.3c-0.2-0.3-0.2-0.6-0.4-0.7c-0.4-0.3-1-0.2-1.6-0.2
		c-0.3,0-0.6-0.2-0.9-0.2c-0.1,0-0.3,0-0.5,0c-0.4,0-0.7-0.2-1.1-0.3c-0.8-0.2-1.6-0.4-2.5-0.4c-0.3-1.1-0.9-2.3-1.3-3.7
		c0-0.3-0.2-0.5-0.2-0.8c-0.1-0.4-0.1-0.8-0.3-1.3c-0.1-0.4-0.4-0.8-0.4-1.1c0-0.4,0.3-0.9,0.5-1.2c0-0.5,0.4-1.1,0.6-1.6
		c0-0.2,0-0.4,0.1-0.6c0.1-0.2,0.3-0.3,0.4-0.5c0.1-0.2,0.1-0.5,0.2-0.7c0.2-0.3,1.1-0.8,1.7-1.1c0.6-0.4,1.1-0.7,1.7-1.1
		c0.8-0.5,1.7-1,2.6-1.6c0.5-0.4,0.7-0.7,1.6-0.7c0.5,0,1,0.5,1.4,0.5c0.4-0.1,0.3-0.6,0.5-0.9c0.2-0.4,0.7-0.8,0.7-1.3
		c0.1-0.1,0.3-0.2,0.4-0.4c0.7-0.2,1.1-0.7,1.8-0.9c0.5-0.3,1.5-1.3,1.7,0c0.4,0.3,0.9,0.3,1.4,0.5c0.2,0.1,0.5,0.4,0.8,0.5
		c0.5,0.2,1.1,0.1,1.7,0.3c0.3,0.1,0.5,0.4,0.9,0.4c0.2,0.4,0.5,0.6,0.5,1.1c0,0.3-0.3,0.5-0.2,0.8c0,0.4,0.4,0.5,0.7,0.8
		c0.2,0.2,0.6,0.7,1,1.2c0.3,0.4,0.6,1.1,1,1.1c0.3,0,0.5-0.3,0.8-0.3c0.7,0,1.1,0.5,1.4,1.1c0.8,0.2,1.7,0.3,2.7,0.6
		c0.3,0.1,0.6,0.2,0.8,0.2c0.5,0,0.9,0,1.5,0.1c0.7,0.2,1.1,0.4,1.7,0.7c0.5,0,0.5-0.8,0.7-1.1c0.1-0.2,0.5-0.4,0.5-0.8
		c0-0.5-1.3-0.4-1.7-0.7c-0.7-0.5-0.6-1.7-0.1-2.5c0.2-0.3,0.5-0.3,0.6-0.8c-0.1-0.3-0.8-0.2-1.1-0.1c-0.3,0.7-0.1,1.7-0.9,1.9
		c-0.3,0.1-0.6,0-0.9-0.1c-0.2,0-0.4,0-0.6,0c-0.4-0.1-0.7-1.2-0.7-1.8c0-0.4,0.2-0.9,0-1.4c-0.1-0.3-0.3-0.5-0.6-0.7
		c0-0.5-0.2-0.8-0.5-1c-0.3,0.5,0.2,0.8,0.4,1.1c0,1.1,0.6,2.5-0.3,3.1c-0.7-0.4-0.9-0.1-1.4,0.3c-0.3,0.2-0.5,0.5-0.8,0.5
		c-0.5,0-0.8-0.6-0.7-1.1c0.1-0.5,1.3-1,1.3-1.6c0-0.3-0.3-0.5-0.4-0.8c0-0.2,0-0.5-0.1-0.8c0-0.3-0.2-0.5-0.3-0.8
		c0-0.1,0-0.3,0-0.4c-0.1-0.4-0.2-0.8-0.3-1.2c-0.4-0.6-1.1-0.1-1.9-0.2c-0.3-0.1-0.3-0.5-0.5-0.8c-0.9-0.2-0.9,0.5-1.4,0.8
		c-0.2,0.1-0.5,0.2-0.8,0.4c-0.2,0.1-0.5,0.3-0.7,0.4c-0.3,0.2-0.6,0.7-0.8,0.7c-0.4,0.1-1-0.3-1.4-0.5c-0.5-0.2-0.9-0.4-1.1-0.8
		c0-1.1-0.7-1.4-1.1-2c0-0.6,0.4-0.9,0.7-1.2c0.1-0.2,0.2-0.5,0.4-0.8c0.2-0.3,0.6-0.5,0.8-0.7c0.1-0.1,0.1-0.4,0.3-0.6
		c0.1-0.1,0.3-0.3,0.5-0.5c0.3-0.3,0.6-0.6,1.2-0.3c0,0,0.3,0.3,0.4,0.4c0.2,0.4,0.1,1.3,0.9,1.1c0.4,0,0.4-0.3,0.4-0.7
		c0-0.2,0-0.7-0.1-0.9c0-0.2-0.4-0.5-0.5-0.7c-0.1-0.4,0.2-1.1,0.5-1.3c0.5-0.1,0.8,0.5,1.4,0.5c0.1,0,0.4-0.1,0.6,0
		c0.3,0,0.5,0.4,0.8,0.5c0.4,0.1,0.8,0,1.2-0.1c0.4,0,0.9,0,1.1-0.1c0.2-0.1,0.2-0.3,0.3-0.4c0.3-0.3,0.7-0.6,1.2-0.9
		c0.3,0,0.4,0.2,0.6,0.3c0.4-0.7,1.1-1.1,1.8-1.5c0-0.3-0.6-0.4-0.6-0.8c0-0.2,0.7-0.5,0.9-0.7c0.2-0.2,0.4-0.4,0.5-0.5
		c0.2-0.1,0.5-0.2,0.7-0.4c0.2-0.1,0.5-0.4,0.8-0.6c0.2-0.2,0.6-0.3,0.8-0.5c0.4-0.3,0.6-0.8,1.2-1c0.3-0.2,0.4-0.5,0.8-0.6
		c0.5-0.1,0.8,0.3,1.3,0.6c0.4,0.2,0.9,0.3,1.3,0.5c0.1,0.1,0.3,0.3,0.4,0.4c0.1,0.1,0.4,0.2,0.5,0.3c0.4,0.2,0.7,0.5,1.2,0.3
		c0.2-0.3-0.1-0.7-0.1-1.1c0-0.4,0.1-1,0.3-1.3c0.1-0.2,0.3-0.3,0.5-0.5c0.1-0.1,0.2-0.3,0.3-0.5c0.2-0.3,0.6-1,0.7-1.4
		c0-0.1,0-0.4,0-0.6c0-0.3,0.3-0.7,0.4-1.1c0-0.1,0.1-0.4,0.1-0.6c0-0.2,0.1-0.4,0.1-0.6c0.1-0.2,0.3-0.3,0.4-0.5
		c0.1-0.2,0.2-0.5,0.2-0.7c0.2-0.5,0.2-1.1,0.4-1.7c-0.3-0.6,0.2-1.3,0.1-1.9c0-0.3-0.3-0.6-0.4-1c0-0.4,0-0.7,0-1.1
		c0-0.7-0.4-1.5-0.4-2.4c-0.4-0.5-1.3-0.6-1.8-1.1c-0.8-0.3-1.8-0.4-1.7-1.6c-0.2-0.6-1.3-0.9-0.9-1.8c0.6-0.2,1.4-0.3,1.7-0.7
		c0.3,0.1,0.5-0.1,0.8-0.1c0.3,0,0.4,0.3,0.7,0.3c0.1,0,0.3,0,0.5,0c0.5,0,1.1,0.4,1.6,0.4c0.2,0,0.5-0.1,0.7-0.1
		c0.4,0.1,0.6,0.7,0.9,0.8c0.1,0,0.4,0,0.5,0.1c2.5,2.1,4.9,4.5,7,7.2c1,1.3,1.9,2.7,2.9,4.2c0.2,0.4,0.5,0.7,0.7,1.1
		c0.2,0.4,0.3,0.8,0.5,1.2c0.2,0.4,0.5,0.7,0.7,1.1c0.1,0.2,0.2,0.4,0.3,0.6c0.1,0.3,0.3,0.6,0.5,1.1c0.1,0.2,0.3,0.4,0.4,0.6
		c0.3,0.8,0.6,1.6,0.9,2.5c0.3,0.8,0.7,1.6,1,2.4c0.3,0.8,0.5,1.7,0.8,2.6c0.2,0.6,0.3,1.3,0.5,2c0.1,0.2,0.2,0.4,0.2,0.6
		c0,0.3,0,0.6,0.1,0.9c0.1,0.3,0.2,0.5,0.2,0.7c0,0.2,0,0.5,0.1,0.8c0.2,1.1,0.5,2.3,0.7,3.5C153.4,115.7,153.3,121.3,152.4,125.9z"
		/>
</g>
<path fill="#C0CEAF" d="M68.6,33.5c-0.1,0,0,0,0-0.1c0,0,0.1,0,0.1,0c0.6,0.1,1.3,0.9,2,1.3c0.1,0.1,0.2,0.1,0.3,0.1
	c0.4,0.4,1.1,0.9,1.6,1.3c0.6,0.5,1.2,1.1,1.7,1.6c1.7,1.5,3.3,3.3,4.7,5.3c0.4,0.6,0.9,1.3,1.3,2c0.2,0.3,0.3,0.7,0.5,1.1
	c0.4,0.7,0.8,1.2,1.2,2c0.1,0.3,0.4,0.7,0.5,1c0.2,0.4,0.3,1,0.4,1.6c0.1,0.6,0.4,1.1,0.5,1.6c0.1,0.5,0.1,1,0.2,1.6
	c0.1,1,0.2,2,0.4,3.1c0.1,0.5,0.3,1.2,0.3,1.4c-0.1,0.3-1,0.5-1.4,0.7c-0.5,0.2-1.1,0.6-1.6,0.5c-0.3,0-1.1-0.5-1.5-0.9
	c-1-0.8-1.8-1.3-2.6-2.2c-0.6-0.6-1.2-1.3-1.8-2.1c-0.4-0.6-0.7-1.2-1.1-1.9s-0.6-1.3-0.9-2.1c-0.5-1.5-1-3.4-1.4-5.2
	c-0.3-1.4-0.5-2.9-0.9-4.2c-0.5-2-1.4-3.7-2.1-5.6C68.9,34.7,68.7,34.1,68.6,33.5z"/>
<path fill="#C0CEAF" d="M52.8,24.3c1.1,0.4,2.7,1.5,3.7,2.2c0.6,0.4,1.2,0.8,1.7,1.2c2.2,1.6,4.3,3.4,6,5.6c0.2,0.2,0.4,0.6,0.6,0.8
	s0.5,0.4,0.7,0.7c0.2,0.3,0.4,0.8,0.7,1.2c1.4,2.6,2.7,5.4,3.8,8.4c0.1,0.2,0.2,0.4,0.3,0.6c0.1,0.3,0,0.6,0.1,0.9
	c0,0.2,0.2,0.5,0.3,0.7c0.1,0.5,0.2,1.1,0.3,1.6c0.2,1.1,0.4,2.2,0.6,3.3c0.2,1.1,0.5,2.1,0.8,3.1c0.3,1,0.6,2,1,2.9
	c0.5,1.1,1.2,2.2,2,3.2c0.2,0.3,0.7,0.8,0.7,1c0,0.2-0.7,0.6-1.1,0.8c-0.4,0.2-0.8,0.4-1.2,0.6c-0.4,0.2-0.7,0.5-1.1,0.7
	c-0.4,0.2-0.9,0.5-1.3,0.5c-0.8,0-2.3-1.3-2.9-1.7c-1.5-1-2.6-1.9-3.8-3.1c-1.1-1.1-2.1-2.4-3-3.8c-1.1-1.8-2.2-4.1-2.8-6.4
	c-0.1-0.6-0.2-1.2-0.4-1.9c-0.3-1.3-0.4-2.7-0.5-4.1c-0.3-2.3-0.2-4.9-0.6-7.1c-0.2-1.6-0.7-2.9-1.2-4.3c-0.7-1.9-1.7-3.8-2.6-5.6
	c-0.3-0.6-0.6-1.3-0.8-2C52.7,24.4,52.8,24.3,52.8,24.3z"/>
<path fill="#C0CEAF" d="M24.2,78.3c1.3-0.2,3.1-0.4,4.7-0.1c1,0.2,1.8,0.3,2.8,0.6c0.8,0.3,1.5,0.5,2.3,0.8c0.4,0.1,0.8,0.2,1.2,0.4
	c0.4,0.2,0.8,0.5,1.2,0.7c1.2,0.6,2.4,1.4,3.6,2.2c1.2,0.8,2.2,1.7,3.3,2.6c0.1,0.1,0.3,0.3,0.5,0.4c0.1,0.1,0.3,0.3,0.4,0.5
	c0.4,0.3,1.1,0.6,1.7,0.9c0.1,0.1,0.2,0.2,0.4,0.3c0.4,0.2,0.9,0.6,1.3,0.8c0.5,0.2,1,0.2,1.4,0.6c-0.1,0.6-0.3,0.9-0.5,1.5
	c-0.2,0.4-0.4,1.1-0.8,1.3c-0.3,0.1-0.6,0-1,0c-1.6-0.1-3.8,0.5-5.2,0.5c-0.5,0-0.9,0-1.4,0c-2.1-0.1-3.9-0.5-5.5-1.3
	c-1.5-0.7-2.9-1.6-4.2-2.5c-0.3-0.2-0.7-0.4-1.1-0.7c-0.3-0.2-0.6-0.5-0.9-0.7c-1.2-1-2.5-1.9-3.8-2.9c-0.6-0.5-1.3-1-2-1.4
	c-0.4-0.2-0.9-0.4-1.3-0.6c-0.9-0.4-1.7-0.9-2.6-1.3c-0.4-0.2-1-0.2-1.2-0.7c0.9-0.5,2-0.6,3-1c0.2-0.1,0.5-0.2,0.7-0.3
	c0.5-0.1,1-0.2,1.6-0.4c0.2,0,0.5-0.2,0.7-0.2C23.7,78.4,23.9,78.4,24.2,78.3z"/>
<path fill="#C0CEAF" d="M17,117.2c1.5,0,3.3,0.2,4.7,0.6c0.7,0.2,1.4,0.4,2.1,0.6c1,0.3,2,0.6,3.1,0.9c0.3,0.1,0.6,0.3,0.9,0.4
	c1.3,0.5,2.9,0.7,4.5,0.9c2.3,0.4,4.7,0.4,6.7-0.1c0.4-0.1,0.8-0.3,1.2-0.4c0.7-0.2,1.3-0.3,2-0.6c0.4-0.2,0.9-0.5,1.4-0.5
	c0.3,0.9,0.2,1.9,0.3,2.9c0,0.2,0.1,0.5,0.1,0.8c0.1,0.8,0,1.7,0.1,2.6c-1.1,0.9-2.3,1.4-3.5,2.2c-1.4,0.9-3.2,1.4-5.2,1.8
	c-0.8,0.2-1.7,0.4-2.6,0.5c-0.9,0.1-1.8,0.4-2.6,0.4c-4.8,0.3-9-0.4-12.7-1.4c-0.6-0.1-1.2-0.3-1.8-0.5c-2.9-1-5.9-2.1-8.8-3
	c-2.4-0.7-5-1.2-7.4-2c0.1-0.4,0.5-0.5,0.8-0.7s0.6-0.4,0.9-0.5c0.3-0.2,0.7-0.3,1-0.5c0.9-0.4,1.9-1,3-1.6c1-0.5,1.9-1,3-1.5
	c0.8-0.3,1.6-0.7,2.8-0.9c0.3,0,0.6-0.1,0.9-0.1C13.4,117.2,15.2,117.2,17,117.2z"/>
<path fill="#C0CEAF" d="M40.1,51.3c1.1,0.2,2.6,0.7,3.8,1.1c0.1,0,0.3,0.1,0.4,0.2c2.3,0.8,3.9,1.5,5.6,2.6c0.5,0.4,1.2,0.6,1.7,1
	c0.5,0.3,1.1,0.7,1.6,1.1c0.8,0.6,1.5,1,2.1,1.7c0.2,0.2,0.4,0.3,0.6,0.5c0.4,0.4,0.6,0.9,1,1.3c0.5,0.6,1,1.3,1.4,2
	c1.3,2,2.5,4.5,4.1,6.3c0.2,0.3,1.1,0.9,1.1,1.2c0,0.3-0.8,0.8-1.2,1.1c-0.4,0.3-0.9,0.9-1.3,0.9c-0.3,0-1.1-0.4-1.5-0.5
	c-1.5-0.5-3.3-1.1-4.5-1.7c-1.4-0.7-2.7-1.4-3.9-2.3c-0.9-0.6-1.6-1.2-2.4-2.1c-0.4-0.4-0.8-0.9-1.1-1.3c-0.3-0.5-0.6-1-0.9-1.6
	c-0.3-0.5-0.7-1-1-1.5c-1.2-2.1-2.2-4.5-3.5-6.5c-0.3-0.5-0.6-1-1-1.5c-0.4-0.6-0.9-1.2-1.2-2C40,51.4,40,51.3,40.1,51.3z"/>
<path fill="#C0CEAF" d="M32,117.2c-0.2,0-0.4,0.1-0.6,0.1c-0.2,0-0.5-0.1-0.8-0.1c-0.7,0-1.3,0-2-0.1c-2.9-0.5-5.8-1.3-8.6-2
	c-1.9-0.4-3.6-0.7-6-0.7c-0.8,0-1.5,0.1-2.2,0c0.1-0.3,0.4-0.5,0.7-0.6c1.3-0.7,2.9-1.6,4.4-2.2c1.9-0.7,3.9-1.3,6.2-1.7
	c1.5-0.2,3.1-0.3,4.8-0.4c1.4,0,3.1,0,4.6,0c1.3,0.1,2.8,0.3,4.2,0.6c0.9,0.2,2.4,0.6,3.7,0.5c1.1,0,2.2-0.3,3.3-0.4
	c0.1,0.8,0,2.1-0.1,3c-0.7,0.4-1.4,0.7-2.1,1.1c-0.6,0.3-1.3,0.8-2,1.2c-1.4,0.7-3.1,1.1-4.9,1.4c-0.6,0.1-1.2,0.3-1.7,0.3
	C32.5,117.2,32.2,117.2,32,117.2z"/>
<path fill="#C0CEAF" d="M23.2,48.6c0.7,0,1.5,0.3,2.4,0.4c0.7,0.1,1.6,0.3,2.3,0.5c2.9,0.8,5.6,1.8,7.9,3.2c0.5,0.3,1.1,0.7,1.6,1.2
	c0.5,0.4,1,0.8,1.5,1.2c0.8,0.7,1.6,1.8,2.3,2.7c0.7,0.9,1.4,2,2,3c1.3,2.1,2.3,4.3,3.6,6.3c0.3,0.5,0.5,1.1,0.9,1.6
	c0.9,1.5,2,3,3.4,4.1c1.1,0.9,2.4,1.8,3.7,2.5c0.5,0.3,1.1,0.6,1.6,0.8c0.3,0.1,0.6,0.1,0.8,0.4c-0.1,0.5-0.5,0.9-0.8,1.2
	c-0.6,0.7-1.1,1.4-1.8,2.2c-0.2,0.3-0.6,1-0.9,1.1c-0.2,0-0.8-0.1-1.3-0.3c-2.9-0.7-5.9-1.6-8-2.8c-1.4-0.7-2.5-1.6-3.7-2.5
	c-0.9-0.6-1.8-1.3-2.6-2.1c-0.2-0.2-0.6-0.5-0.8-0.7c-0.3-0.4-0.6-0.9-1-1.4c-0.3-0.4-0.8-0.9-1.1-1.3c-0.1-0.1-0.1-0.3-0.1-0.4
	c-0.5-0.7-1.1-1.7-1.5-2.6c-0.9-2.2-1.7-4.6-2.6-7c-0.8-2.2-2.1-4.4-3.5-6.1c-0.3-0.4-0.7-0.9-1.1-1.3c-0.6-0.6-1.1-1.2-1.7-1.9
	c-0.4-0.4-1.6-1.5-1.5-2C23,48.6,23.1,48.6,23.2,48.6z"/>
<path fill="#C0CEAF" d="M14.2,83c1.1,0,2.3,0,3.1,0.1c0.2,0,0.4,0.1,0.7,0.2c1.1,0.3,2.1,0.8,3.1,1.2c0.8,0.3,1.5,0.8,2.2,1.2
	c1.4,0.9,2.7,1.9,4.1,2.9c1.3,1,2.6,2.1,3.9,3.1c0.6,0.5,1.4,0.9,2.1,1.3c0.3,0.2,0.6,0.5,1,0.7c0.2,0.1,0.4,0.1,0.5,0.3
	c0.1,0.1,0.3,0.3,0.4,0.4c0.7,0.4,1.5,0.7,2.4,1.1c0.8,0.3,1.6,0.7,2.4,1c0.9,0.3,1.8,0.4,2.8,0.7c0.4,0.1,0.9,0.2,1.4,0.3
	c0.4,0,0.9,0.1,1.3,0.3c0,0.7-0.3,1.5-0.4,2.3c-0.2,0.8-0.3,1.5-0.6,2.2c-1.7,0.6-3.4,0.8-5.5,1.1c-0.6,0.1-1.3,0.3-1.9,0.3
	c-0.5,0-1-0.1-1.6-0.1c-1.4-0.1-2.8-0.5-4.1-0.8c-1.7-0.4-3.2-1.2-4.7-2c-2.2-1.1-4.1-2.5-6.2-3.8c-0.3-0.2-0.6-0.5-0.9-0.7
	c-0.9-0.7-1.9-1.3-2.9-2c-1.9-1.4-3.8-2.9-5.8-4.2c-2.4-1.4-4.9-2.8-7.3-4.3c-0.3-0.2-0.8-0.3-0.8-0.8c2.2-0.6,4.7-1,6.8-1.7
	c0.9-0.1,1.7-0.1,2.6-0.3c0.2,0,0.6-0.1,0.8-0.1C13.5,82.9,13.8,83,14.2,83z"/>
</svg>
